<mxfile host="app.diagrams.net" modified="2022-06-29T14:38:51.587Z" agent="5.0 (X11; Linux x86_64) AppleWebKit/537.36 (KHTML, like Gecko) Chrome/103.0.0.0 Safari/537.36" etag="OaWtTck1Dhu-KhuUo1L0" version="20.0.3" type="github" pages="4">
  <diagram id="9UGvHK0S9YZ4UyB9R5i8" name="Project Flow">
    <mxGraphModel dx="935" dy="557" grid="1" gridSize="10" guides="1" tooltips="1" connect="1" arrows="1" fold="1" page="1" pageScale="1" pageWidth="850" pageHeight="1100" math="0" shadow="0">
      <root>
        <mxCell id="0" />
        <mxCell id="1" parent="0" />
        <mxCell id="FguDmeDMIgBSosAkrxc6-1" style="edgeStyle=orthogonalEdgeStyle;rounded=0;orthogonalLoop=1;jettySize=auto;html=1;exitX=0.5;exitY=1;exitDx=0;exitDy=0;" parent="1" source="xfPSIjpkJItjeL2CZEPv-1" target="9So5rBOJqA-NDW9uyCw4-3" edge="1">
          <mxGeometry relative="1" as="geometry">
            <mxPoint x="262" y="190" as="targetPoint" />
          </mxGeometry>
        </mxCell>
        <mxCell id="xfPSIjpkJItjeL2CZEPv-1" value="&lt;b&gt;Start&lt;/b&gt;" style="ellipse;whiteSpace=wrap;html=1;" parent="1" vertex="1">
          <mxGeometry x="202" y="50" width="120" height="80" as="geometry" />
        </mxCell>
        <mxCell id="FguDmeDMIgBSosAkrxc6-3" style="edgeStyle=orthogonalEdgeStyle;rounded=0;orthogonalLoop=1;jettySize=auto;html=1;exitX=0.5;exitY=1;exitDx=0;exitDy=0;entryX=0.5;entryY=0;entryDx=0;entryDy=0;" parent="1" source="FguDmeDMIgBSosAkrxc6-2" target="FguDmeDMIgBSosAkrxc6-6" edge="1">
          <mxGeometry relative="1" as="geometry">
            <mxPoint x="282" y="480" as="targetPoint" />
          </mxGeometry>
        </mxCell>
        <mxCell id="FguDmeDMIgBSosAkrxc6-2" value="&amp;nbsp;ERD Design" style="whiteSpace=wrap;html=1;aspect=fixed;" parent="1" vertex="1">
          <mxGeometry x="222" y="330" width="80" height="80" as="geometry" />
        </mxCell>
        <mxCell id="lWoYZrY9iDLrHJuIyo-z-2" style="edgeStyle=orthogonalEdgeStyle;rounded=0;orthogonalLoop=1;jettySize=auto;html=1;exitX=0.5;exitY=1;exitDx=0;exitDy=0;entryX=0.5;entryY=0;entryDx=0;entryDy=0;" parent="1" source="FguDmeDMIgBSosAkrxc6-4" target="lWoYZrY9iDLrHJuIyo-z-1" edge="1">
          <mxGeometry relative="1" as="geometry" />
        </mxCell>
        <mxCell id="FguDmeDMIgBSosAkrxc6-4" value="DBMS Design" style="rounded=0;whiteSpace=wrap;html=1;" parent="1" vertex="1">
          <mxGeometry x="202" y="600" width="120" height="50" as="geometry" />
        </mxCell>
        <mxCell id="FguDmeDMIgBSosAkrxc6-7" style="edgeStyle=orthogonalEdgeStyle;rounded=0;orthogonalLoop=1;jettySize=auto;html=1;exitX=0.5;exitY=1;exitDx=0;exitDy=0;entryX=0.5;entryY=0;entryDx=0;entryDy=0;" parent="1" source="FguDmeDMIgBSosAkrxc6-6" target="FguDmeDMIgBSosAkrxc6-4" edge="1">
          <mxGeometry relative="1" as="geometry" />
        </mxCell>
        <mxCell id="TEJv3lC_G7AYJr5et44U-2" value="Yes" style="edgeLabel;html=1;align=center;verticalAlign=middle;resizable=0;points=[];" parent="FguDmeDMIgBSosAkrxc6-7" vertex="1" connectable="0">
          <mxGeometry x="-0.3333" y="2" relative="1" as="geometry">
            <mxPoint as="offset" />
          </mxGeometry>
        </mxCell>
        <mxCell id="TEJv3lC_G7AYJr5et44U-1" style="edgeStyle=orthogonalEdgeStyle;rounded=0;orthogonalLoop=1;jettySize=auto;html=1;exitX=0;exitY=0.5;exitDx=0;exitDy=0;" parent="1" source="FguDmeDMIgBSosAkrxc6-6" edge="1">
          <mxGeometry relative="1" as="geometry">
            <mxPoint x="222" y="370" as="targetPoint" />
            <Array as="points">
              <mxPoint x="162" y="505" />
              <mxPoint x="162" y="370" />
            </Array>
          </mxGeometry>
        </mxCell>
        <mxCell id="TEJv3lC_G7AYJr5et44U-3" value="No" style="edgeLabel;html=1;align=center;verticalAlign=middle;resizable=0;points=[];" parent="TEJv3lC_G7AYJr5et44U-1" vertex="1" connectable="0">
          <mxGeometry x="-0.7133" y="2" relative="1" as="geometry">
            <mxPoint x="-19" y="-67" as="offset" />
          </mxGeometry>
        </mxCell>
        <mxCell id="FguDmeDMIgBSosAkrxc6-6" value="Domain&amp;nbsp;&lt;br&gt;Driven&lt;br&gt;Design" style="rhombus;whiteSpace=wrap;html=1;" parent="1" vertex="1">
          <mxGeometry x="217" y="460" width="90" height="90" as="geometry" />
        </mxCell>
        <mxCell id="9So5rBOJqA-NDW9uyCw4-1" style="edgeStyle=orthogonalEdgeStyle;rounded=0;orthogonalLoop=1;jettySize=auto;html=1;exitX=0.5;exitY=1;exitDx=0;exitDy=0;entryX=0.5;entryY=0;entryDx=0;entryDy=0;" parent="1" source="lWoYZrY9iDLrHJuIyo-z-1" target="9So5rBOJqA-NDW9uyCw4-8" edge="1">
          <mxGeometry relative="1" as="geometry">
            <mxPoint x="262" y="860" as="targetPoint" />
          </mxGeometry>
        </mxCell>
        <mxCell id="9So5rBOJqA-NDW9uyCw4-6" value="Yes" style="edgeLabel;html=1;align=center;verticalAlign=middle;resizable=0;points=[];" parent="9So5rBOJqA-NDW9uyCw4-1" vertex="1" connectable="0">
          <mxGeometry x="-0.1565" relative="1" as="geometry">
            <mxPoint as="offset" />
          </mxGeometry>
        </mxCell>
        <mxCell id="9So5rBOJqA-NDW9uyCw4-5" style="edgeStyle=orthogonalEdgeStyle;rounded=0;orthogonalLoop=1;jettySize=auto;html=1;exitX=0;exitY=0.5;exitDx=0;exitDy=0;entryX=0;entryY=0.5;entryDx=0;entryDy=0;" parent="1" source="lWoYZrY9iDLrHJuIyo-z-1" target="FguDmeDMIgBSosAkrxc6-4" edge="1">
          <mxGeometry relative="1" as="geometry">
            <Array as="points">
              <mxPoint x="162" y="745" />
              <mxPoint x="162" y="625" />
            </Array>
          </mxGeometry>
        </mxCell>
        <mxCell id="9So5rBOJqA-NDW9uyCw4-7" value="No" style="edgeLabel;html=1;align=center;verticalAlign=middle;resizable=0;points=[];" parent="9So5rBOJqA-NDW9uyCw4-5" vertex="1" connectable="0">
          <mxGeometry x="-0.615" y="-1" relative="1" as="geometry">
            <mxPoint x="-13" y="-54" as="offset" />
          </mxGeometry>
        </mxCell>
        <mxCell id="lWoYZrY9iDLrHJuIyo-z-1" value="Database&amp;nbsp;&lt;br&gt;Constraint" style="rhombus;whiteSpace=wrap;html=1;" parent="1" vertex="1">
          <mxGeometry x="217" y="700" width="90" height="90" as="geometry" />
        </mxCell>
        <mxCell id="9So5rBOJqA-NDW9uyCw4-4" style="edgeStyle=orthogonalEdgeStyle;rounded=0;orthogonalLoop=1;jettySize=auto;html=1;exitX=0.5;exitY=1;exitDx=0;exitDy=0;entryX=0.5;entryY=0;entryDx=0;entryDy=0;" parent="1" source="9So5rBOJqA-NDW9uyCw4-3" target="FguDmeDMIgBSosAkrxc6-2" edge="1">
          <mxGeometry relative="1" as="geometry" />
        </mxCell>
        <mxCell id="9So5rBOJqA-NDW9uyCw4-3" value="Preparation" style="shape=hexagon;perimeter=hexagonPerimeter2;whiteSpace=wrap;html=1;fixedSize=1;" parent="1" vertex="1">
          <mxGeometry x="202" y="180" width="120" height="80" as="geometry" />
        </mxCell>
        <mxCell id="xrwqgtenpcYudHcxNRB4-2" style="edgeStyle=orthogonalEdgeStyle;rounded=0;orthogonalLoop=1;jettySize=auto;html=1;entryX=0.5;entryY=0;entryDx=0;entryDy=0;" parent="1" source="9So5rBOJqA-NDW9uyCw4-8" target="xrwqgtenpcYudHcxNRB4-1" edge="1">
          <mxGeometry relative="1" as="geometry" />
        </mxCell>
        <mxCell id="9So5rBOJqA-NDW9uyCw4-8" value="REST API Design" style="rounded=0;whiteSpace=wrap;html=1;" parent="1" vertex="1">
          <mxGeometry x="202" y="860" width="120" height="60" as="geometry" />
        </mxCell>
        <mxCell id="xrwqgtenpcYudHcxNRB4-3" style="edgeStyle=orthogonalEdgeStyle;rounded=0;orthogonalLoop=1;jettySize=auto;html=1;entryX=-0.003;entryY=0.394;entryDx=0;entryDy=0;exitX=0.056;exitY=0.556;exitDx=0;exitDy=0;entryPerimeter=0;exitPerimeter=0;" parent="1" source="xrwqgtenpcYudHcxNRB4-1" target="9So5rBOJqA-NDW9uyCw4-8" edge="1">
          <mxGeometry relative="1" as="geometry">
            <Array as="points">
              <mxPoint x="222" y="1035" />
              <mxPoint x="162" y="1035" />
              <mxPoint x="162" y="884" />
            </Array>
          </mxGeometry>
        </mxCell>
        <mxCell id="xrwqgtenpcYudHcxNRB4-6" value="No" style="edgeLabel;html=1;align=center;verticalAlign=middle;resizable=0;points=[];" parent="xrwqgtenpcYudHcxNRB4-3" vertex="1" connectable="0">
          <mxGeometry x="-0.5094" y="-2" relative="1" as="geometry">
            <mxPoint y="-73" as="offset" />
          </mxGeometry>
        </mxCell>
        <mxCell id="xrwqgtenpcYudHcxNRB4-4" style="edgeStyle=orthogonalEdgeStyle;rounded=0;orthogonalLoop=1;jettySize=auto;html=1;exitX=0.5;exitY=1;exitDx=0;exitDy=0;entryX=0.5;entryY=0;entryDx=0;entryDy=0;" parent="1" source="xrwqgtenpcYudHcxNRB4-1" target="GIibmsJBXl9vL7TDbuAj-1" edge="1">
          <mxGeometry relative="1" as="geometry">
            <mxPoint x="262" y="1160" as="targetPoint" />
          </mxGeometry>
        </mxCell>
        <mxCell id="xrwqgtenpcYudHcxNRB4-5" value="Yes" style="edgeLabel;html=1;align=center;verticalAlign=middle;resizable=0;points=[];" parent="xrwqgtenpcYudHcxNRB4-4" vertex="1" connectable="0">
          <mxGeometry x="-0.3207" y="3" relative="1" as="geometry">
            <mxPoint as="offset" />
          </mxGeometry>
        </mxCell>
        <mxCell id="xrwqgtenpcYudHcxNRB4-1" value="REST API&amp;nbsp;&lt;br&gt;Constraint" style="rhombus;whiteSpace=wrap;html=1;" parent="1" vertex="1">
          <mxGeometry x="217" y="990" width="90" height="90" as="geometry" />
        </mxCell>
        <mxCell id="GIibmsJBXl9vL7TDbuAj-5" style="edgeStyle=orthogonalEdgeStyle;rounded=0;orthogonalLoop=1;jettySize=auto;html=1;entryX=0.5;entryY=0;entryDx=0;entryDy=0;" parent="1" source="GIibmsJBXl9vL7TDbuAj-1" target="GIibmsJBXl9vL7TDbuAj-3" edge="1">
          <mxGeometry relative="1" as="geometry" />
        </mxCell>
        <mxCell id="GIibmsJBXl9vL7TDbuAj-1" value="Test Driven&lt;br&gt;Design" style="rounded=0;whiteSpace=wrap;html=1;" parent="1" vertex="1">
          <mxGeometry x="202" y="1170" width="120" height="60" as="geometry" />
        </mxCell>
        <mxCell id="GIibmsJBXl9vL7TDbuAj-7" style="edgeStyle=orthogonalEdgeStyle;rounded=0;orthogonalLoop=1;jettySize=auto;html=1;exitX=0;exitY=0.5;exitDx=0;exitDy=0;entryX=0;entryY=0.5;entryDx=0;entryDy=0;" parent="1" source="GIibmsJBXl9vL7TDbuAj-3" target="GIibmsJBXl9vL7TDbuAj-1" edge="1">
          <mxGeometry relative="1" as="geometry">
            <Array as="points">
              <mxPoint x="162" y="1330" />
              <mxPoint x="162" y="1200" />
            </Array>
          </mxGeometry>
        </mxCell>
        <mxCell id="GIibmsJBXl9vL7TDbuAj-8" value="No" style="edgeLabel;html=1;align=center;verticalAlign=middle;resizable=0;points=[];" parent="GIibmsJBXl9vL7TDbuAj-7" vertex="1" connectable="0">
          <mxGeometry x="-0.2783" y="2" relative="1" as="geometry">
            <mxPoint y="-41" as="offset" />
          </mxGeometry>
        </mxCell>
        <mxCell id="GIibmsJBXl9vL7TDbuAj-9" style="edgeStyle=orthogonalEdgeStyle;rounded=0;orthogonalLoop=1;jettySize=auto;html=1;exitX=0.5;exitY=1;exitDx=0;exitDy=0;entryX=0.5;entryY=0;entryDx=0;entryDy=0;" parent="1" source="GIibmsJBXl9vL7TDbuAj-3" target="ReXrNYq2KPlvBkRwiarn-7" edge="1">
          <mxGeometry relative="1" as="geometry">
            <mxPoint x="262" y="1450" as="targetPoint" />
          </mxGeometry>
        </mxCell>
        <mxCell id="GIibmsJBXl9vL7TDbuAj-11" value="Yes" style="edgeLabel;html=1;align=center;verticalAlign=middle;resizable=0;points=[];" parent="GIibmsJBXl9vL7TDbuAj-9" vertex="1" connectable="0">
          <mxGeometry x="-0.19" relative="1" as="geometry">
            <mxPoint as="offset" />
          </mxGeometry>
        </mxCell>
        <mxCell id="GIibmsJBXl9vL7TDbuAj-3" value="Clean Code Principles" style="rhombus;whiteSpace=wrap;html=1;" parent="1" vertex="1">
          <mxGeometry x="212" y="1280" width="100" height="100" as="geometry" />
        </mxCell>
        <mxCell id="KumwqI9K5Lsn2cpcmOCr-3" style="edgeStyle=orthogonalEdgeStyle;rounded=0;orthogonalLoop=1;jettySize=auto;html=1;entryX=1;entryY=0.5;entryDx=0;entryDy=0;" parent="1" source="GIibmsJBXl9vL7TDbuAj-4" target="GIibmsJBXl9vL7TDbuAj-1" edge="1">
          <mxGeometry relative="1" as="geometry" />
        </mxCell>
        <mxCell id="GIibmsJBXl9vL7TDbuAj-4" value="" style="shape=image;verticalLabelPosition=bottom;labelBackgroundColor=default;verticalAlign=top;aspect=fixed;imageAspect=0;image=https://www.xenonstack.com/hubfs/test-driven-development-workflow-xenonstack.png;shadow=0;" parent="1" vertex="1">
          <mxGeometry x="392" y="1125.9" width="251.01" height="148.19" as="geometry" />
        </mxCell>
        <mxCell id="KumwqI9K5Lsn2cpcmOCr-1" value="" style="shape=image;verticalLabelPosition=bottom;labelBackgroundColor=default;verticalAlign=top;aspect=fixed;imageAspect=0;image=data:image/png,iVBORw0KGgoAAAANSUhEUgAAAMUAAAC3CAIAAAAtsA1tAAAAA3NCSVQICAjb4U/gAAAgAElEQVR4Xu19DVRa2dnu+a5E1FX8GZdkhQ4md9DQjOTWjtgZpMwoziKFjAnWXjWpKXaZ0Zqv5KeJpCbSSWomWcWkk0i/OCFxDU5sgvnqFZNGOtxPtKVKM8EOs8SZQYd7E5joHbyJP9wvisHVuw+IIgIHFH/GnLNYK56z93733u9+2Hsf8j77+Zd//vOfEHqhHgiRB/5LiOygZlAPwB5A8YTiIJQeQPEUSm+itlA8oRgIpQdQPIXSm6it1cRTz0URMUNU/bHd2zDY9fXipFdPV3R7Swz6mV116nRScYc56II+ClgMDXdM4z4S4cePTTJxY2HB6RRGZVLm6aySxupm0/C0nwIhSvpKXcioJBa06T3qUjelvFpJdH4YwoyCuooGg3nKWalFUlyZdEAzHIomrCae4PZPjzSIVZ6dB8+H7tdcH7SFoofLYWP8nkYkfzjmw7StX83bV1f1p5GEHzCFwgLxUSabOKK4ULeDr+yx+igTosf62xptVESCWSe7t/BbGsGt5Cuu8xV1RQIWTntNWnBKFxIMubd9lfGE3YRPNqvPNI/M9+eE4nKHloBPCguRm0NtxmS2+MT6U6NI0NYVT2to4ov5jEJWKjuHITjF/7OYkfhZB1/U529WW2I7pwwyxUjyW7t/vs3a0qr3rChsA/6/EihbCRQKmVtS9OF+gqVT3fJgiVV6Fg8IT08HlNLz71QcOXTinORu76injaXcx6Yc3IfX1t9VPJ6zYvv0f4o6MbxSaqI7nh4bJafqst4UJjFOZ/Gb5f2O79+0SZR3uvRmX+3x915hCF/Z2ygzTgwomgvzTicxhFkHbiuG3Bv3bEBxm1cAJ2WUNMlmLBgq3qzkNs4C2i4/XpnE1zgHw2bUiY6LMzLBmnWWe0qjfwpqHKwtFnIbRmz6tgywfGTUNVjm9X9Y0dFgieMd49Bj5z2PTuOcyYszt6tkX4Hn8PqbcU7XdbOpkHs6KcOtPXAh+4DydunesykZlSk5Yn69wblQjt+RpuxtU4AuwEUqU/KuidTzprvxdk3LY0JuTmpuDgnq1rTM6/u8xoAbIoWAh56YBj2fL/EeGU/PDH9454xU+Y+BR18PP+jt/IPoHYkO+DVU1wZKPof3rT5RvXHmGz9taai9b8ve+fPtmLk6pkwivlQ6QTl/452+toNnUkd+c1jmguCk6romYu/+f3QKzqcOVx8VH7yD49ed/PJOMfvp/WNn57YFNqOmVptQevZghySPDX1RJWjt8t+PKaPoaGt3PLWm/oiimhrxt9v8ehMURjgofUfCwmApnO5758zd5Ty8uyvs2p6HtlgSk+LWeFc65fXvEKcHtZ9MOB+Y21prDIRSUbkCbo++ArTHsaEZvtNYIHpILNmv6azWXKBFKGVv188Mu82oPtkCsYXlHTfKBWSL5HSzfO7bPdLSYrSlUnO3QAnZVCbWJGvxB5Zho8UCReM3hmocZ+wg4ulp1x3lo2dutU4Pd7V2hHLdxZEOHUgZu3P7Sr/Dm21t7xsJZWUp0W6T0/hHqoZBkqCSkYbHYHFx9GJOcaxB5vp2Elms0u/ioDAcM4eMt1iT8pl0PAaKJf2MQ7D1GrUzu04IS6TVnKDRSXHEbanCY+lEi17m/VXA1dlwkvDWSbkAFMEnM5j8NyLMHxsHEPw/MWa1Y2NxeK8rdQz83DI26bQBt0fIYG7FJ1NShUdoSRa9HGx6pk0fSA0bf5QnzMZHh2Oit1LPlJAG2rQ9zv11GElwbldhGp64JZFXQk1++lD7matB/fdleoiZk5oAHuAohW/gBhQaJ0A9mzxlHWhvA98NbNpruSTPxCXee/kazbM4bXn0f9zRBCc+G3z0aBpK8OqyRTUnOnvnIfnvRGJN7tkXrtQbNuaX8zZBkNu6OtA/OD71TFQiuuSyb5vAJE8s2HKGYyIgTEzUTKew4RugabsNzHvhjmLhGyJm27yZkBw2OTyEtD0On/UPJiY+EpqasIFx9dfxyBgcxvbAapmGkhdmG3M8j4mY6YR7e16C22P+ygpZH/UNQaY/NWa1u7o6bcdC5BkMQlCEsy8gMSoyBrKPTQEngEbau+RaPY5S8UakoxiGnkshKj6RdXLoLOcTsFJbJaWVEqfV8Ii0bE7TURrRVUmo/kXCUxj+2/EboMH5kErAf3uhs5bUojgenyEr6ag4EamdTpXsS/Q0Fo7BbkqV3OJQPOqdRgKEpyHX/TSYCSDsHFy85xvv18nkelXvoGnUPmm12pBXBww1jYDtNHZ9bqcvWPL0XUZzGKF4OxjgBd8E0B5whWGgsA3YMIjO50vYLhy4mua5v3Zv8qhepgRY1JXu0Lse2wH0zXLtMIsBz1jwBd7v3i57GfQ6ciMhLnoWl+52lvw34noXRd/N+vYGt3rCEsATVxOXXP+sga3Mqhyo6+Mn9BIWE+dplvIyATtk7DZ7Pl/0va33oR6KSyGDmjDYSMhmc/vCuH65sfXc3l2q7N2SXn3hl913TnyYj8cGUF8Cm1mIH2k47/nTgE2vPHPLkpDJKNzixYrt84f6aRzcHhyBsgXS3vtf/tCzwMCwUqN4iueLj3Tc/KXrI5CXJkI67U3HLgK+XO93yVuWC0ygEkQ8QRte/snJ4z+hkxNicVEJL6Vzj1T9a3rUgh4t/QGGXl7cUF18PiduoS0sg1m21XJJ2Cz71DJsGdGr1VVHGhuMCzP6ewJe1mqbDQNDVvOnmqpLurFU2h4K8DKBvj1ioP3vKosdmhrpuSW7pJ0xMm58ZMYSOCxyMh5jG+pr63niso6JiY2Ehoxd+sEupcHs8cthFFl4hrV9SF2wt65CopG39ykUmtpzdVnlHf0khliQGu2yYjPer5UbzRZHey6A9jCKvwvSCHv2pUQoW/n1ffoh6/ADo/xyI++iwR+8pgdvyk1Q2ms/+z6e+GLc7Cctj8aOssjkrhcdf74JWRrSeueoKPblnf/6zs6Q1enLEI7AZPlICyccvPh2jPjuFYG4ygpFEwnZOSzOFh+ZfTxOyKTSH6h4YpMF7FcZzA+PMhy7h0j24cLS6lY+VwPF4ulcljB/mP85nJDAZh3UNJ/ce7Y2HoffSuHlUOQ3Z0ynFbDYPXeryq8SU9OFaWRi/LwqsZQs2Y1E2XW1/CPlScukLSyCSNrM5u//eR7JfdOJJW5O6FUWXHS0J5P14WFne6AEVmFTmLJa2lpQb7VF4ShpqcWlJIBCX5Cy6TSyB7jccsdO3P2KpRS/pQRoVpWT2B5Jy3cL4unQK8QeuH//n1TqnE0vt99vf+cUiacygUxeUv2XXbbUffuW7gdo6SZQC/M84MTHLEq8395rTz8K48l7qguOK5z62WdLH0oUT0v3oZsF98kG/A1BcxPVvNtn7b8QklIyTLPTmL/MjjnMp6mQpi7ZGf8CLCzfYopaft48gPx+97x5BO3vUjyA4mkp3kPLenoAxZOnR9D7pXgAxdNSvIeW9fQAiidPj6D3S/EAiqeleA8t6+kBFE+eHkHvl+KBgP7/bikV+Cs7be262Sb+4xdayyQ2Hk/NfK2ihEaZHybrWXzaorg5mLQn1Ut0kWfWwO6tWt6OZtXs/+mGYRI24akZVN6+dDgoD+ka/1TTZqMUfn9BRIR7QRCUnF+nYJR3HF4Qh4Nk/xuXjuyyZeuSvefyNV7zM/bPdkq24WxmY8sN5Rnid2T5XuIL5tow1Hfl2sPi3anJfkcw2DYnvZV3PtcRt2ubsBiNLc1thQot/7f7BWmeQUjzLdu1Lcor8d9GwFOwrfkm5189PE0/bFFYiHnlYp7jW/t9MjuPg+xJ0xOTR3wIchnkHBEbCWkUwky+NDKbmyo5fLVa2Lz9RhHb33xpNQ/aofnBBciVrescAeEJ8FtutXb1PRrdgE+hv5W/c7s/HwflLttjKwjDmA0Jmi07/rlGdFndphsZx8ZRf0CrOMxIi4W6LohKm0fGpyH+m5V8COJWV4uJyqwSPbteINjmKDptqOJI9flH5CV4wAah3cSLyzEt9VqV0QrhEwvL8oSseeQBn00NJ5QepbXs67jSamEDvoFzXW75QjtkjyZuLvxFgYCBg4Y0vOLbKhCU/GkdsRGCSFmK6yyK1SSTKBs6Hw6MYoip3xOc4LBfdHl4+olKoqqRGweskRQGTViZleaYYkFU1iWJWn5v0BG1knVGQKPA0WUTPY3N1U0G/WMIv4XELeEcynZE8wGSj1h582+DZhuwTznE383dGtAI+uxpqBOQ9+PLxW8J25z7Ft6ikP3wQLNEYTS7U02M6lK+0py6u7Wtuu9GIXtC/bZQDWIz6UcFGgEJG04W/8c5871zYhaCKwGhper6JJ1fLJfuF6ZONpz6Q+1ssCKiH7d8J2sTpNcaAdyH5U38lokM/s8UN94WbHsiAWF9gN21idbQVl66CUoqKgeNMd9gUcImFBc+qDUTys7xO+p3M633+e+oZ/kLZkVHS1R6jeSXirPUGJ3y7XM6OJ7JK4UGhDq1N799bSSjkv+PjwQNvyDHgtBkOLMfkg9if1YoAyKelo/fgkk78HNFNYMOGS9VX8vYcbZQpB2AUWVX3VBpX2KeKSETcRgsPpF3lLFVp1sM8xBwm2A2CCGZRCo8zsnFWVo+MgXq1zBcLJiFrZOABJyQV6y5VXwwMzF5C5jkaNQpY1fvggBw2G4k+9TJbjGH+108oNAc2kuCPjf2AOQ5Ljxrl7gohfJiXDKDdWZf4rha2waSfFBoxobgiXk7GR+NwyVn0Eod06p/ks9MNav9D8JXHFpefktkMotVAz6jFtWflNVXmnnTuI7KOH3/pG1I/dM8jcs5dhCm+MoMay0oh22YY4OE4ymboZavntigxEDCwMEaNwrWMkJEDFwhBnAEZq4YXHSY3earMYBQ4Lqi43HRkMU2y9YCZBvXRdyMj542grhMeO/ljUKTzGLktjTzC0TUH1DY2dRCBrzYBUryma1mNf5AwtPK8Fti8cyiQuz/fpenNQ5M0wAIEt7I6xCSQ+sQmOoU+PXgi+4hiMKBA21BXHnXHY38b0a9yTo29cwyBTF92Xlskjffb9OaBiwTtomJYci1x/fID1hc0AzWvVNo8Kk1t0g8ta6tXXflhPpKdtGfT6UA5Hkn+fhqzGo8R1zvlo3fMm0dANvkuevZ8Bh4V8JtDINpJ+M6Q4/rm+3PLTDhzm7zT/N1lh992PsQgnky/sy50qYGGy5qenApZVyw0IzIjtfyP4KYJUVNN090N+9m+mIajfZVFF+Vjm4uO7H/z/IT3dULArpd5vW9gzbAYyFC/ig0YWB7zhBU81sPJ1o69dppR+NDSvIJxBPB5kGanyAnvyX2D/+u7Bv8zw0JKfQfFeW/EgJ+i61HyTusj8lM52WTiJETX/5Ffak7MvcsPAYJe7PoyrZjp+LOlFC2Rk3039M2/C2i7CwrLRzCxkZgpwe7NINJ4Zax7al0IiktvkMh1xVvT8VbTQqJssUKJc/6YPqhVKJL2kvaaBts+X2bIizl/Fve3+8mvx7s0TsPRJiwfGlsa9bILXj+2Tw2WI+mLXrDZGJeKpsSB01P6O/oB6ZcVYRFxOAgC9gk9T+zDEYyCY/0j3EZ2alpWzCQ1aJoBwf6uKibEGTuVEnSWGxy5FiPqurWk+S9BQCXww4KjQBQaGIhdwrNcKfyA8vmPWwyEbJ09Yxgt1LA77cOkk8dIPlEH2Nkb9rwtUEv+x8Pk39RxCMFO+jLmH8V4zPtwMW1t3Ttn4GfACKIW0m5xTsPMmZ+zLT1a0V16pZPLDNJ+3aWZcY53nEGG040iu5ZY4ik4uNFpd/FjH/acey3f1U9gN/kc4sZG9sa21L5zt8LXjlnLSyO08sNeiuGuJ1Sdnh34cK3a6+/j7+ayttHo2+a+bKZFU38y19YwqPx8XFpOekxd/6ozz0pYcOpw53N4E0NUOeo2ayaStLAxcZq5QgUi9tIIHB341Vn9HQpOOAA/D5+tY+zO0WvkmlHbDjAouG8W0KGuS5WY+2vm6UG+0YnhWa7peomTnKDk9jv+rkkLCKZml5xlMMEhGlwjZoaxHel4PcCF8lHsGceZ2YZkRKg6SVHDK9RA2O3PyDRrraMB9A896BvkP2beBtAL1cmy7rlIwSKpxXmkMyCNYT1rgxSAqvl+caT+1S0YhyS0FbkTvQLbMiXNdcq7p8CXJDRbN8kDyD+XvBN6gza1lX3AIqnVR+CddUAFE/rajhXvTMonlZ9CNZVA1A8ravhXPXOoHha9SFYVw1A8bSuhnPVO7OaeFqf+i3gPwTBYfN8jffDPh/r+JzKpBI43DSoa1x+LYkhVfiPuWhvTMqog2NHV+9aTTzBvV6P+i2gW+MfK0XgwF3Py94lVcpXdbw9WxTq+1XG0zrUbwEjFIZJIm1QXFZ66i8YAR/BTiHNBbGEejRX3x5y/BNo4/LxWyCg35Jj4AP9luwiONjIcc3ot1RT+4SqOQ95pXbAVMkPvvzxjyk6pbT7CUQkC6rz0vrbhNf0WouduD1dINzFdkZ6wIZg/ZYq6Sddg3ZwvurB43lw+Mq0oWKHdKBYIC9yhsoA/Rbhsae7/iGmgchML+QT7GBtSV3t5yDAEui3tEFhiWfkHpIboCIMdQ+HUtd8ppGmKJ0N0RyR/V5jepX17qYO/mez3QJBO0qRVAcYOLaoOHom7WA5zORxXHa9vPXMdT0g1eC3UQqTQIjxLOcQCLy01Uj1XQ+sUDyByWX9utgR/bIGLuT5abn4LTOdX2f6La4hjaUISjabbrQ2DM08GVcra7Uv/Lw83T2ib1gpKxDqbG/myW8JOi6wkr5U/fSwUu/YJA0rGn8qMkTnFirkgqaDJMtnc4pWfgReVh1RiHhaPn6Lq+/rSr9lbkCJXE4ZcfCS2MmLMr3/ex02h8MjuS0I4Nxwad9k9m5xETl5UxwRqLgIX0/u11xRg6nIcvOGwZbJOQ+S8Djid6mCvM0zkcr+BV5WG1BI693y8ltmer+O9FvcxjOMUHY4tYWvvNRDLu6/2zBKfreENC96/emg3gxtz3Pj2xAT0+InVZ8NQ7Qn+gfQ9pzNC5muiAIvq4soJDytDL8FWjf6LfNGE5vGEmT+jn/xD32Wwe37+NyFzHRflBuHnAvWjX01Z9e3wMvqIslZO+J6t2z8Fo/erxf9lvndwrEPMKlmY9e30ivyF1AhomCplt5e05zU55Cp5zGGQk6AouKIsdDAgzmpxjmy16IEXlYMaoh4QvVbgtRv8Ri6FxniCwUNIg4g53heYUCqhQy13z12yzgAVFz6daLf/FVPopVlRkKAjM+KsyiUtT0jtqkJc3fHyRsPXbALXuDFs+JlvEda7xxVo/otQem3eAxXQloq08cIJrCLgFRLzfUm7kWrDQdO/mA2HWBQYORhKGXF5/9fs+ioqBaDo77BqDicPiCcESTyJfDio5IVfYzG+66ou9d9Zcjr3bp3AdrBEHoAxVMInYmaCkBPEXUS6oHAPYDOT4H7Cs2J7AEUT8g+QnME7gEUT4H7Cs2J7AEUT8g+QnME7gEUT4H7Cs2J7AEUT8g+QnME7gEUT4H7Cs2J7IHVxNM65rcQX62EPxnClJz3eKc6VENez5dGHp7F5OjvKNxxmndrJjYBKMzIPl7IjFiM4UDKrCae4PatU35LUl6R4jpfUV8sLk3B6pSl5a1dKzamIJA8bPZsaofCzL2RQKAQkjwBxReEpCavRlz8lvT5MkATissdWgI+6QGsIbAGL5MZRHP7OwY1Jj6BstUR8LSNRI8foR3Ty3vz6Bkr0hVSlqwty1XTSivMBIQnlN8yJ64SEL9lHm6wWHCo9QasK9TXqzQN5CTq7Cti9ndcaX9ofurQeBFkzXBdwDGsdUppJ3gO4UlkbvHOQ87Tab3KvDhOmMUKqyWp970ozIT5YtTYVaferYr6sZj4SZXUYNqUWfnSvVOfUppu7nJFbtl7xL8r0FDk1zkU31wa5PUO5bfU1B9RVFMj/nabX2+CgIaH9B0JC4OlcLqBbEv3QrKUO5js4Lj6arFubCu1MNXx3Ic0jSNtUnWxWbWRJr7Cl1dTY3qUb4ucXIbB2sNXRQb8oQt8za3ymh2QQlh3zEEW9S7zMlu/F4UZyA+jBpQzd7Ye++NkRj5TsHfbrv+emjz0iRQmRziupwaZwkrl0vyACeRCxBPKb6HRSfhkBpP/RoT5Y+Osvs/sqHn9o6denMQQJmUIX+F3mLdzmsRALQhkRJCmwXPyxLwUyhY8JRNovBDG1TqgXzXeqbrSjz90ZheXgk/YRKDvKRRmP1NINQPTkFeZF6/tmXnoj1HjyPIUX/b7/cKSLB6LEL2NVphqB2e7DztShtvvt02ReSy/6oQgDtBf9SAN5bfMOAgTEx8JTU3Acdy+Z/tZZ1LyiyQ/xvV80HjsLxFUbjplhon5xL80DTZ8wywBhvgS0Hh52D8EJRkGbfGklDlWKmb7djzUPtj3FOJ6k3nxN6B+GDXZMO8Uu4VEn6soLjePfEn495tG2kHSSIvcGMMqZiIp1SHhCeW3yPWq3kHTqH3SarVt9DdY7mlYXBzxRTzxaGH/53WiU8qMeo4jihfWbPEuTbOQ6AI/2RDhwq53jro3mRcvFCv3li2syHefohm0XPw1WbOxLMfQ0v9C4Yn5fC9vBRHXO5Tfkl594Zfdd058mO9QNAzqiko8JMyiPFDzxUYHmyAIaRqg8TIOCDAvQolkAvbxYI+LZwwWzd5eC0QkJDlFTxbIvPhroB9Gjddi4aTCXIKlXS1q0plSX9vj7412pjwinlB+y5L4LdhtrJqyREtzc7VjY0sH0jRj94+dUncZR4aHBrvkt0uPKWeVj2CNl27L8OMRvaIZ1nj5EY0eBUVnvs4jWd7/TZvi85Fhi6Xrlqy6HWLvg/fFQOZFdMsAtDeAXIxD5oXgKdM9pzBjVHQO2vwwarziCYKS36IxbQaJ8hmT61PeyL0o0nrnyIvyW5bCb0kGO2hdbdW5ZvrLRewXaZLLG4A0Db+kzSVN4yC0OJYhPBn/9U1ppm4EwuGZ+4p+XeygDocnCi4Wb7ysFB3WAOjgSSSusPwQC96RYTfixptbd4tHxh0yL+LTDKL72DpM7imhqs6pCg7ACjOUTALRJ6PGs+TMfXxqLuOuovd7xQz/0tyu4st6Wv5zanwRCjD2h7/90a8y33u45tRj7I9+m1+1+932fwYmxLBu9TZWDcqLFGbJhvH0q4/gYVsOjZdFtoo61iH7HuN3N91b5dezKJ78uifYxEULwtz76Lf/7VeZ6dkzFYZW4wWC5maX4Cz/RfqdY7T0H046m+Ux73pzDsrn9LFvQB8vygPI73eLMosWek49gOLpOR34Zeo2iqdlcuxzahbF03M68MvUbRRPy+TY59QsiqfndOCXqdsonpbJsc+p2dXE0/rkt8Cn4Gurj7yXkVmZxDidVdpY2zkyd0Lm0mBmlkszdohr9SvIlgmywauJJ7ip64/fYtHyDzS32EgHhcUNZ3fuIY5IL6q0/nV8Ah+zAEL5Aje2HDkDii9YjoqdNtcfv2W4877KRj5/dhfXEcpIZ1BLAwvpDMTJxJzi7pxAMq5anoDmJ8BvkZ5/p+LIoRPnJHd7R0PZWKDfsg+vBfotbqpLM/otpdRE968j0G85VZf1phBeRPjN8n7HnA9oIXmnS2/21R5/7xWG8JW9jTLjxICiuTDvNAjfzjpwWzEXhgZyw/otvAI4KaOkSTZjwVDxZiW3cZahBvRbKpP4GidRC+i3iI6L4ZUr8yz3lEb/FNQ4WFss5DaM2PRAvwUwNusa5g51djlmesLi7qS5XgDdldule8+mAEGzHDG/3jDsCFMZvyNN2avs6lbyQLPfvCZtkqZkXpO5tXy8vfEV8AS4SN2UAmqcSXKzxnmvVKwbcM6C0yMqSSM3xxG9vlcqag/ZahvIuCPjCeW3BMVvSciksXGm6v3v8cUaVf88Eqcf3RWbWVsh6sMyaIISGn0HjRNlbGibxelIW7MBYtA484/DH1bICk7poR15cvmJP19kUactcGAdNKE6e5XfvqFYJOjrPNFU+kL3uavVH6/cfgsRTyi/JUh+Cz5VLN1/hh1nVrTx9p1N2SutddK9/euuTD1L4++XHGaV7klJjiUXsuMG2v7e44z1fqCT9UbmcsnzAsMBU+V6HwS0X3gOgZetKaWHWUwAuK/+LlHacw/lcbfhsOGRyZmcCpa95Y4hVC8EiFMU0v4J5bfMuDAYfguexDsKPvZhve792rs1RxtjbpbzvvWobwgy/akxq312WbRjIfKk8y7s29nfn5Ujg9Jy0im3/irr5qQxMD3y+/ot1JrU+SPlZKrku2m/OO18+ah3aqJf9Luu2UV26lnM9mcAT0EHvyNix1sGJDyh/JZF8VscrsYkUKjC0xN9eW1dvRO8H2zAhkF0Pl/C9gyc9UKq30ItpKqq/6QXpkW2KK3U4nTPwHBg3itTBZxcEIb/+e/5pS96G+3lf4a43qH8luD4LbavBgErfO4atX4NReABdy843RUc5y0y9p5W1nq/xSuLMoqQRIR6dW7aL84qyYnUMEuXdsUO3/BEKCKeUH5LUPyWEdnZuqyCuqpGrarboLqjLK3SWLa9zksDfg9OdwXmvsU+fF9qiMlO98KiBEwVQF9StvJvGmDtl891tcLGhn7AP0gtzcF11TWKlODMDqtZr5OculahWGPnq6D8loD5LXG8s29j61WyP96VWSaxsXhqJqepnOZcrXzprnhZ7wD8APeN80KD9Fkhl+x160Pk/uRDqO3MdRlbPInFE5gcpgDmx0XSj5Y3xLfWXP5AAhoQj6cyXqugIZDEPSeZJdyj8b5LcB5adIEHkNe7BUXQB6gHfHoAxZNP16AJi/AAiqdFOA0t4tMDKJ58ugZNWIQHUDwtwmloEZ8eQPHk0zVowiI8gOJpEU5Di/j0AIonn65BExbhARRPi3AaWsSnB3FCLvYAAA34SURBVFA8+XQNmrAID6wmntYfv8XWczsj4zS/3XVm99yA2LsuiJJ2NCp8/8d/l+hs0j4lfB71lFG093TGiZmDmucN6rSpmlvJvjzof6Tna7ZMqKpFKQXNKyP4sZp4gp2yvvgt2LTXCkmTiiat2WPAR/UNihEii8aci5nzC4kwCARLLfZaoNmCAcF0s4oui7UaWLlVxpOL3+IRUOHSb1m8TwPr/WJzOfRbvF74PXkkrF57E4SOuF1mpUb1lJDLRT5vGS4UThJcf6ejOqDzT701wqHZMndFMisF/2jaRQ8Qyt4sBv4MKT7TYQnVbwlcvyUhm8apa5Q3Gw5VuuJMpgdb5Cbsq7tmzlseNckkyobOhwOjGGLq9wQnOOwXPUbBIil+731S8T+EZNj7FkPthTbZPYsFG0dnU7BzYZlAiUUluq5T9Y/YcHj23l3vFpGihzQLNVtsYhGsu3LDobsybe1qbBPf/kI7ZAdRLpxcpqCInAA/N4nyP/iy4MdUnfJ9tWUcwlGys84IaBTnqdQBAwp5fkL5LUHxWyAczCYwt2sULsqUrUcjexDB2e2cbyYUFz6oNRPKzvE76nczrff576j9aXhMmUSHG698TRLUCTTSIh5uUD9LLDOq+Gf6Inbsbrp+pGFfXM/lxmq1HfKm2eIGhomuC3W8picZB97ukP+y6TDJ0iTNv2BwBWBNKi7f7SWzPrwpUFSnQp23K6QIG7WFMEPEE8pvCZLfAmHSuOlpT40ypXMRn1DJ9ZZN3yucOW85kn3qZLeYw/0unrgt9dBeEvS5sceNe+gxQjb1XxsevFB2Yhd3WxwQb2EWs9gOFTT4IrHkHx2pyScDvRd6PotLnOz6+OHCAZ73xKIT37HSS4sOZhOI+DigEnO+lGS5o2pxUbOIOQ4BmRfjkjNZZRmYAZ3RKd6CYNYtGQlPvvktgdeBmDM6e+eh1CdXxOB8bcOlesPG/J28ORURuPRA/+D41ENRiSgrz/HJb5SNYqCJBbSycKAMhomJmlk+gBwKNG23ze50wufkK6DN4Oj3yeEh369bzkaHz65EbvwWxP5soRZnQFrASwFr05CuQT1JyX0tbXYvGDa3ukXH46KhZzbfbPQBIN4Sm5gGB156u+ZsRm6MgSafLnCIRyGDqX/6hbTtczuphO2JidMWvWEmH3ZOiBETHQl7OFjyLtL+CeW3LIbfgmPvpvzmuFbWw+D1/l0bRj4/N6tA0GOTvPl+m9Y0YJmwTUwMQ7AQj8/LH1fdblZrpEpDT/8Ty1P72CiEJfo0M5vg4zUCuWCAOZDmJwjltwTHb3H6HZtBKyRa2+QdgOaLz6axZ6m9o30VxVelo5vLTuz/s/xEN9JL3EbiC9DoiHlulng2S5PS19f9UGTcyOJcvSbovlMu2BbAiCcRtoc90X82NysP95pMYXhKUgBlA8uCiCeU3xIUv8Xl9bDEPdzE8U61bCiO+2M3QoHlkf4xLi07NW0LDmu1KNpN3skILjMJjFQm1nhFrB0YtdssJrmorWUGW3Zzv8W2hZzLICTg7MM9OtVXs1VHxOAgC9iW9Ts0W9xxsInK5+BUdU0S9eDwY+tAd8cxiRHPYebO310EhhzvuZDWO0cplN8SML9lzstEdjqz3qR6ibbHfebYSqvIN1YLRapY3EYCgbubyuzUex8Z59N46vmzT45dvMvmtEZvIRWW7BY8vtoAJ2GYJSx2dceOHPXGeFxSxuu52XEDM7w/T80WN/uRdMHbEvzd2gtXRYD9AlgxecW3iucz2f21JoA0b4fco8+W5oFF6LfMVrg2ywbsD1RvI2BXBZhxsUopsPm1WTbAjjuyoXgKxluIeRet3xKcrMr9fy5ekiXIsoHJSs06BuVzBrAnQLME7AHk97uATaEZUQ9AKJ5QEITSAyieQulN1BaKJxQDofQAiqdQehO1heIJxUAoPYDiKZTeRG2tJp7WH79lDk+PTTJxIzhWP4VRmfTmWfaBptp2XyHngYFw2qJo1A14PYMV0UB7Y1JGHXwcPgTNsWgQSy0qw2riCW7w+uK3OIfA9rmat6+uChBaspnvCgvEhxhs/BPZqTq+H7YU4uAN9V25putzP+kVschqZAgovmD5Grb+9Fugp4bqyrauWFqDeBfdFfbEzmGUHRixxS+BYmJ6Ylrc5LR8g+fNckB4QvktgfNbhhVqmSWOJ+bMgsnpdiw+znWsKuClKEVSncpotUXF0TNpB8sZabB4kF116t2qsJ1nNuprmg16K4ZISRX8ejf3RQzggpY2j4xPQ/w3K/kQxK2uFr+s5hZ9kXvpddO/tco+f8Y5dbImG2Pr14okaoXWAlqb/D1KWTmHu9Xv+AKll/q7tXcMgOPgDIY5lA03EujJ0G4SJL+AJBc0XWPfPnNjf+Fs0Lo3DLk/Q17vUH5LMPwWu7bnoS2WxPSQM3Bz+bBSViDU2d7Mk98SdFxgJX2p+ulhpd4VQm5W3K39mlQlFnQD9suY9thvNIAaSj8q0AhI2HCy+D/Ome+dE7McKJmyXKlq7dmYeqiMyX0ZA32lKT3Q2v2t12qkgAlTwHvBePKAtGE2yM4LDvwpvbjryTiwHuiFiCeU3xIUv2VizGqHYiNjfPkf6K5I+yaB7koROXlTHJiBhMLXk/s1V9QzFHUsiVYjZNC3xhG3UQ/lJ8LsF597pkkso6CpmlNaxKBvsnfd6OiKST8jpNG3xCWAyLvjeYUxxis3jL4agqD04q4nE+7TxsIEv/MhyO6b3wKTAEN0wfwW+e9EYk3u2ReuwPyWcpjf4katcPBbngF+yyVXjbYJTHLg/BanR0LFb/HX8cgYHAYyToz58oxTdyXPTXeFmJgWP6n6bBjKdhATwjZEuMpGR0UCfs4kmLq8kyojqLTNrjXU2mewYskkmLHpvMIJVDKmwWAyQyTvNAXfSi+OZszTk3EZRf4XCU8ovyU4fguGkkrAthtVOjs9zYdv18i22rfSi/+Qdv+YQlzvUH5LcPwWIvv13PiRhgttXfOpa7avTHrwJIpA2QL19rrprgyZeh5jKOQE/+OElIpLScLZDEaY8ee8pge1Bjs+ieB9cgJ5lkfpBRFPKL8lSH4LLkVYzaBYNLy94gqJRt7ep1JqJKJrPyy6WtU6CAHdlX1kqP3usVtGWHelXyf6zV/1JFpZpqfolAeAsLER2GlLl2ZQ36nr8sInxtD3MKhj96tE2p6vrMNfASZMs2wssWyP4wQEr9fyKL34mJPntwDltwTFb4lO4zRJSQ3X1S13lC2PJ6HwCOLW7+QK+WXZ8Gt3AruoKUxZc72Je9Fqw8VRf8BsOsCgIO15sRlMQUajqLqui0gqPk7x+DECHq4tDIkYI7qsfruoeXw6IjmVIhRzCrd4hZLz4fIovSCGRKMZgvbA2uSoLKVVAbsA5SME7KoAM65NjspSWhVgxx3ZUDwF4y3EvCi/BcYUeqEeCJEHkN/vQlQRaua58ACKp+dimFeskyieVszVz0VFKJ6ei2FesU6ieFoxVz8XFaF4ei6GecU6ieJpxVz9XFS0mniC+S2vVs5+YB4Iv6lWObiUeIn5gzZYu68yQ+Q7pgyCzHJpxg5xrR7pZFxPMCBbhvo7Cnec5t1yncXsaWF93gf0/8HL2PWwxIq6nXRHFNjk/7X0ae5LT4lbOvM+rKYS/YWtha5Fy1cLsDx3/HLoGry2La06nnDJlETX2dyJ9ExqLq0p/0QrX0qQl/g9SDlEbiXmFHfnhMiWhxlSlqwta3lMr12rAeFpGfktCzyTkLlLkPlF6S21ak8BMwqyGXWXJGr5vcE5hgkIfl2M2Ig3tRNQu7op5fgTQTOIMPZJL1nQRo8HPixbtbwdzVhhtYSNcTBG8Of32WVXPukCB6FuIvEOFwgYS6BPIbVptdKR90/LzG9Z2PFIOgiLHjV2AVkToAR3tLU7njqPYTJTIkixEa9qJwsq90ovWZBr/oPALNuM6pMtEFtY3nGjXEC2SE43y4PVHkBox5pIRpyfvPNbclN3LjFA1U/vo+Mjo6GJ8XE7UO4S3joJOUUvSEz+Gxrex8YBKDHZUdghNkKC/3oRiI1o+LDYCMFnq2C1Exbk3C0RWVy5WA7UThiO4m6Xk17isA/oJfdlFwG9hEH0TgdwFQvMMhRGEpzbVehgePJKqLJOjfYziJsxr/Z1cIOEpxXht3j4cXxsYhyKjI52tM23gopXsRGfeAKmZrfeYb7VTrzTS0YaSkVVnzqaGYavuH7koAcOA7EMQRGzQZhRgFBlH5sCL5VI/v+mQQypPyvEb3F320RXN0yJpDpmifF+nSw4homvEViM2onLVlzu6SMZMzy4DRu3eFSxFMu+WvtNfY64f1opfovLgcPqNlH7JCWPyQab8Z7bu0uVvVuCY5h4HYrFqJ24GYrehE8mOT9x0fN/YliiZa+t/eY+RJqfICe/JfYP/67sG/zPDQkp9B8V5b/if0MRjDemrQN6E94xQpMjjt+f5CaIsUvi+LFg3PjIjCUIWOTkWMg21NfW8yQY0+55nWonVFjtBHKpnfhkEgVVyfJZDqoZayUzMp5AS5eR3zJtqimtq3F4A4vDJW8lFQp3F7MJ0Y4nCWzWQU3zyb1na+NxHgyTIP3nR+0kSEue2ZfPsmdN34h79Dz7b8QwfWMaibh/+sb0BG3oWvAAiqe1MArrpw0ontbPWK6FnqB4WgujsH7agOJp/YzlWugJiqe1MArrpw0ontbPWK6FnqB4WgujsH7agOJp/YzlWugJiqe1MArrpw0ontbPWK6Fnvx/AYxx0yWOlmwAAAAASUVORK5CYII=;" parent="1" vertex="1">
          <mxGeometry x="382" y="798.5" width="197" height="183" as="geometry" />
        </mxCell>
        <mxCell id="Hr51WHKdIPEY9qgw3b0t-1" value="Modules, Records,&lt;br&gt;Google" style="shape=document;whiteSpace=wrap;html=1;boundedLbl=1;" parent="1" vertex="1">
          <mxGeometry x="412" y="180" width="120" height="80" as="geometry" />
        </mxCell>
        <mxCell id="ReXrNYq2KPlvBkRwiarn-3" value="1. Fitur yang dibuat dan alur datanya&lt;br&gt;2. Hak akses pengguna data" style="rounded=0;whiteSpace=wrap;html=1;" parent="1" vertex="1">
          <mxGeometry x="392" y="602.5" width="202.5" height="45" as="geometry" />
        </mxCell>
        <mxCell id="ReXrNYq2KPlvBkRwiarn-4" value="1.Identifying entities&lt;br&gt;2. identifying relationship&lt;br&gt;3. add attributes" style="rounded=0;whiteSpace=wrap;html=1;" parent="1" vertex="1">
          <mxGeometry x="382" y="340" width="280" height="60" as="geometry" />
        </mxCell>
        <mxCell id="ReXrNYq2KPlvBkRwiarn-9" style="edgeStyle=orthogonalEdgeStyle;rounded=0;orthogonalLoop=1;jettySize=auto;html=1;exitX=0.5;exitY=1;exitDx=0;exitDy=0;" parent="1" source="ReXrNYq2KPlvBkRwiarn-7" target="ReXrNYq2KPlvBkRwiarn-8" edge="1">
          <mxGeometry relative="1" as="geometry" />
        </mxCell>
        <mxCell id="ReXrNYq2KPlvBkRwiarn-7" value="Deployment&lt;br&gt;with Heroku" style="rounded=0;whiteSpace=wrap;html=1;" parent="1" vertex="1">
          <mxGeometry x="202" y="1450" width="120" height="60" as="geometry" />
        </mxCell>
        <mxCell id="ReXrNYq2KPlvBkRwiarn-10" style="edgeStyle=orthogonalEdgeStyle;rounded=0;orthogonalLoop=1;jettySize=auto;html=1;exitX=0;exitY=0.5;exitDx=0;exitDy=0;entryX=0;entryY=0.5;entryDx=0;entryDy=0;" parent="1" source="ReXrNYq2KPlvBkRwiarn-8" target="ReXrNYq2KPlvBkRwiarn-7" edge="1">
          <mxGeometry relative="1" as="geometry" />
        </mxCell>
        <mxCell id="ReXrNYq2KPlvBkRwiarn-12" value="No" style="edgeLabel;html=1;align=center;verticalAlign=middle;resizable=0;points=[];" parent="ReXrNYq2KPlvBkRwiarn-10" vertex="1" connectable="0">
          <mxGeometry x="-0.113" y="3" relative="1" as="geometry">
            <mxPoint y="-16" as="offset" />
          </mxGeometry>
        </mxCell>
        <mxCell id="ReXrNYq2KPlvBkRwiarn-11" style="edgeStyle=orthogonalEdgeStyle;rounded=0;orthogonalLoop=1;jettySize=auto;html=1;exitX=0.5;exitY=1;exitDx=0;exitDy=0;entryX=0.5;entryY=0;entryDx=0;entryDy=0;" parent="1" source="ReXrNYq2KPlvBkRwiarn-8" target="ReXrNYq2KPlvBkRwiarn-14" edge="1">
          <mxGeometry relative="1" as="geometry">
            <mxPoint x="262.28571428571445" y="1710" as="targetPoint" />
            <Array as="points" />
          </mxGeometry>
        </mxCell>
        <mxCell id="ReXrNYq2KPlvBkRwiarn-13" value="Yes" style="edgeLabel;html=1;align=center;verticalAlign=middle;resizable=0;points=[];" parent="ReXrNYq2KPlvBkRwiarn-11" vertex="1" connectable="0">
          <mxGeometry x="0.7432" y="3" relative="1" as="geometry">
            <mxPoint x="-3" y="-31" as="offset" />
          </mxGeometry>
        </mxCell>
        <mxCell id="ReXrNYq2KPlvBkRwiarn-8" value="QA" style="rhombus;whiteSpace=wrap;html=1;" parent="1" vertex="1">
          <mxGeometry x="214.5" y="1560" width="95" height="80" as="geometry" />
        </mxCell>
        <mxCell id="ReXrNYq2KPlvBkRwiarn-16" style="edgeStyle=orthogonalEdgeStyle;rounded=0;orthogonalLoop=1;jettySize=auto;html=1;exitX=0.5;exitY=1;exitDx=0;exitDy=0;entryX=0.5;entryY=0;entryDx=0;entryDy=0;" parent="1" source="ReXrNYq2KPlvBkRwiarn-14" target="ReXrNYq2KPlvBkRwiarn-15" edge="1">
          <mxGeometry relative="1" as="geometry" />
        </mxCell>
        <mxCell id="ReXrNYq2KPlvBkRwiarn-14" value="Preparation" style="shape=hexagon;perimeter=hexagonPerimeter2;whiteSpace=wrap;html=1;fixedSize=1;" parent="1" vertex="1">
          <mxGeometry x="202" y="1710" width="120" height="80" as="geometry" />
        </mxCell>
        <mxCell id="M2t22zkZSVvBccxjwiQY-11" style="edgeStyle=orthogonalEdgeStyle;rounded=0;orthogonalLoop=1;jettySize=auto;html=1;exitX=0.5;exitY=1;exitDx=0;exitDy=0;entryX=0.5;entryY=0;entryDx=0;entryDy=0;" parent="1" source="ReXrNYq2KPlvBkRwiarn-15" target="M2t22zkZSVvBccxjwiQY-10" edge="1">
          <mxGeometry relative="1" as="geometry" />
        </mxCell>
        <mxCell id="ReXrNYq2KPlvBkRwiarn-15" value="Presentation Practice" style="rounded=0;whiteSpace=wrap;html=1;" parent="1" vertex="1">
          <mxGeometry x="197" y="1840" width="130" height="60" as="geometry" />
        </mxCell>
        <mxCell id="M2t22zkZSVvBccxjwiQY-3" value="" style="endArrow=open;endSize=12;dashed=1;html=1;rounded=0;exitX=0;exitY=0.5;exitDx=0;exitDy=0;entryX=1;entryY=0.5;entryDx=0;entryDy=0;" parent="1" source="ReXrNYq2KPlvBkRwiarn-4" target="FguDmeDMIgBSosAkrxc6-2" edge="1">
          <mxGeometry width="160" relative="1" as="geometry">
            <mxPoint x="307" y="505" as="sourcePoint" />
            <mxPoint x="412" y="505" as="targetPoint" />
          </mxGeometry>
        </mxCell>
        <mxCell id="M2t22zkZSVvBccxjwiQY-6" value="" style="endArrow=open;endSize=12;dashed=1;html=1;rounded=0;exitX=0;exitY=0.5;exitDx=0;exitDy=0;entryX=1;entryY=0.5;entryDx=0;entryDy=0;" parent="1" source="Hr51WHKdIPEY9qgw3b0t-1" target="9So5rBOJqA-NDW9uyCw4-3" edge="1">
          <mxGeometry width="160" relative="1" as="geometry">
            <mxPoint x="407" y="219.63" as="sourcePoint" />
            <mxPoint x="327" y="219.63" as="targetPoint" />
          </mxGeometry>
        </mxCell>
        <mxCell id="M2t22zkZSVvBccxjwiQY-8" value="" style="endArrow=open;endSize=12;dashed=1;html=1;rounded=0;exitX=0;exitY=0.5;exitDx=0;exitDy=0;entryX=1;entryY=0.5;entryDx=0;entryDy=0;" parent="1" source="ReXrNYq2KPlvBkRwiarn-3" target="FguDmeDMIgBSosAkrxc6-4" edge="1">
          <mxGeometry width="160" relative="1" as="geometry">
            <mxPoint x="382" y="624.74" as="sourcePoint" />
            <mxPoint x="302" y="624.74" as="targetPoint" />
          </mxGeometry>
        </mxCell>
        <mxCell id="M2t22zkZSVvBccxjwiQY-9" value="" style="endArrow=open;endSize=12;dashed=1;html=1;rounded=0;" parent="1" target="9So5rBOJqA-NDW9uyCw4-8" edge="1">
          <mxGeometry width="160" relative="1" as="geometry">
            <mxPoint x="382" y="890" as="sourcePoint" />
            <mxPoint x="312" y="889.37" as="targetPoint" />
          </mxGeometry>
        </mxCell>
        <mxCell id="M2t22zkZSVvBccxjwiQY-10" value="&lt;b&gt;Finish&lt;/b&gt;" style="ellipse;whiteSpace=wrap;html=1;" parent="1" vertex="1">
          <mxGeometry x="202" y="1960" width="120" height="80" as="geometry" />
        </mxCell>
        <mxCell id="rM1SMTn5vFKjFACvUwvg-1" value="&lt;div style=&quot;text-align: left;&quot;&gt;List of term in domain driven design :&lt;/div&gt;&lt;div style=&quot;text-align: left;&quot;&gt;1. ubiquitous language&lt;/div&gt;&lt;div style=&quot;text-align: left;&quot;&gt;2. entity (selalu unik/ punya identifier)&lt;/div&gt;&lt;div style=&quot;text-align: left;&quot;&gt;3. value object (bisa digunakan di beberapa entity sekaligus) cth : address&lt;/div&gt;&lt;div style=&quot;text-align: left;&quot;&gt;4. aggregate&lt;/div&gt;&lt;div style=&quot;text-align: left;&quot;&gt;5. aggregate root&lt;/div&gt;" style="text;html=1;align=center;verticalAlign=middle;resizable=0;points=[];autosize=1;strokeColor=none;fillColor=none;" parent="1" vertex="1">
          <mxGeometry x="382" y="455" width="420" height="100" as="geometry" />
        </mxCell>
        <mxCell id="rM1SMTn5vFKjFACvUwvg-3" value="" style="endArrow=open;endSize=12;dashed=1;html=1;rounded=0;exitX=-0.007;exitY=0.496;exitDx=0;exitDy=0;entryX=1;entryY=0.5;entryDx=0;entryDy=0;exitPerimeter=0;" parent="1" source="rM1SMTn5vFKjFACvUwvg-1" target="FguDmeDMIgBSosAkrxc6-6" edge="1">
          <mxGeometry width="160" relative="1" as="geometry">
            <mxPoint x="387" y="504.5" as="sourcePoint" />
            <mxPoint x="307" y="504.5" as="targetPoint" />
          </mxGeometry>
        </mxCell>
        <mxCell id="6wFstQkpl69G5qOvKpIQ-6" value="" style="shape=flexArrow;endArrow=classic;html=1;rounded=0;startArrow=none;" edge="1" parent="1" source="ZPb5jpoT4Gtydgk50B4a-1">
          <mxGeometry width="50" height="50" relative="1" as="geometry">
            <mxPoint x="80" y="80" as="sourcePoint" />
            <mxPoint x="80" y="2010" as="targetPoint" />
          </mxGeometry>
        </mxCell>
        <mxCell id="ZPb5jpoT4Gtydgk50B4a-1" value="27-06-2022" style="shape=process;whiteSpace=wrap;html=1;backgroundOutline=1;" vertex="1" parent="1">
          <mxGeometry x="30" y="80" width="100" height="30" as="geometry" />
        </mxCell>
        <mxCell id="ZPb5jpoT4Gtydgk50B4a-2" value="" style="shape=flexArrow;endArrow=none;html=1;rounded=0;" edge="1" parent="1" target="ZPb5jpoT4Gtydgk50B4a-1">
          <mxGeometry width="50" height="50" relative="1" as="geometry">
            <mxPoint x="79.99999999999977" y="80" as="sourcePoint" />
            <mxPoint x="79.99999999999977" y="2009.9999999999995" as="targetPoint" />
          </mxGeometry>
        </mxCell>
        <mxCell id="ZPb5jpoT4Gtydgk50B4a-4" value="28-06-2022" style="shape=process;whiteSpace=wrap;html=1;backgroundOutline=1;" vertex="1" parent="1">
          <mxGeometry x="30" y="490" width="100" height="30" as="geometry" />
        </mxCell>
        <mxCell id="ZPb5jpoT4Gtydgk50B4a-5" value="29-06-2022" style="shape=process;whiteSpace=wrap;html=1;backgroundOutline=1;" vertex="1" parent="1">
          <mxGeometry x="30" y="875" width="100" height="30" as="geometry" />
        </mxCell>
        <mxCell id="ZPb5jpoT4Gtydgk50B4a-6" value="27-07-2022" style="shape=process;whiteSpace=wrap;html=1;backgroundOutline=1;" vertex="1" parent="1">
          <mxGeometry x="30" y="1985" width="100" height="30" as="geometry" />
        </mxCell>
      </root>
    </mxGraphModel>
  </diagram>
  <diagram id="CKWldnK6sylF4k0vtNJE" name="ERD Practice">
    <mxGraphModel dx="11220" dy="6680" grid="1" gridSize="10" guides="1" tooltips="1" connect="1" arrows="1" fold="1" page="1" pageScale="1" pageWidth="850" pageHeight="1100" math="0" shadow="0">
      <root>
        <mxCell id="0" />
        <mxCell id="1" parent="0" />
      </root>
    </mxGraphModel>
  </diagram>
  <diagram id="EE-nKPK8BrA7O0fUe67l" name="ERD Master">
    <mxGraphModel dx="4794" dy="1336" grid="1" gridSize="10" guides="1" tooltips="1" connect="1" arrows="1" fold="1" page="1" pageScale="1" pageWidth="850" pageHeight="1100" math="0" shadow="0">
      <root>
        <mxCell id="0" />
        <mxCell id="1" parent="0" />
        <mxCell id="4E7Y2Z4R7kvPLD5SU0ed-1" value="roles" style="shape=table;startSize=30;container=1;collapsible=1;childLayout=tableLayout;fixedRows=1;rowLines=0;fontStyle=1;align=center;resizeLast=1;" parent="1" vertex="1">
          <mxGeometry x="-1570" y="420" width="260" height="160" as="geometry">
            <mxRectangle x="860" y="290" width="100" height="30" as="alternateBounds" />
          </mxGeometry>
        </mxCell>
        <mxCell id="4E7Y2Z4R7kvPLD5SU0ed-2" value="" style="shape=partialRectangle;collapsible=0;dropTarget=0;pointerEvents=0;fillColor=none;points=[[0,0.5],[1,0.5]];portConstraint=eastwest;top=0;left=0;right=0;bottom=1;" parent="4E7Y2Z4R7kvPLD5SU0ed-1" vertex="1">
          <mxGeometry y="30" width="260" height="30" as="geometry" />
        </mxCell>
        <mxCell id="4E7Y2Z4R7kvPLD5SU0ed-3" value="PK" style="shape=partialRectangle;overflow=hidden;connectable=0;fillColor=none;top=0;left=0;bottom=0;right=0;fontStyle=1;" parent="4E7Y2Z4R7kvPLD5SU0ed-2" vertex="1">
          <mxGeometry width="30" height="30" as="geometry">
            <mxRectangle width="30" height="30" as="alternateBounds" />
          </mxGeometry>
        </mxCell>
        <mxCell id="4E7Y2Z4R7kvPLD5SU0ed-4" value="roles_id" style="shape=partialRectangle;overflow=hidden;connectable=0;fillColor=none;top=0;left=0;bottom=0;right=0;align=left;spacingLeft=6;fontStyle=5;" parent="4E7Y2Z4R7kvPLD5SU0ed-2" vertex="1">
          <mxGeometry x="30" width="120" height="30" as="geometry">
            <mxRectangle width="120" height="30" as="alternateBounds" />
          </mxGeometry>
        </mxCell>
        <mxCell id="4E7Y2Z4R7kvPLD5SU0ed-5" value="int" style="shape=partialRectangle;overflow=hidden;connectable=0;fillColor=none;top=0;left=0;bottom=0;right=0;align=left;spacingLeft=6;fontStyle=5;" parent="4E7Y2Z4R7kvPLD5SU0ed-2" vertex="1">
          <mxGeometry x="150" width="110" height="30" as="geometry">
            <mxRectangle width="110" height="30" as="alternateBounds" />
          </mxGeometry>
        </mxCell>
        <mxCell id="4E7Y2Z4R7kvPLD5SU0ed-6" value="" style="shape=partialRectangle;collapsible=0;dropTarget=0;pointerEvents=0;fillColor=none;points=[[0,0.5],[1,0.5]];portConstraint=eastwest;top=0;left=0;right=0;bottom=0;" parent="4E7Y2Z4R7kvPLD5SU0ed-1" vertex="1">
          <mxGeometry y="60" width="260" height="30" as="geometry" />
        </mxCell>
        <mxCell id="4E7Y2Z4R7kvPLD5SU0ed-7" value="" style="shape=partialRectangle;overflow=hidden;connectable=0;fillColor=none;top=0;left=0;bottom=0;right=0;" parent="4E7Y2Z4R7kvPLD5SU0ed-6" vertex="1">
          <mxGeometry width="30" height="30" as="geometry">
            <mxRectangle width="30" height="30" as="alternateBounds" />
          </mxGeometry>
        </mxCell>
        <mxCell id="4E7Y2Z4R7kvPLD5SU0ed-8" value="role_name" style="shape=partialRectangle;overflow=hidden;connectable=0;fillColor=none;top=0;left=0;bottom=0;right=0;align=left;spacingLeft=6;" parent="4E7Y2Z4R7kvPLD5SU0ed-6" vertex="1">
          <mxGeometry x="30" width="120" height="30" as="geometry">
            <mxRectangle width="120" height="30" as="alternateBounds" />
          </mxGeometry>
        </mxCell>
        <mxCell id="4E7Y2Z4R7kvPLD5SU0ed-9" value="varchar(100)" style="shape=partialRectangle;overflow=hidden;connectable=0;fillColor=none;top=0;left=0;bottom=0;right=0;align=left;spacingLeft=6;" parent="4E7Y2Z4R7kvPLD5SU0ed-6" vertex="1">
          <mxGeometry x="150" width="110" height="30" as="geometry">
            <mxRectangle width="110" height="30" as="alternateBounds" />
          </mxGeometry>
        </mxCell>
        <mxCell id="4E7Y2Z4R7kvPLD5SU0ed-10" value="" style="shape=partialRectangle;collapsible=0;dropTarget=0;pointerEvents=0;fillColor=none;points=[[0,0.5],[1,0.5]];portConstraint=eastwest;top=0;left=0;right=0;bottom=0;" parent="4E7Y2Z4R7kvPLD5SU0ed-1" vertex="1">
          <mxGeometry y="90" width="260" height="30" as="geometry" />
        </mxCell>
        <mxCell id="4E7Y2Z4R7kvPLD5SU0ed-11" value="" style="shape=partialRectangle;overflow=hidden;connectable=0;fillColor=none;top=0;left=0;bottom=0;right=0;" parent="4E7Y2Z4R7kvPLD5SU0ed-10" vertex="1">
          <mxGeometry width="30" height="30" as="geometry">
            <mxRectangle width="30" height="30" as="alternateBounds" />
          </mxGeometry>
        </mxCell>
        <mxCell id="4E7Y2Z4R7kvPLD5SU0ed-12" value="created_at   " style="shape=partialRectangle;overflow=hidden;connectable=0;fillColor=none;top=0;left=0;bottom=0;right=0;align=left;spacingLeft=6;" parent="4E7Y2Z4R7kvPLD5SU0ed-10" vertex="1">
          <mxGeometry x="30" width="120" height="30" as="geometry">
            <mxRectangle width="120" height="30" as="alternateBounds" />
          </mxGeometry>
        </mxCell>
        <mxCell id="4E7Y2Z4R7kvPLD5SU0ed-13" value="timestamp" style="shape=partialRectangle;overflow=hidden;connectable=0;fillColor=none;top=0;left=0;bottom=0;right=0;align=left;spacingLeft=6;" parent="4E7Y2Z4R7kvPLD5SU0ed-10" vertex="1">
          <mxGeometry x="150" width="110" height="30" as="geometry">
            <mxRectangle width="110" height="30" as="alternateBounds" />
          </mxGeometry>
        </mxCell>
        <mxCell id="4E7Y2Z4R7kvPLD5SU0ed-14" value="" style="shape=partialRectangle;collapsible=0;dropTarget=0;pointerEvents=0;fillColor=none;points=[[0,0.5],[1,0.5]];portConstraint=eastwest;top=0;left=0;right=0;bottom=0;" parent="4E7Y2Z4R7kvPLD5SU0ed-1" vertex="1">
          <mxGeometry y="120" width="260" height="30" as="geometry" />
        </mxCell>
        <mxCell id="4E7Y2Z4R7kvPLD5SU0ed-15" value="" style="shape=partialRectangle;overflow=hidden;connectable=0;fillColor=none;top=0;left=0;bottom=0;right=0;" parent="4E7Y2Z4R7kvPLD5SU0ed-14" vertex="1">
          <mxGeometry width="30" height="30" as="geometry">
            <mxRectangle width="30" height="30" as="alternateBounds" />
          </mxGeometry>
        </mxCell>
        <mxCell id="4E7Y2Z4R7kvPLD5SU0ed-16" value="updated_at" style="shape=partialRectangle;overflow=hidden;connectable=0;fillColor=none;top=0;left=0;bottom=0;right=0;align=left;spacingLeft=6;" parent="4E7Y2Z4R7kvPLD5SU0ed-14" vertex="1">
          <mxGeometry x="30" width="120" height="30" as="geometry">
            <mxRectangle width="120" height="30" as="alternateBounds" />
          </mxGeometry>
        </mxCell>
        <mxCell id="4E7Y2Z4R7kvPLD5SU0ed-17" value="timestamp" style="shape=partialRectangle;overflow=hidden;connectable=0;fillColor=none;top=0;left=0;bottom=0;right=0;align=left;spacingLeft=6;" parent="4E7Y2Z4R7kvPLD5SU0ed-14" vertex="1">
          <mxGeometry x="150" width="110" height="30" as="geometry">
            <mxRectangle width="110" height="30" as="alternateBounds" />
          </mxGeometry>
        </mxCell>
        <mxCell id="4E7Y2Z4R7kvPLD5SU0ed-18" value="users" style="shape=table;startSize=30;container=1;collapsible=1;childLayout=tableLayout;fixedRows=1;rowLines=0;fontStyle=1;align=center;resizeLast=1;" parent="1" vertex="1">
          <mxGeometry x="-1575" y="90" width="270" height="280" as="geometry">
            <mxRectangle x="-1575" y="90" width="100" height="30" as="alternateBounds" />
          </mxGeometry>
        </mxCell>
        <mxCell id="4E7Y2Z4R7kvPLD5SU0ed-19" value="" style="shape=partialRectangle;collapsible=0;dropTarget=0;pointerEvents=0;fillColor=none;points=[[0,0.5],[1,0.5]];portConstraint=eastwest;top=0;left=0;right=0;bottom=1;" parent="4E7Y2Z4R7kvPLD5SU0ed-18" vertex="1">
          <mxGeometry y="30" width="270" height="30" as="geometry" />
        </mxCell>
        <mxCell id="4E7Y2Z4R7kvPLD5SU0ed-20" value="PK" style="shape=partialRectangle;overflow=hidden;connectable=0;fillColor=none;top=0;left=0;bottom=0;right=0;fontStyle=1;" parent="4E7Y2Z4R7kvPLD5SU0ed-19" vertex="1">
          <mxGeometry width="30" height="30" as="geometry">
            <mxRectangle width="30" height="30" as="alternateBounds" />
          </mxGeometry>
        </mxCell>
        <mxCell id="4E7Y2Z4R7kvPLD5SU0ed-21" value="users_id" style="shape=partialRectangle;overflow=hidden;connectable=0;fillColor=none;top=0;left=0;bottom=0;right=0;align=left;spacingLeft=6;fontStyle=5;" parent="4E7Y2Z4R7kvPLD5SU0ed-19" vertex="1">
          <mxGeometry x="30" width="125" height="30" as="geometry">
            <mxRectangle width="125" height="30" as="alternateBounds" />
          </mxGeometry>
        </mxCell>
        <mxCell id="4E7Y2Z4R7kvPLD5SU0ed-38" value="int" style="shape=partialRectangle;overflow=hidden;connectable=0;fillColor=none;top=0;left=0;bottom=0;right=0;align=left;spacingLeft=6;fontStyle=5;" parent="4E7Y2Z4R7kvPLD5SU0ed-19" vertex="1">
          <mxGeometry x="155" width="115" height="30" as="geometry">
            <mxRectangle width="115" height="30" as="alternateBounds" />
          </mxGeometry>
        </mxCell>
        <mxCell id="4E7Y2Z4R7kvPLD5SU0ed-22" value="" style="shape=partialRectangle;collapsible=0;dropTarget=0;pointerEvents=0;fillColor=none;points=[[0,0.5],[1,0.5]];portConstraint=eastwest;top=0;left=0;right=0;bottom=0;" parent="4E7Y2Z4R7kvPLD5SU0ed-18" vertex="1">
          <mxGeometry y="60" width="270" height="30" as="geometry" />
        </mxCell>
        <mxCell id="4E7Y2Z4R7kvPLD5SU0ed-23" value="" style="shape=partialRectangle;overflow=hidden;connectable=0;fillColor=none;top=0;left=0;bottom=0;right=0;" parent="4E7Y2Z4R7kvPLD5SU0ed-22" vertex="1">
          <mxGeometry width="30" height="30" as="geometry">
            <mxRectangle width="30" height="30" as="alternateBounds" />
          </mxGeometry>
        </mxCell>
        <mxCell id="4E7Y2Z4R7kvPLD5SU0ed-24" value="email" style="shape=partialRectangle;overflow=hidden;connectable=0;fillColor=none;top=0;left=0;bottom=0;right=0;align=left;spacingLeft=6;" parent="4E7Y2Z4R7kvPLD5SU0ed-22" vertex="1">
          <mxGeometry x="30" width="125" height="30" as="geometry">
            <mxRectangle width="125" height="30" as="alternateBounds" />
          </mxGeometry>
        </mxCell>
        <mxCell id="4E7Y2Z4R7kvPLD5SU0ed-39" value="varchar(100)" style="shape=partialRectangle;overflow=hidden;connectable=0;fillColor=none;top=0;left=0;bottom=0;right=0;align=left;spacingLeft=6;" parent="4E7Y2Z4R7kvPLD5SU0ed-22" vertex="1">
          <mxGeometry x="155" width="115" height="30" as="geometry">
            <mxRectangle width="115" height="30" as="alternateBounds" />
          </mxGeometry>
        </mxCell>
        <mxCell id="4E7Y2Z4R7kvPLD5SU0ed-25" value="" style="shape=partialRectangle;collapsible=0;dropTarget=0;pointerEvents=0;fillColor=none;points=[[0,0.5],[1,0.5]];portConstraint=eastwest;top=0;left=0;right=0;bottom=0;" parent="4E7Y2Z4R7kvPLD5SU0ed-18" vertex="1">
          <mxGeometry y="90" width="270" height="30" as="geometry" />
        </mxCell>
        <mxCell id="4E7Y2Z4R7kvPLD5SU0ed-26" value="" style="shape=partialRectangle;overflow=hidden;connectable=0;fillColor=none;top=0;left=0;bottom=0;right=0;" parent="4E7Y2Z4R7kvPLD5SU0ed-25" vertex="1">
          <mxGeometry width="30" height="30" as="geometry">
            <mxRectangle width="30" height="30" as="alternateBounds" />
          </mxGeometry>
        </mxCell>
        <mxCell id="4E7Y2Z4R7kvPLD5SU0ed-27" value="password" style="shape=partialRectangle;overflow=hidden;connectable=0;fillColor=none;top=0;left=0;bottom=0;right=0;align=left;spacingLeft=6;" parent="4E7Y2Z4R7kvPLD5SU0ed-25" vertex="1">
          <mxGeometry x="30" width="125" height="30" as="geometry">
            <mxRectangle width="125" height="30" as="alternateBounds" />
          </mxGeometry>
        </mxCell>
        <mxCell id="4E7Y2Z4R7kvPLD5SU0ed-40" value="varchar(100)" style="shape=partialRectangle;overflow=hidden;connectable=0;fillColor=none;top=0;left=0;bottom=0;right=0;align=left;spacingLeft=6;" parent="4E7Y2Z4R7kvPLD5SU0ed-25" vertex="1">
          <mxGeometry x="155" width="115" height="30" as="geometry">
            <mxRectangle width="115" height="30" as="alternateBounds" />
          </mxGeometry>
        </mxCell>
        <mxCell id="4E7Y2Z4R7kvPLD5SU0ed-28" value="" style="shape=partialRectangle;collapsible=0;dropTarget=0;pointerEvents=0;fillColor=none;points=[[0,0.5],[1,0.5]];portConstraint=eastwest;top=0;left=0;right=0;bottom=0;" parent="4E7Y2Z4R7kvPLD5SU0ed-18" vertex="1">
          <mxGeometry y="120" width="270" height="30" as="geometry" />
        </mxCell>
        <mxCell id="4E7Y2Z4R7kvPLD5SU0ed-29" value="FK" style="shape=partialRectangle;overflow=hidden;connectable=0;fillColor=none;top=0;left=0;bottom=0;right=0;" parent="4E7Y2Z4R7kvPLD5SU0ed-28" vertex="1">
          <mxGeometry width="30" height="30" as="geometry">
            <mxRectangle width="30" height="30" as="alternateBounds" />
          </mxGeometry>
        </mxCell>
        <mxCell id="4E7Y2Z4R7kvPLD5SU0ed-30" value="roles_id" style="shape=partialRectangle;overflow=hidden;connectable=0;fillColor=none;top=0;left=0;bottom=0;right=0;align=left;spacingLeft=6;" parent="4E7Y2Z4R7kvPLD5SU0ed-28" vertex="1">
          <mxGeometry x="30" width="125" height="30" as="geometry">
            <mxRectangle width="125" height="30" as="alternateBounds" />
          </mxGeometry>
        </mxCell>
        <mxCell id="4E7Y2Z4R7kvPLD5SU0ed-41" value="int" style="shape=partialRectangle;overflow=hidden;connectable=0;fillColor=none;top=0;left=0;bottom=0;right=0;align=left;spacingLeft=6;" parent="4E7Y2Z4R7kvPLD5SU0ed-28" vertex="1">
          <mxGeometry x="155" width="115" height="30" as="geometry">
            <mxRectangle width="115" height="30" as="alternateBounds" />
          </mxGeometry>
        </mxCell>
        <mxCell id="W7TN4EEouALZe4q9rsRO-10" value="" style="shape=partialRectangle;collapsible=0;dropTarget=0;pointerEvents=0;fillColor=none;points=[[0,0.5],[1,0.5]];portConstraint=eastwest;top=0;left=0;right=0;bottom=0;" parent="4E7Y2Z4R7kvPLD5SU0ed-18" vertex="1">
          <mxGeometry y="150" width="270" height="30" as="geometry" />
        </mxCell>
        <mxCell id="W7TN4EEouALZe4q9rsRO-11" value="" style="shape=partialRectangle;overflow=hidden;connectable=0;fillColor=none;top=0;left=0;bottom=0;right=0;" parent="W7TN4EEouALZe4q9rsRO-10" vertex="1">
          <mxGeometry width="30" height="30" as="geometry">
            <mxRectangle width="30" height="30" as="alternateBounds" />
          </mxGeometry>
        </mxCell>
        <mxCell id="W7TN4EEouALZe4q9rsRO-12" value="name" style="shape=partialRectangle;overflow=hidden;connectable=0;fillColor=none;top=0;left=0;bottom=0;right=0;align=left;spacingLeft=6;" parent="W7TN4EEouALZe4q9rsRO-10" vertex="1">
          <mxGeometry x="30" width="125" height="30" as="geometry">
            <mxRectangle width="125" height="30" as="alternateBounds" />
          </mxGeometry>
        </mxCell>
        <mxCell id="W7TN4EEouALZe4q9rsRO-13" value="varchar(100)" style="shape=partialRectangle;overflow=hidden;connectable=0;fillColor=none;top=0;left=0;bottom=0;right=0;align=left;spacingLeft=6;" parent="W7TN4EEouALZe4q9rsRO-10" vertex="1">
          <mxGeometry x="155" width="115" height="30" as="geometry">
            <mxRectangle width="115" height="30" as="alternateBounds" />
          </mxGeometry>
        </mxCell>
        <mxCell id="W7TN4EEouALZe4q9rsRO-14" value="" style="shape=partialRectangle;collapsible=0;dropTarget=0;pointerEvents=0;fillColor=none;points=[[0,0.5],[1,0.5]];portConstraint=eastwest;top=0;left=0;right=0;bottom=0;" parent="4E7Y2Z4R7kvPLD5SU0ed-18" vertex="1">
          <mxGeometry y="180" width="270" height="30" as="geometry" />
        </mxCell>
        <mxCell id="W7TN4EEouALZe4q9rsRO-15" value="" style="shape=partialRectangle;overflow=hidden;connectable=0;fillColor=none;top=0;left=0;bottom=0;right=0;" parent="W7TN4EEouALZe4q9rsRO-14" vertex="1">
          <mxGeometry width="30" height="30" as="geometry">
            <mxRectangle width="30" height="30" as="alternateBounds" />
          </mxGeometry>
        </mxCell>
        <mxCell id="W7TN4EEouALZe4q9rsRO-16" value="gender" style="shape=partialRectangle;overflow=hidden;connectable=0;fillColor=none;top=0;left=0;bottom=0;right=0;align=left;spacingLeft=6;" parent="W7TN4EEouALZe4q9rsRO-14" vertex="1">
          <mxGeometry x="30" width="125" height="30" as="geometry">
            <mxRectangle width="125" height="30" as="alternateBounds" />
          </mxGeometry>
        </mxCell>
        <mxCell id="W7TN4EEouALZe4q9rsRO-17" value="varchar(100)" style="shape=partialRectangle;overflow=hidden;connectable=0;fillColor=none;top=0;left=0;bottom=0;right=0;align=left;spacingLeft=6;" parent="W7TN4EEouALZe4q9rsRO-14" vertex="1">
          <mxGeometry x="155" width="115" height="30" as="geometry">
            <mxRectangle width="115" height="30" as="alternateBounds" />
          </mxGeometry>
        </mxCell>
        <mxCell id="4E7Y2Z4R7kvPLD5SU0ed-31" value="" style="shape=partialRectangle;collapsible=0;dropTarget=0;pointerEvents=0;fillColor=none;points=[[0,0.5],[1,0.5]];portConstraint=eastwest;top=0;left=0;right=0;bottom=0;" parent="4E7Y2Z4R7kvPLD5SU0ed-18" vertex="1">
          <mxGeometry y="210" width="270" height="30" as="geometry" />
        </mxCell>
        <mxCell id="4E7Y2Z4R7kvPLD5SU0ed-32" value="" style="shape=partialRectangle;overflow=hidden;connectable=0;fillColor=none;top=0;left=0;bottom=0;right=0;" parent="4E7Y2Z4R7kvPLD5SU0ed-31" vertex="1">
          <mxGeometry width="30" height="30" as="geometry">
            <mxRectangle width="30" height="30" as="alternateBounds" />
          </mxGeometry>
        </mxCell>
        <mxCell id="4E7Y2Z4R7kvPLD5SU0ed-33" value="created_at" style="shape=partialRectangle;overflow=hidden;connectable=0;fillColor=none;top=0;left=0;bottom=0;right=0;align=left;spacingLeft=6;" parent="4E7Y2Z4R7kvPLD5SU0ed-31" vertex="1">
          <mxGeometry x="30" width="125" height="30" as="geometry">
            <mxRectangle width="125" height="30" as="alternateBounds" />
          </mxGeometry>
        </mxCell>
        <mxCell id="4E7Y2Z4R7kvPLD5SU0ed-42" value="timestamp" style="shape=partialRectangle;overflow=hidden;connectable=0;fillColor=none;top=0;left=0;bottom=0;right=0;align=left;spacingLeft=6;" parent="4E7Y2Z4R7kvPLD5SU0ed-31" vertex="1">
          <mxGeometry x="155" width="115" height="30" as="geometry">
            <mxRectangle width="115" height="30" as="alternateBounds" />
          </mxGeometry>
        </mxCell>
        <mxCell id="4E7Y2Z4R7kvPLD5SU0ed-34" value="" style="shape=partialRectangle;collapsible=0;dropTarget=0;pointerEvents=0;fillColor=none;points=[[0,0.5],[1,0.5]];portConstraint=eastwest;top=0;left=0;right=0;bottom=0;" parent="4E7Y2Z4R7kvPLD5SU0ed-18" vertex="1">
          <mxGeometry y="240" width="270" height="30" as="geometry" />
        </mxCell>
        <mxCell id="4E7Y2Z4R7kvPLD5SU0ed-35" value="" style="shape=partialRectangle;overflow=hidden;connectable=0;fillColor=none;top=0;left=0;bottom=0;right=0;" parent="4E7Y2Z4R7kvPLD5SU0ed-34" vertex="1">
          <mxGeometry width="30" height="30" as="geometry">
            <mxRectangle width="30" height="30" as="alternateBounds" />
          </mxGeometry>
        </mxCell>
        <mxCell id="4E7Y2Z4R7kvPLD5SU0ed-36" value="updated_at" style="shape=partialRectangle;overflow=hidden;connectable=0;fillColor=none;top=0;left=0;bottom=0;right=0;align=left;spacingLeft=6;" parent="4E7Y2Z4R7kvPLD5SU0ed-34" vertex="1">
          <mxGeometry x="30" width="125" height="30" as="geometry">
            <mxRectangle width="125" height="30" as="alternateBounds" />
          </mxGeometry>
        </mxCell>
        <mxCell id="4E7Y2Z4R7kvPLD5SU0ed-43" value="timestamp" style="shape=partialRectangle;overflow=hidden;connectable=0;fillColor=none;top=0;left=0;bottom=0;right=0;align=left;spacingLeft=6;" parent="4E7Y2Z4R7kvPLD5SU0ed-34" vertex="1">
          <mxGeometry x="155" width="115" height="30" as="geometry">
            <mxRectangle width="115" height="30" as="alternateBounds" />
          </mxGeometry>
        </mxCell>
        <mxCell id="RwkWLb-9THUpObUzx17u-1" value="floor" style="shape=table;startSize=30;container=1;collapsible=1;childLayout=tableLayout;fixedRows=1;rowLines=0;fontStyle=1;align=center;resizeLast=1;" parent="1" vertex="1">
          <mxGeometry x="-250" y="80" width="270" height="180" as="geometry">
            <mxRectangle x="-240" y="300" width="80" height="30" as="alternateBounds" />
          </mxGeometry>
        </mxCell>
        <mxCell id="RwkWLb-9THUpObUzx17u-2" value="" style="shape=partialRectangle;collapsible=0;dropTarget=0;pointerEvents=0;fillColor=none;points=[[0,0.5],[1,0.5]];portConstraint=eastwest;top=0;left=0;right=0;bottom=1;" parent="RwkWLb-9THUpObUzx17u-1" vertex="1">
          <mxGeometry y="30" width="270" height="30" as="geometry" />
        </mxCell>
        <mxCell id="RwkWLb-9THUpObUzx17u-3" value="PK" style="shape=partialRectangle;overflow=hidden;connectable=0;fillColor=none;top=0;left=0;bottom=0;right=0;fontStyle=1;" parent="RwkWLb-9THUpObUzx17u-2" vertex="1">
          <mxGeometry width="30" height="30" as="geometry">
            <mxRectangle width="30" height="30" as="alternateBounds" />
          </mxGeometry>
        </mxCell>
        <mxCell id="RwkWLb-9THUpObUzx17u-4" value="floor_id" style="shape=partialRectangle;overflow=hidden;connectable=0;fillColor=none;top=0;left=0;bottom=0;right=0;align=left;spacingLeft=6;fontStyle=5;" parent="RwkWLb-9THUpObUzx17u-2" vertex="1">
          <mxGeometry x="30" width="110" height="30" as="geometry">
            <mxRectangle width="110" height="30" as="alternateBounds" />
          </mxGeometry>
        </mxCell>
        <mxCell id="W7TN4EEouALZe4q9rsRO-69" value="int" style="shape=partialRectangle;overflow=hidden;connectable=0;fillColor=none;top=0;left=0;bottom=0;right=0;align=left;spacingLeft=6;fontStyle=5;" parent="RwkWLb-9THUpObUzx17u-2" vertex="1">
          <mxGeometry x="140" width="130" height="30" as="geometry">
            <mxRectangle width="130" height="30" as="alternateBounds" />
          </mxGeometry>
        </mxCell>
        <mxCell id="RwkWLb-9THUpObUzx17u-5" value="" style="shape=partialRectangle;collapsible=0;dropTarget=0;pointerEvents=0;fillColor=none;points=[[0,0.5],[1,0.5]];portConstraint=eastwest;top=0;left=0;right=0;bottom=0;" parent="RwkWLb-9THUpObUzx17u-1" vertex="1">
          <mxGeometry y="60" width="270" height="30" as="geometry" />
        </mxCell>
        <mxCell id="RwkWLb-9THUpObUzx17u-6" value="FK" style="shape=partialRectangle;overflow=hidden;connectable=0;fillColor=none;top=0;left=0;bottom=0;right=0;" parent="RwkWLb-9THUpObUzx17u-5" vertex="1">
          <mxGeometry width="30" height="30" as="geometry">
            <mxRectangle width="30" height="30" as="alternateBounds" />
          </mxGeometry>
        </mxCell>
        <mxCell id="RwkWLb-9THUpObUzx17u-7" value="floor_number" style="shape=partialRectangle;overflow=hidden;connectable=0;fillColor=none;top=0;left=0;bottom=0;right=0;align=left;spacingLeft=6;" parent="RwkWLb-9THUpObUzx17u-5" vertex="1">
          <mxGeometry x="30" width="110" height="30" as="geometry">
            <mxRectangle width="110" height="30" as="alternateBounds" />
          </mxGeometry>
        </mxCell>
        <mxCell id="W7TN4EEouALZe4q9rsRO-70" value="int" style="shape=partialRectangle;overflow=hidden;connectable=0;fillColor=none;top=0;left=0;bottom=0;right=0;align=left;spacingLeft=6;" parent="RwkWLb-9THUpObUzx17u-5" vertex="1">
          <mxGeometry x="140" width="130" height="30" as="geometry">
            <mxRectangle width="130" height="30" as="alternateBounds" />
          </mxGeometry>
        </mxCell>
        <mxCell id="RwkWLb-9THUpObUzx17u-8" value="" style="shape=partialRectangle;collapsible=0;dropTarget=0;pointerEvents=0;fillColor=none;points=[[0,0.5],[1,0.5]];portConstraint=eastwest;top=0;left=0;right=0;bottom=0;" parent="RwkWLb-9THUpObUzx17u-1" vertex="1">
          <mxGeometry y="90" width="270" height="30" as="geometry" />
        </mxCell>
        <mxCell id="RwkWLb-9THUpObUzx17u-9" value="" style="shape=partialRectangle;overflow=hidden;connectable=0;fillColor=none;top=0;left=0;bottom=0;right=0;" parent="RwkWLb-9THUpObUzx17u-8" vertex="1">
          <mxGeometry width="30" height="30" as="geometry">
            <mxRectangle width="30" height="30" as="alternateBounds" />
          </mxGeometry>
        </mxCell>
        <mxCell id="RwkWLb-9THUpObUzx17u-10" value="floor_capacity" style="shape=partialRectangle;overflow=hidden;connectable=0;fillColor=none;top=0;left=0;bottom=0;right=0;align=left;spacingLeft=6;" parent="RwkWLb-9THUpObUzx17u-8" vertex="1">
          <mxGeometry x="30" width="110" height="30" as="geometry">
            <mxRectangle width="110" height="30" as="alternateBounds" />
          </mxGeometry>
        </mxCell>
        <mxCell id="W7TN4EEouALZe4q9rsRO-71" value="int" style="shape=partialRectangle;overflow=hidden;connectable=0;fillColor=none;top=0;left=0;bottom=0;right=0;align=left;spacingLeft=6;" parent="RwkWLb-9THUpObUzx17u-8" vertex="1">
          <mxGeometry x="140" width="130" height="30" as="geometry">
            <mxRectangle width="130" height="30" as="alternateBounds" />
          </mxGeometry>
        </mxCell>
        <mxCell id="W7TN4EEouALZe4q9rsRO-73" value="" style="shape=partialRectangle;collapsible=0;dropTarget=0;pointerEvents=0;fillColor=none;points=[[0,0.5],[1,0.5]];portConstraint=eastwest;top=0;left=0;right=0;bottom=0;" parent="RwkWLb-9THUpObUzx17u-1" vertex="1">
          <mxGeometry y="120" width="270" height="30" as="geometry" />
        </mxCell>
        <mxCell id="W7TN4EEouALZe4q9rsRO-74" value="" style="shape=partialRectangle;overflow=hidden;connectable=0;fillColor=none;top=0;left=0;bottom=0;right=0;" parent="W7TN4EEouALZe4q9rsRO-73" vertex="1">
          <mxGeometry width="30" height="30" as="geometry">
            <mxRectangle width="30" height="30" as="alternateBounds" />
          </mxGeometry>
        </mxCell>
        <mxCell id="W7TN4EEouALZe4q9rsRO-75" value="created_at" style="shape=partialRectangle;overflow=hidden;connectable=0;fillColor=none;top=0;left=0;bottom=0;right=0;align=left;spacingLeft=6;" parent="W7TN4EEouALZe4q9rsRO-73" vertex="1">
          <mxGeometry x="30" width="110" height="30" as="geometry">
            <mxRectangle width="110" height="30" as="alternateBounds" />
          </mxGeometry>
        </mxCell>
        <mxCell id="W7TN4EEouALZe4q9rsRO-76" value="timestamp" style="shape=partialRectangle;overflow=hidden;connectable=0;fillColor=none;top=0;left=0;bottom=0;right=0;align=left;spacingLeft=6;" parent="W7TN4EEouALZe4q9rsRO-73" vertex="1">
          <mxGeometry x="140" width="130" height="30" as="geometry">
            <mxRectangle width="130" height="30" as="alternateBounds" />
          </mxGeometry>
        </mxCell>
        <mxCell id="W7TN4EEouALZe4q9rsRO-77" value="" style="shape=partialRectangle;collapsible=0;dropTarget=0;pointerEvents=0;fillColor=none;points=[[0,0.5],[1,0.5]];portConstraint=eastwest;top=0;left=0;right=0;bottom=0;" parent="RwkWLb-9THUpObUzx17u-1" vertex="1">
          <mxGeometry y="150" width="270" height="30" as="geometry" />
        </mxCell>
        <mxCell id="W7TN4EEouALZe4q9rsRO-78" value="" style="shape=partialRectangle;overflow=hidden;connectable=0;fillColor=none;top=0;left=0;bottom=0;right=0;" parent="W7TN4EEouALZe4q9rsRO-77" vertex="1">
          <mxGeometry width="30" height="30" as="geometry">
            <mxRectangle width="30" height="30" as="alternateBounds" />
          </mxGeometry>
        </mxCell>
        <mxCell id="W7TN4EEouALZe4q9rsRO-79" value="updated_at" style="shape=partialRectangle;overflow=hidden;connectable=0;fillColor=none;top=0;left=0;bottom=0;right=0;align=left;spacingLeft=6;" parent="W7TN4EEouALZe4q9rsRO-77" vertex="1">
          <mxGeometry x="30" width="110" height="30" as="geometry">
            <mxRectangle width="110" height="30" as="alternateBounds" />
          </mxGeometry>
        </mxCell>
        <mxCell id="W7TN4EEouALZe4q9rsRO-80" value="timestamp" style="shape=partialRectangle;overflow=hidden;connectable=0;fillColor=none;top=0;left=0;bottom=0;right=0;align=left;spacingLeft=6;" parent="W7TN4EEouALZe4q9rsRO-77" vertex="1">
          <mxGeometry x="140" width="130" height="30" as="geometry">
            <mxRectangle width="130" height="30" as="alternateBounds" />
          </mxGeometry>
        </mxCell>
        <mxCell id="RwkWLb-9THUpObUzx17u-14" value="" style="group" parent="1" connectable="0" vertex="1">
          <mxGeometry x="-1140" y="10" width="440" height="250" as="geometry" />
        </mxCell>
        <mxCell id="RwkWLb-9THUpObUzx17u-35" value="0..&lt;sup&gt;n&lt;/sup&gt;" style="text;html=1;align=center;verticalAlign=middle;resizable=0;points=[];autosize=1;strokeColor=none;fillColor=none;" parent="RwkWLb-9THUpObUzx17u-14" vertex="1">
          <mxGeometry x="278.79999999999995" y="10" width="40" height="30" as="geometry" />
        </mxCell>
        <mxCell id="8KLkgvAYbc9Z4wnAoRf4-5" value="1" style="text;html=1;align=center;verticalAlign=middle;resizable=0;points=[];autosize=1;strokeColor=none;fillColor=none;" parent="RwkWLb-9THUpObUzx17u-14" vertex="1">
          <mxGeometry x="283.79999999999995" y="80" width="30" height="30" as="geometry" />
        </mxCell>
        <mxCell id="RwkWLb-9THUpObUzx17u-69" value="meeting_room" style="shape=table;startSize=30;container=1;collapsible=1;childLayout=tableLayout;fixedRows=1;rowLines=0;fontStyle=1;align=center;resizeLast=1;" parent="1" vertex="1">
          <mxGeometry x="-280" y="290" width="350" height="370" as="geometry">
            <mxRectangle x="-505" y="280" width="100" height="30" as="alternateBounds" />
          </mxGeometry>
        </mxCell>
        <mxCell id="RwkWLb-9THUpObUzx17u-70" value="" style="shape=partialRectangle;collapsible=0;dropTarget=0;pointerEvents=0;fillColor=none;points=[[0,0.5],[1,0.5]];portConstraint=eastwest;top=0;left=0;right=0;bottom=1;" parent="RwkWLb-9THUpObUzx17u-69" vertex="1">
          <mxGeometry y="30" width="350" height="30" as="geometry" />
        </mxCell>
        <mxCell id="RwkWLb-9THUpObUzx17u-71" value="PK" style="shape=partialRectangle;overflow=hidden;connectable=0;fillColor=none;top=0;left=0;bottom=0;right=0;fontStyle=1;" parent="RwkWLb-9THUpObUzx17u-70" vertex="1">
          <mxGeometry width="30" height="30" as="geometry">
            <mxRectangle width="30" height="30" as="alternateBounds" />
          </mxGeometry>
        </mxCell>
        <mxCell id="RwkWLb-9THUpObUzx17u-72" value="meeting_room_id " style="shape=partialRectangle;overflow=hidden;connectable=0;fillColor=none;top=0;left=0;bottom=0;right=0;align=left;spacingLeft=6;fontStyle=5;" parent="RwkWLb-9THUpObUzx17u-70" vertex="1">
          <mxGeometry x="30" width="170" height="30" as="geometry">
            <mxRectangle width="170" height="30" as="alternateBounds" />
          </mxGeometry>
        </mxCell>
        <mxCell id="W7TN4EEouALZe4q9rsRO-87" value="int" style="shape=partialRectangle;overflow=hidden;connectable=0;fillColor=none;top=0;left=0;bottom=0;right=0;align=left;spacingLeft=6;fontStyle=5;" parent="RwkWLb-9THUpObUzx17u-70" vertex="1">
          <mxGeometry x="200" width="150" height="30" as="geometry">
            <mxRectangle width="150" height="30" as="alternateBounds" />
          </mxGeometry>
        </mxCell>
        <mxCell id="RwkWLb-9THUpObUzx17u-73" value="" style="shape=partialRectangle;collapsible=0;dropTarget=0;pointerEvents=0;fillColor=none;points=[[0,0.5],[1,0.5]];portConstraint=eastwest;top=0;left=0;right=0;bottom=0;" parent="RwkWLb-9THUpObUzx17u-69" vertex="1">
          <mxGeometry y="60" width="350" height="30" as="geometry" />
        </mxCell>
        <mxCell id="RwkWLb-9THUpObUzx17u-74" value="" style="shape=partialRectangle;overflow=hidden;connectable=0;fillColor=none;top=0;left=0;bottom=0;right=0;" parent="RwkWLb-9THUpObUzx17u-73" vertex="1">
          <mxGeometry width="30" height="30" as="geometry">
            <mxRectangle width="30" height="30" as="alternateBounds" />
          </mxGeometry>
        </mxCell>
        <mxCell id="RwkWLb-9THUpObUzx17u-75" value="room_name" style="shape=partialRectangle;overflow=hidden;connectable=0;fillColor=none;top=0;left=0;bottom=0;right=0;align=left;spacingLeft=6;" parent="RwkWLb-9THUpObUzx17u-73" vertex="1">
          <mxGeometry x="30" width="170" height="30" as="geometry">
            <mxRectangle width="170" height="30" as="alternateBounds" />
          </mxGeometry>
        </mxCell>
        <mxCell id="W7TN4EEouALZe4q9rsRO-88" value="varchar(100)" style="shape=partialRectangle;overflow=hidden;connectable=0;fillColor=none;top=0;left=0;bottom=0;right=0;align=left;spacingLeft=6;" parent="RwkWLb-9THUpObUzx17u-73" vertex="1">
          <mxGeometry x="200" width="150" height="30" as="geometry">
            <mxRectangle width="150" height="30" as="alternateBounds" />
          </mxGeometry>
        </mxCell>
        <mxCell id="RwkWLb-9THUpObUzx17u-76" value="" style="shape=partialRectangle;collapsible=0;dropTarget=0;pointerEvents=0;fillColor=none;points=[[0,0.5],[1,0.5]];portConstraint=eastwest;top=0;left=0;right=0;bottom=0;" parent="RwkWLb-9THUpObUzx17u-69" vertex="1">
          <mxGeometry y="90" width="350" height="30" as="geometry" />
        </mxCell>
        <mxCell id="RwkWLb-9THUpObUzx17u-77" value="" style="shape=partialRectangle;overflow=hidden;connectable=0;fillColor=none;top=0;left=0;bottom=0;right=0;" parent="RwkWLb-9THUpObUzx17u-76" vertex="1">
          <mxGeometry width="30" height="30" as="geometry">
            <mxRectangle width="30" height="30" as="alternateBounds" />
          </mxGeometry>
        </mxCell>
        <mxCell id="RwkWLb-9THUpObUzx17u-78" value="meeting_room_capacity" style="shape=partialRectangle;overflow=hidden;connectable=0;fillColor=none;top=0;left=0;bottom=0;right=0;align=left;spacingLeft=6;" parent="RwkWLb-9THUpObUzx17u-76" vertex="1">
          <mxGeometry x="30" width="170" height="30" as="geometry">
            <mxRectangle width="170" height="30" as="alternateBounds" />
          </mxGeometry>
        </mxCell>
        <mxCell id="W7TN4EEouALZe4q9rsRO-89" value="int" style="shape=partialRectangle;overflow=hidden;connectable=0;fillColor=none;top=0;left=0;bottom=0;right=0;align=left;spacingLeft=6;" parent="RwkWLb-9THUpObUzx17u-76" vertex="1">
          <mxGeometry x="200" width="150" height="30" as="geometry">
            <mxRectangle width="150" height="30" as="alternateBounds" />
          </mxGeometry>
        </mxCell>
        <mxCell id="RwkWLb-9THUpObUzx17u-79" value="" style="shape=partialRectangle;collapsible=0;dropTarget=0;pointerEvents=0;fillColor=none;points=[[0,0.5],[1,0.5]];portConstraint=eastwest;top=0;left=0;right=0;bottom=0;" parent="RwkWLb-9THUpObUzx17u-69" vertex="1">
          <mxGeometry y="120" width="350" height="30" as="geometry" />
        </mxCell>
        <mxCell id="RwkWLb-9THUpObUzx17u-80" value="" style="shape=partialRectangle;overflow=hidden;connectable=0;fillColor=none;top=0;left=0;bottom=0;right=0;" parent="RwkWLb-9THUpObUzx17u-79" vertex="1">
          <mxGeometry width="30" height="30" as="geometry">
            <mxRectangle width="30" height="30" as="alternateBounds" />
          </mxGeometry>
        </mxCell>
        <mxCell id="RwkWLb-9THUpObUzx17u-81" value="facility" style="shape=partialRectangle;overflow=hidden;connectable=0;fillColor=none;top=0;left=0;bottom=0;right=0;align=left;spacingLeft=6;" parent="RwkWLb-9THUpObUzx17u-79" vertex="1">
          <mxGeometry x="30" width="170" height="30" as="geometry">
            <mxRectangle width="170" height="30" as="alternateBounds" />
          </mxGeometry>
        </mxCell>
        <mxCell id="W7TN4EEouALZe4q9rsRO-90" value="varchar(100)" style="shape=partialRectangle;overflow=hidden;connectable=0;fillColor=none;top=0;left=0;bottom=0;right=0;align=left;spacingLeft=6;" parent="RwkWLb-9THUpObUzx17u-79" vertex="1">
          <mxGeometry x="200" width="150" height="30" as="geometry">
            <mxRectangle width="150" height="30" as="alternateBounds" />
          </mxGeometry>
        </mxCell>
        <mxCell id="RwkWLb-9THUpObUzx17u-82" value="" style="shape=partialRectangle;collapsible=0;dropTarget=0;pointerEvents=0;fillColor=none;points=[[0,0.5],[1,0.5]];portConstraint=eastwest;top=0;left=0;right=0;bottom=0;" parent="RwkWLb-9THUpObUzx17u-69" vertex="1">
          <mxGeometry y="150" width="350" height="30" as="geometry" />
        </mxCell>
        <mxCell id="RwkWLb-9THUpObUzx17u-83" value="" style="shape=partialRectangle;overflow=hidden;connectable=0;fillColor=none;top=0;left=0;bottom=0;right=0;" parent="RwkWLb-9THUpObUzx17u-82" vertex="1">
          <mxGeometry width="30" height="30" as="geometry">
            <mxRectangle width="30" height="30" as="alternateBounds" />
          </mxGeometry>
        </mxCell>
        <mxCell id="RwkWLb-9THUpObUzx17u-84" value="price_per_hour" style="shape=partialRectangle;overflow=hidden;connectable=0;fillColor=none;top=0;left=0;bottom=0;right=0;align=left;spacingLeft=6;" parent="RwkWLb-9THUpObUzx17u-82" vertex="1">
          <mxGeometry x="30" width="170" height="30" as="geometry">
            <mxRectangle width="170" height="30" as="alternateBounds" />
          </mxGeometry>
        </mxCell>
        <mxCell id="W7TN4EEouALZe4q9rsRO-91" value="double" style="shape=partialRectangle;overflow=hidden;connectable=0;fillColor=none;top=0;left=0;bottom=0;right=0;align=left;spacingLeft=6;" parent="RwkWLb-9THUpObUzx17u-82" vertex="1">
          <mxGeometry x="200" width="150" height="30" as="geometry">
            <mxRectangle width="150" height="30" as="alternateBounds" />
          </mxGeometry>
        </mxCell>
        <mxCell id="Gs1cEV2GglnCqL7-7Am_-1" value="" style="shape=partialRectangle;collapsible=0;dropTarget=0;pointerEvents=0;fillColor=none;points=[[0,0.5],[1,0.5]];portConstraint=eastwest;top=0;left=0;right=0;bottom=0;" parent="RwkWLb-9THUpObUzx17u-69" vertex="1">
          <mxGeometry y="180" width="350" height="30" as="geometry" />
        </mxCell>
        <mxCell id="Gs1cEV2GglnCqL7-7Am_-2" value="" style="shape=partialRectangle;overflow=hidden;connectable=0;fillColor=none;top=0;left=0;bottom=0;right=0;" parent="Gs1cEV2GglnCqL7-7Am_-1" vertex="1">
          <mxGeometry width="30" height="30" as="geometry">
            <mxRectangle width="30" height="30" as="alternateBounds" />
          </mxGeometry>
        </mxCell>
        <mxCell id="Gs1cEV2GglnCqL7-7Am_-3" value="price_per_day" style="shape=partialRectangle;overflow=hidden;connectable=0;fillColor=none;top=0;left=0;bottom=0;right=0;align=left;spacingLeft=6;" parent="Gs1cEV2GglnCqL7-7Am_-1" vertex="1">
          <mxGeometry x="30" width="170" height="30" as="geometry">
            <mxRectangle width="170" height="30" as="alternateBounds" />
          </mxGeometry>
        </mxCell>
        <mxCell id="W7TN4EEouALZe4q9rsRO-92" value="double" style="shape=partialRectangle;overflow=hidden;connectable=0;fillColor=none;top=0;left=0;bottom=0;right=0;align=left;spacingLeft=6;" parent="Gs1cEV2GglnCqL7-7Am_-1" vertex="1">
          <mxGeometry x="200" width="150" height="30" as="geometry">
            <mxRectangle width="150" height="30" as="alternateBounds" />
          </mxGeometry>
        </mxCell>
        <mxCell id="RwkWLb-9THUpObUzx17u-85" value="" style="shape=partialRectangle;collapsible=0;dropTarget=0;pointerEvents=0;fillColor=none;points=[[0,0.5],[1,0.5]];portConstraint=eastwest;top=0;left=0;right=0;bottom=0;" parent="RwkWLb-9THUpObUzx17u-69" vertex="1">
          <mxGeometry y="210" width="350" height="30" as="geometry" />
        </mxCell>
        <mxCell id="RwkWLb-9THUpObUzx17u-86" value="FK" style="shape=partialRectangle;overflow=hidden;connectable=0;fillColor=none;top=0;left=0;bottom=0;right=0;" parent="RwkWLb-9THUpObUzx17u-85" vertex="1">
          <mxGeometry width="30" height="30" as="geometry">
            <mxRectangle width="30" height="30" as="alternateBounds" />
          </mxGeometry>
        </mxCell>
        <mxCell id="RwkWLb-9THUpObUzx17u-87" value="booking_list_id" style="shape=partialRectangle;overflow=hidden;connectable=0;fillColor=none;top=0;left=0;bottom=0;right=0;align=left;spacingLeft=6;" parent="RwkWLb-9THUpObUzx17u-85" vertex="1">
          <mxGeometry x="30" width="170" height="30" as="geometry">
            <mxRectangle width="170" height="30" as="alternateBounds" />
          </mxGeometry>
        </mxCell>
        <mxCell id="W7TN4EEouALZe4q9rsRO-93" value="int" style="shape=partialRectangle;overflow=hidden;connectable=0;fillColor=none;top=0;left=0;bottom=0;right=0;align=left;spacingLeft=6;" parent="RwkWLb-9THUpObUzx17u-85" vertex="1">
          <mxGeometry x="200" width="150" height="30" as="geometry">
            <mxRectangle width="150" height="30" as="alternateBounds" />
          </mxGeometry>
        </mxCell>
        <mxCell id="RwkWLb-9THUpObUzx17u-88" value="" style="shape=partialRectangle;collapsible=0;dropTarget=0;pointerEvents=0;fillColor=none;points=[[0,0.5],[1,0.5]];portConstraint=eastwest;top=0;left=0;right=0;bottom=0;" parent="RwkWLb-9THUpObUzx17u-69" vertex="1">
          <mxGeometry y="240" width="350" height="30" as="geometry" />
        </mxCell>
        <mxCell id="RwkWLb-9THUpObUzx17u-89" value="FK" style="shape=partialRectangle;overflow=hidden;connectable=0;fillColor=none;top=0;left=0;bottom=0;right=0;" parent="RwkWLb-9THUpObUzx17u-88" vertex="1">
          <mxGeometry width="30" height="30" as="geometry">
            <mxRectangle width="30" height="30" as="alternateBounds" />
          </mxGeometry>
        </mxCell>
        <mxCell id="RwkWLb-9THUpObUzx17u-90" value="floor_id" style="shape=partialRectangle;overflow=hidden;connectable=0;fillColor=none;top=0;left=0;bottom=0;right=0;align=left;spacingLeft=6;" parent="RwkWLb-9THUpObUzx17u-88" vertex="1">
          <mxGeometry x="30" width="170" height="30" as="geometry">
            <mxRectangle width="170" height="30" as="alternateBounds" />
          </mxGeometry>
        </mxCell>
        <mxCell id="W7TN4EEouALZe4q9rsRO-94" value="int" style="shape=partialRectangle;overflow=hidden;connectable=0;fillColor=none;top=0;left=0;bottom=0;right=0;align=left;spacingLeft=6;" parent="RwkWLb-9THUpObUzx17u-88" vertex="1">
          <mxGeometry x="200" width="150" height="30" as="geometry">
            <mxRectangle width="150" height="30" as="alternateBounds" />
          </mxGeometry>
        </mxCell>
        <mxCell id="W7TN4EEouALZe4q9rsRO-42" value="" style="shape=partialRectangle;collapsible=0;dropTarget=0;pointerEvents=0;fillColor=none;points=[[0,0.5],[1,0.5]];portConstraint=eastwest;top=0;left=0;right=0;bottom=0;" parent="RwkWLb-9THUpObUzx17u-69" vertex="1">
          <mxGeometry y="270" width="350" height="30" as="geometry" />
        </mxCell>
        <mxCell id="W7TN4EEouALZe4q9rsRO-43" value="" style="shape=partialRectangle;overflow=hidden;connectable=0;fillColor=none;top=0;left=0;bottom=0;right=0;" parent="W7TN4EEouALZe4q9rsRO-42" vertex="1">
          <mxGeometry width="30" height="30" as="geometry">
            <mxRectangle width="30" height="30" as="alternateBounds" />
          </mxGeometry>
        </mxCell>
        <mxCell id="W7TN4EEouALZe4q9rsRO-44" value="meeting_room_daily_revenue" style="shape=partialRectangle;overflow=hidden;connectable=0;fillColor=none;top=0;left=0;bottom=0;right=0;align=left;spacingLeft=6;" parent="W7TN4EEouALZe4q9rsRO-42" vertex="1">
          <mxGeometry x="30" width="170" height="30" as="geometry">
            <mxRectangle width="170" height="30" as="alternateBounds" />
          </mxGeometry>
        </mxCell>
        <mxCell id="W7TN4EEouALZe4q9rsRO-95" value="double" style="shape=partialRectangle;overflow=hidden;connectable=0;fillColor=none;top=0;left=0;bottom=0;right=0;align=left;spacingLeft=6;" parent="W7TN4EEouALZe4q9rsRO-42" vertex="1">
          <mxGeometry x="200" width="150" height="30" as="geometry">
            <mxRectangle width="150" height="30" as="alternateBounds" />
          </mxGeometry>
        </mxCell>
        <mxCell id="W7TN4EEouALZe4q9rsRO-81" value="" style="shape=partialRectangle;collapsible=0;dropTarget=0;pointerEvents=0;fillColor=none;points=[[0,0.5],[1,0.5]];portConstraint=eastwest;top=0;left=0;right=0;bottom=0;" parent="RwkWLb-9THUpObUzx17u-69" vertex="1">
          <mxGeometry y="300" width="350" height="30" as="geometry" />
        </mxCell>
        <mxCell id="W7TN4EEouALZe4q9rsRO-82" value="" style="shape=partialRectangle;overflow=hidden;connectable=0;fillColor=none;top=0;left=0;bottom=0;right=0;" parent="W7TN4EEouALZe4q9rsRO-81" vertex="1">
          <mxGeometry width="30" height="30" as="geometry">
            <mxRectangle width="30" height="30" as="alternateBounds" />
          </mxGeometry>
        </mxCell>
        <mxCell id="W7TN4EEouALZe4q9rsRO-83" value="created_at" style="shape=partialRectangle;overflow=hidden;connectable=0;fillColor=none;top=0;left=0;bottom=0;right=0;align=left;spacingLeft=6;" parent="W7TN4EEouALZe4q9rsRO-81" vertex="1">
          <mxGeometry x="30" width="170" height="30" as="geometry">
            <mxRectangle width="170" height="30" as="alternateBounds" />
          </mxGeometry>
        </mxCell>
        <mxCell id="W7TN4EEouALZe4q9rsRO-96" value="timestamp" style="shape=partialRectangle;overflow=hidden;connectable=0;fillColor=none;top=0;left=0;bottom=0;right=0;align=left;spacingLeft=6;" parent="W7TN4EEouALZe4q9rsRO-81" vertex="1">
          <mxGeometry x="200" width="150" height="30" as="geometry">
            <mxRectangle width="150" height="30" as="alternateBounds" />
          </mxGeometry>
        </mxCell>
        <mxCell id="W7TN4EEouALZe4q9rsRO-84" value="" style="shape=partialRectangle;collapsible=0;dropTarget=0;pointerEvents=0;fillColor=none;points=[[0,0.5],[1,0.5]];portConstraint=eastwest;top=0;left=0;right=0;bottom=0;" parent="RwkWLb-9THUpObUzx17u-69" vertex="1">
          <mxGeometry y="330" width="350" height="30" as="geometry" />
        </mxCell>
        <mxCell id="W7TN4EEouALZe4q9rsRO-85" value="" style="shape=partialRectangle;overflow=hidden;connectable=0;fillColor=none;top=0;left=0;bottom=0;right=0;" parent="W7TN4EEouALZe4q9rsRO-84" vertex="1">
          <mxGeometry width="30" height="30" as="geometry">
            <mxRectangle width="30" height="30" as="alternateBounds" />
          </mxGeometry>
        </mxCell>
        <mxCell id="W7TN4EEouALZe4q9rsRO-86" value="updated_at" style="shape=partialRectangle;overflow=hidden;connectable=0;fillColor=none;top=0;left=0;bottom=0;right=0;align=left;spacingLeft=6;" parent="W7TN4EEouALZe4q9rsRO-84" vertex="1">
          <mxGeometry x="30" width="170" height="30" as="geometry">
            <mxRectangle width="170" height="30" as="alternateBounds" />
          </mxGeometry>
        </mxCell>
        <mxCell id="W7TN4EEouALZe4q9rsRO-97" value="timestamp" style="shape=partialRectangle;overflow=hidden;connectable=0;fillColor=none;top=0;left=0;bottom=0;right=0;align=left;spacingLeft=6;" parent="W7TN4EEouALZe4q9rsRO-84" vertex="1">
          <mxGeometry x="200" width="150" height="30" as="geometry">
            <mxRectangle width="150" height="30" as="alternateBounds" />
          </mxGeometry>
        </mxCell>
        <mxCell id="RwkWLb-9THUpObUzx17u-91" value="hotel" style="shape=table;startSize=30;container=1;collapsible=1;childLayout=tableLayout;fixedRows=1;rowLines=0;fontStyle=1;align=center;resizeLast=1;" parent="1" vertex="1">
          <mxGeometry x="-810" y="20" width="310" height="330" as="geometry">
            <mxRectangle x="-50" y="-20" width="100" height="30" as="alternateBounds" />
          </mxGeometry>
        </mxCell>
        <mxCell id="RwkWLb-9THUpObUzx17u-92" value="" style="shape=partialRectangle;collapsible=0;dropTarget=0;pointerEvents=0;fillColor=none;points=[[0,0.5],[1,0.5]];portConstraint=eastwest;top=0;left=0;right=0;bottom=1;" parent="RwkWLb-9THUpObUzx17u-91" vertex="1">
          <mxGeometry y="30" width="310" height="30" as="geometry" />
        </mxCell>
        <mxCell id="RwkWLb-9THUpObUzx17u-93" value="PK" style="shape=partialRectangle;overflow=hidden;connectable=0;fillColor=none;top=0;left=0;bottom=0;right=0;fontStyle=1;" parent="RwkWLb-9THUpObUzx17u-92" vertex="1">
          <mxGeometry width="30" height="30" as="geometry">
            <mxRectangle width="30" height="30" as="alternateBounds" />
          </mxGeometry>
        </mxCell>
        <mxCell id="RwkWLb-9THUpObUzx17u-94" value="hotel_id NOT NULL" style="shape=partialRectangle;overflow=hidden;connectable=0;fillColor=none;top=0;left=0;bottom=0;right=0;align=left;spacingLeft=6;fontStyle=5;" parent="RwkWLb-9THUpObUzx17u-92" vertex="1">
          <mxGeometry x="30" width="140" height="30" as="geometry">
            <mxRectangle width="140" height="30" as="alternateBounds" />
          </mxGeometry>
        </mxCell>
        <mxCell id="W7TN4EEouALZe4q9rsRO-59" value="int" style="shape=partialRectangle;overflow=hidden;connectable=0;fillColor=none;top=0;left=0;bottom=0;right=0;align=left;spacingLeft=6;fontStyle=5;" parent="RwkWLb-9THUpObUzx17u-92" vertex="1">
          <mxGeometry x="170" width="140" height="30" as="geometry">
            <mxRectangle width="140" height="30" as="alternateBounds" />
          </mxGeometry>
        </mxCell>
        <mxCell id="RwkWLb-9THUpObUzx17u-95" value="" style="shape=partialRectangle;collapsible=0;dropTarget=0;pointerEvents=0;fillColor=none;points=[[0,0.5],[1,0.5]];portConstraint=eastwest;top=0;left=0;right=0;bottom=0;" parent="RwkWLb-9THUpObUzx17u-91" vertex="1">
          <mxGeometry y="60" width="310" height="30" as="geometry" />
        </mxCell>
        <mxCell id="RwkWLb-9THUpObUzx17u-96" value="" style="shape=partialRectangle;overflow=hidden;connectable=0;fillColor=none;top=0;left=0;bottom=0;right=0;" parent="RwkWLb-9THUpObUzx17u-95" vertex="1">
          <mxGeometry width="30" height="30" as="geometry">
            <mxRectangle width="30" height="30" as="alternateBounds" />
          </mxGeometry>
        </mxCell>
        <mxCell id="RwkWLb-9THUpObUzx17u-97" value="province" style="shape=partialRectangle;overflow=hidden;connectable=0;fillColor=none;top=0;left=0;bottom=0;right=0;align=left;spacingLeft=6;" parent="RwkWLb-9THUpObUzx17u-95" vertex="1">
          <mxGeometry x="30" width="140" height="30" as="geometry">
            <mxRectangle width="140" height="30" as="alternateBounds" />
          </mxGeometry>
        </mxCell>
        <mxCell id="W7TN4EEouALZe4q9rsRO-60" value="varchar(100)" style="shape=partialRectangle;overflow=hidden;connectable=0;fillColor=none;top=0;left=0;bottom=0;right=0;align=left;spacingLeft=6;" parent="RwkWLb-9THUpObUzx17u-95" vertex="1">
          <mxGeometry x="170" width="140" height="30" as="geometry">
            <mxRectangle width="140" height="30" as="alternateBounds" />
          </mxGeometry>
        </mxCell>
        <mxCell id="RwkWLb-9THUpObUzx17u-98" value="" style="shape=partialRectangle;collapsible=0;dropTarget=0;pointerEvents=0;fillColor=none;points=[[0,0.5],[1,0.5]];portConstraint=eastwest;top=0;left=0;right=0;bottom=0;" parent="RwkWLb-9THUpObUzx17u-91" vertex="1">
          <mxGeometry y="90" width="310" height="30" as="geometry" />
        </mxCell>
        <mxCell id="RwkWLb-9THUpObUzx17u-99" value="" style="shape=partialRectangle;overflow=hidden;connectable=0;fillColor=none;top=0;left=0;bottom=0;right=0;" parent="RwkWLb-9THUpObUzx17u-98" vertex="1">
          <mxGeometry width="30" height="30" as="geometry">
            <mxRectangle width="30" height="30" as="alternateBounds" />
          </mxGeometry>
        </mxCell>
        <mxCell id="RwkWLb-9THUpObUzx17u-100" value="city" style="shape=partialRectangle;overflow=hidden;connectable=0;fillColor=none;top=0;left=0;bottom=0;right=0;align=left;spacingLeft=6;" parent="RwkWLb-9THUpObUzx17u-98" vertex="1">
          <mxGeometry x="30" width="140" height="30" as="geometry">
            <mxRectangle width="140" height="30" as="alternateBounds" />
          </mxGeometry>
        </mxCell>
        <mxCell id="W7TN4EEouALZe4q9rsRO-61" value="varchar(100)" style="shape=partialRectangle;overflow=hidden;connectable=0;fillColor=none;top=0;left=0;bottom=0;right=0;align=left;spacingLeft=6;" parent="RwkWLb-9THUpObUzx17u-98" vertex="1">
          <mxGeometry x="170" width="140" height="30" as="geometry">
            <mxRectangle width="140" height="30" as="alternateBounds" />
          </mxGeometry>
        </mxCell>
        <mxCell id="RwkWLb-9THUpObUzx17u-101" value="" style="shape=partialRectangle;collapsible=0;dropTarget=0;pointerEvents=0;fillColor=none;points=[[0,0.5],[1,0.5]];portConstraint=eastwest;top=0;left=0;right=0;bottom=0;" parent="RwkWLb-9THUpObUzx17u-91" vertex="1">
          <mxGeometry y="120" width="310" height="30" as="geometry" />
        </mxCell>
        <mxCell id="RwkWLb-9THUpObUzx17u-102" value="" style="shape=partialRectangle;overflow=hidden;connectable=0;fillColor=none;top=0;left=0;bottom=0;right=0;" parent="RwkWLb-9THUpObUzx17u-101" vertex="1">
          <mxGeometry width="30" height="30" as="geometry">
            <mxRectangle width="30" height="30" as="alternateBounds" />
          </mxGeometry>
        </mxCell>
        <mxCell id="RwkWLb-9THUpObUzx17u-103" value="zip_code" style="shape=partialRectangle;overflow=hidden;connectable=0;fillColor=none;top=0;left=0;bottom=0;right=0;align=left;spacingLeft=6;" parent="RwkWLb-9THUpObUzx17u-101" vertex="1">
          <mxGeometry x="30" width="140" height="30" as="geometry">
            <mxRectangle width="140" height="30" as="alternateBounds" />
          </mxGeometry>
        </mxCell>
        <mxCell id="W7TN4EEouALZe4q9rsRO-62" value="varchar(100)" style="shape=partialRectangle;overflow=hidden;connectable=0;fillColor=none;top=0;left=0;bottom=0;right=0;align=left;spacingLeft=6;" parent="RwkWLb-9THUpObUzx17u-101" vertex="1">
          <mxGeometry x="170" width="140" height="30" as="geometry">
            <mxRectangle width="140" height="30" as="alternateBounds" />
          </mxGeometry>
        </mxCell>
        <mxCell id="RwkWLb-9THUpObUzx17u-104" value="" style="shape=partialRectangle;collapsible=0;dropTarget=0;pointerEvents=0;fillColor=none;points=[[0,0.5],[1,0.5]];portConstraint=eastwest;top=0;left=0;right=0;bottom=0;" parent="RwkWLb-9THUpObUzx17u-91" vertex="1">
          <mxGeometry y="150" width="310" height="30" as="geometry" />
        </mxCell>
        <mxCell id="RwkWLb-9THUpObUzx17u-105" value="" style="shape=partialRectangle;overflow=hidden;connectable=0;fillColor=none;top=0;left=0;bottom=0;right=0;" parent="RwkWLb-9THUpObUzx17u-104" vertex="1">
          <mxGeometry width="30" height="30" as="geometry">
            <mxRectangle width="30" height="30" as="alternateBounds" />
          </mxGeometry>
        </mxCell>
        <mxCell id="RwkWLb-9THUpObUzx17u-106" value="star" style="shape=partialRectangle;overflow=hidden;connectable=0;fillColor=none;top=0;left=0;bottom=0;right=0;align=left;spacingLeft=6;" parent="RwkWLb-9THUpObUzx17u-104" vertex="1">
          <mxGeometry x="30" width="140" height="30" as="geometry">
            <mxRectangle width="140" height="30" as="alternateBounds" />
          </mxGeometry>
        </mxCell>
        <mxCell id="W7TN4EEouALZe4q9rsRO-63" value="int" style="shape=partialRectangle;overflow=hidden;connectable=0;fillColor=none;top=0;left=0;bottom=0;right=0;align=left;spacingLeft=6;" parent="RwkWLb-9THUpObUzx17u-104" vertex="1">
          <mxGeometry x="170" width="140" height="30" as="geometry">
            <mxRectangle width="140" height="30" as="alternateBounds" />
          </mxGeometry>
        </mxCell>
        <mxCell id="RwkWLb-9THUpObUzx17u-107" value="" style="shape=partialRectangle;collapsible=0;dropTarget=0;pointerEvents=0;fillColor=none;points=[[0,0.5],[1,0.5]];portConstraint=eastwest;top=0;left=0;right=0;bottom=0;" parent="RwkWLb-9THUpObUzx17u-91" vertex="1">
          <mxGeometry y="180" width="310" height="30" as="geometry" />
        </mxCell>
        <mxCell id="RwkWLb-9THUpObUzx17u-108" value="" style="shape=partialRectangle;overflow=hidden;connectable=0;fillColor=none;top=0;left=0;bottom=0;right=0;" parent="RwkWLb-9THUpObUzx17u-107" vertex="1">
          <mxGeometry width="30" height="30" as="geometry">
            <mxRectangle width="30" height="30" as="alternateBounds" />
          </mxGeometry>
        </mxCell>
        <mxCell id="RwkWLb-9THUpObUzx17u-109" value="floor_number" style="shape=partialRectangle;overflow=hidden;connectable=0;fillColor=none;top=0;left=0;bottom=0;right=0;align=left;spacingLeft=6;" parent="RwkWLb-9THUpObUzx17u-107" vertex="1">
          <mxGeometry x="30" width="140" height="30" as="geometry">
            <mxRectangle width="140" height="30" as="alternateBounds" />
          </mxGeometry>
        </mxCell>
        <mxCell id="W7TN4EEouALZe4q9rsRO-64" value="int" style="shape=partialRectangle;overflow=hidden;connectable=0;fillColor=none;top=0;left=0;bottom=0;right=0;align=left;spacingLeft=6;" parent="RwkWLb-9THUpObUzx17u-107" vertex="1">
          <mxGeometry x="170" width="140" height="30" as="geometry">
            <mxRectangle width="140" height="30" as="alternateBounds" />
          </mxGeometry>
        </mxCell>
        <mxCell id="RwkWLb-9THUpObUzx17u-110" value="" style="shape=partialRectangle;collapsible=0;dropTarget=0;pointerEvents=0;fillColor=none;points=[[0,0.5],[1,0.5]];portConstraint=eastwest;top=0;left=0;right=0;bottom=0;" parent="RwkWLb-9THUpObUzx17u-91" vertex="1">
          <mxGeometry y="210" width="310" height="30" as="geometry" />
        </mxCell>
        <mxCell id="RwkWLb-9THUpObUzx17u-111" value="" style="shape=partialRectangle;overflow=hidden;connectable=0;fillColor=none;top=0;left=0;bottom=0;right=0;" parent="RwkWLb-9THUpObUzx17u-110" vertex="1">
          <mxGeometry width="30" height="30" as="geometry">
            <mxRectangle width="30" height="30" as="alternateBounds" />
          </mxGeometry>
        </mxCell>
        <mxCell id="RwkWLb-9THUpObUzx17u-112" value="hotel_daily_revenue" style="shape=partialRectangle;overflow=hidden;connectable=0;fillColor=none;top=0;left=0;bottom=0;right=0;align=left;spacingLeft=6;" parent="RwkWLb-9THUpObUzx17u-110" vertex="1">
          <mxGeometry x="30" width="140" height="30" as="geometry">
            <mxRectangle width="140" height="30" as="alternateBounds" />
          </mxGeometry>
        </mxCell>
        <mxCell id="W7TN4EEouALZe4q9rsRO-65" value="double" style="shape=partialRectangle;overflow=hidden;connectable=0;fillColor=none;top=0;left=0;bottom=0;right=0;align=left;spacingLeft=6;" parent="RwkWLb-9THUpObUzx17u-110" vertex="1">
          <mxGeometry x="170" width="140" height="30" as="geometry">
            <mxRectangle width="140" height="30" as="alternateBounds" />
          </mxGeometry>
        </mxCell>
        <mxCell id="V0L4xFkuPlVvDaO5OoCF-2" value="" style="shape=partialRectangle;collapsible=0;dropTarget=0;pointerEvents=0;fillColor=none;points=[[0,0.5],[1,0.5]];portConstraint=eastwest;top=0;left=0;right=0;bottom=0;" parent="RwkWLb-9THUpObUzx17u-91" vertex="1">
          <mxGeometry y="240" width="310" height="30" as="geometry" />
        </mxCell>
        <mxCell id="V0L4xFkuPlVvDaO5OoCF-3" value="FK" style="shape=partialRectangle;overflow=hidden;connectable=0;fillColor=none;top=0;left=0;bottom=0;right=0;" parent="V0L4xFkuPlVvDaO5OoCF-2" vertex="1">
          <mxGeometry width="30" height="30" as="geometry">
            <mxRectangle width="30" height="30" as="alternateBounds" />
          </mxGeometry>
        </mxCell>
        <mxCell id="V0L4xFkuPlVvDaO5OoCF-4" value="user_id" style="shape=partialRectangle;overflow=hidden;connectable=0;fillColor=none;top=0;left=0;bottom=0;right=0;align=left;spacingLeft=6;" parent="V0L4xFkuPlVvDaO5OoCF-2" vertex="1">
          <mxGeometry x="30" width="140" height="30" as="geometry">
            <mxRectangle width="140" height="30" as="alternateBounds" />
          </mxGeometry>
        </mxCell>
        <mxCell id="W7TN4EEouALZe4q9rsRO-66" value="int" style="shape=partialRectangle;overflow=hidden;connectable=0;fillColor=none;top=0;left=0;bottom=0;right=0;align=left;spacingLeft=6;" parent="V0L4xFkuPlVvDaO5OoCF-2" vertex="1">
          <mxGeometry x="170" width="140" height="30" as="geometry">
            <mxRectangle width="140" height="30" as="alternateBounds" />
          </mxGeometry>
        </mxCell>
        <mxCell id="W7TN4EEouALZe4q9rsRO-53" value="" style="shape=partialRectangle;collapsible=0;dropTarget=0;pointerEvents=0;fillColor=none;points=[[0,0.5],[1,0.5]];portConstraint=eastwest;top=0;left=0;right=0;bottom=0;" parent="RwkWLb-9THUpObUzx17u-91" vertex="1">
          <mxGeometry y="270" width="310" height="30" as="geometry" />
        </mxCell>
        <mxCell id="W7TN4EEouALZe4q9rsRO-54" value="" style="shape=partialRectangle;overflow=hidden;connectable=0;fillColor=none;top=0;left=0;bottom=0;right=0;" parent="W7TN4EEouALZe4q9rsRO-53" vertex="1">
          <mxGeometry width="30" height="30" as="geometry">
            <mxRectangle width="30" height="30" as="alternateBounds" />
          </mxGeometry>
        </mxCell>
        <mxCell id="W7TN4EEouALZe4q9rsRO-55" value="created_at" style="shape=partialRectangle;overflow=hidden;connectable=0;fillColor=none;top=0;left=0;bottom=0;right=0;align=left;spacingLeft=6;" parent="W7TN4EEouALZe4q9rsRO-53" vertex="1">
          <mxGeometry x="30" width="140" height="30" as="geometry">
            <mxRectangle width="140" height="30" as="alternateBounds" />
          </mxGeometry>
        </mxCell>
        <mxCell id="W7TN4EEouALZe4q9rsRO-67" value="timestamp" style="shape=partialRectangle;overflow=hidden;connectable=0;fillColor=none;top=0;left=0;bottom=0;right=0;align=left;spacingLeft=6;" parent="W7TN4EEouALZe4q9rsRO-53" vertex="1">
          <mxGeometry x="170" width="140" height="30" as="geometry">
            <mxRectangle width="140" height="30" as="alternateBounds" />
          </mxGeometry>
        </mxCell>
        <mxCell id="W7TN4EEouALZe4q9rsRO-56" value="" style="shape=partialRectangle;collapsible=0;dropTarget=0;pointerEvents=0;fillColor=none;points=[[0,0.5],[1,0.5]];portConstraint=eastwest;top=0;left=0;right=0;bottom=0;" parent="RwkWLb-9THUpObUzx17u-91" vertex="1">
          <mxGeometry y="300" width="310" height="30" as="geometry" />
        </mxCell>
        <mxCell id="W7TN4EEouALZe4q9rsRO-57" value="" style="shape=partialRectangle;overflow=hidden;connectable=0;fillColor=none;top=0;left=0;bottom=0;right=0;" parent="W7TN4EEouALZe4q9rsRO-56" vertex="1">
          <mxGeometry width="30" height="30" as="geometry">
            <mxRectangle width="30" height="30" as="alternateBounds" />
          </mxGeometry>
        </mxCell>
        <mxCell id="W7TN4EEouALZe4q9rsRO-58" value="updated_at" style="shape=partialRectangle;overflow=hidden;connectable=0;fillColor=none;top=0;left=0;bottom=0;right=0;align=left;spacingLeft=6;" parent="W7TN4EEouALZe4q9rsRO-56" vertex="1">
          <mxGeometry x="30" width="140" height="30" as="geometry">
            <mxRectangle width="140" height="30" as="alternateBounds" />
          </mxGeometry>
        </mxCell>
        <mxCell id="W7TN4EEouALZe4q9rsRO-68" value="timestamp" style="shape=partialRectangle;overflow=hidden;connectable=0;fillColor=none;top=0;left=0;bottom=0;right=0;align=left;spacingLeft=6;" parent="W7TN4EEouALZe4q9rsRO-56" vertex="1">
          <mxGeometry x="170" width="140" height="30" as="geometry">
            <mxRectangle width="140" height="30" as="alternateBounds" />
          </mxGeometry>
        </mxCell>
        <mxCell id="RwkWLb-9THUpObUzx17u-113" value="" style="endArrow=diamondThin;endFill=0;endSize=24;html=1;rounded=0;entryX=0;entryY=0.5;entryDx=0;entryDy=0;exitX=1;exitY=0.5;exitDx=0;exitDy=0;edgeStyle=orthogonalEdgeStyle;" parent="1" source="4E7Y2Z4R7kvPLD5SU0ed-19" target="RwkWLb-9THUpObUzx17u-92" edge="1">
          <mxGeometry width="160" relative="1" as="geometry">
            <mxPoint x="-890" y="155" as="sourcePoint" />
            <mxPoint x="-890" y="305" as="targetPoint" />
          </mxGeometry>
        </mxCell>
        <mxCell id="iiEIZmMtqOL_lWptsc3R-1" value="&lt;span style=&quot;color: rgba(0, 0, 0, 0); font-family: monospace; font-size: 0px; text-align: start; background-color: rgb(248, 249, 250);&quot;&gt;%3CmxGraphModel%3E%3Croot%3E%3CmxCell%20id%3D%220%22%2F%3E%3CmxCell%20id%3D%221%22%20parent%3D%220%22%2F%3E%3CmxCell%20id%3D%222%22%20value%3D%22Owner%20Can%20%3A%26lt%3Bbr%26gt%3BSee%2C%20Create%2C%20Update%2CDelete%26lt%3Bbr%26gt%3BAssign%201%20Employee%20to%201%20hotel%22%20style%3D%22edgeLabel%3Bhtml%3D1%3Balign%3Dcenter%3BverticalAlign%3Dmiddle%3Bresizable%3D0%3Bpoints%3D%5B%5D%3B%22%20connectable%3D%220%22%20vertex%3D%221%22%20parent%3D%221%22%3E%3CmxGeometry%20x%3D%22-1103.5714285714284%22%20y%3D%22135%22%20as%3D%22geometry%22%2F%3E%3C%2FmxCell%3E%3C%2Froot%3E%3C%2FmxGraphModel%3E&lt;/span&gt;" style="edgeLabel;html=1;align=center;verticalAlign=middle;resizable=0;points=[];" parent="RwkWLb-9THUpObUzx17u-113" vertex="1" connectable="0">
          <mxGeometry x="-0.1232" y="-1" relative="1" as="geometry">
            <mxPoint as="offset" />
          </mxGeometry>
        </mxCell>
        <mxCell id="3AUtRRE-y8AA5NT8Dsic-1" value="&lt;span style=&quot;color: rgba(0, 0, 0, 0); font-family: monospace; font-size: 0px; text-align: start; background-color: rgb(248, 249, 250);&quot;&gt;%3CmxGraphModel%3E%3Croot%3E%3CmxCell%20id%3D%220%22%2F%3E%3CmxCell%20id%3D%221%22%20parent%3D%220%22%2F%3E%3CmxCell%20id%3D%222%22%20value%3D%22Owner%20Can%20%3A%26lt%3Bbr%26gt%3BSee%2C%20Create%2C%20Update%2CDelete%26lt%3Bbr%26gt%3BAssign%201%20Employee%20to%201%20hotel%22%20style%3D%22edgeLabel%3Bhtml%3D1%3Balign%3Dcenter%3BverticalAlign%3Dmiddle%3Bresizable%3D0%3Bpoints%3D%5B%5D%3B%22%20connectable%3D%220%22%20vertex%3D%221%22%20parent%3D%221%22%3E%3CmxGeometry%20x%3D%22-1103.5714285714284%22%20y%3D%22135%22%20as%3D%22geometry%22%2F%3E%3C%2FmxCell%3E%3C%2Froot%3E%3C%2FmxGraphModel%3E&lt;/span&gt;&lt;span style=&quot;color: rgba(0, 0, 0, 0); font-family: monospace; font-size: 0px; text-align: start; background-color: rgb(248, 249, 250);&quot;&gt;%3CmxGraphModel%3E%3Croot%3E%3CmxCell%20id%3D%220%22%2F%3E%3CmxCell%20id%3D%221%22%20parent%3D%220%22%2F%3E%3CmxCell%20id%3D%222%22%20value%3D%22Owner%20Can%20%3A%26lt%3Bbr%26gt%3BSee%2C%20Create%2C%20Update%2CDelete%26lt%3Bbr%26gt%3BAssign%201%20Employee%20to%201%20hotel%22%20style%3D%22edgeLabel%3Bhtml%3D1%3Balign%3Dcenter%3BverticalAlign%3Dmiddle%3Bresizable%3D0%3Bpoints%3D%5B%5D%3B%22%20connectable%3D%220%22%20vertex%3D%221%22%20parent%3D%221%22%3E%3CmxGeometry%20x%3D%22-1103.5714285714284%22%20y%3D%22135%22%20as%3D%22geometry%22%2F%3E%3C%2FmxCell%3E%3C%2Froot%3E%3C%2FmxGraphModel%3E&lt;/span&gt;&lt;span style=&quot;color: rgba(0, 0, 0, 0); font-family: monospace; font-size: 0px; text-align: start; background-color: rgb(248, 249, 250);&quot;&gt;%3CmxGraphModel%3E%3Croot%3E%3CmxCell%20id%3D%220%22%2F%3E%3CmxCell%20id%3D%221%22%20parent%3D%220%22%2F%3E%3CmxCell%20id%3D%222%22%20value%3D%22Owner%20Can%20%3A%26lt%3Bbr%26gt%3BSee%2C%20Create%2C%20Update%2CDelete%26lt%3Bbr%26gt%3BAssign%201%20Employee%20to%201%20hotel%22%20style%3D%22edgeLabel%3Bhtml%3D1%3Balign%3Dcenter%3BverticalAlign%3Dmiddle%3Bresizable%3D0%3Bpoints%3D%5B%5D%3B%22%20connectable%3D%220%22%20vertex%3D%221%22%20parent%3D%221%22%3E%3CmxGeometry%20x%3D%22-1103.5714285714284%22%20y%3D%22135%22%20as%3D%22geometry%22%2F%3E%3C%2FmxCell%3E%3C%2Froot%3E%3C%2FmxGraphModel%3E&lt;/span&gt;&lt;span style=&quot;color: rgba(0, 0, 0, 0); font-family: monospace; font-size: 0px; text-align: start; background-color: rgb(248, 249, 250);&quot;&gt;%3CmxGraphModel%3E%3Croot%3E%3CmxCell%20id%3D%220%22%2F%3E%3CmxCell%20id%3D%221%22%20parent%3D%220%22%2F%3E%3CmxCell%20id%3D%222%22%20value%3D%22Owner%20Can%20%3A%26lt%3Bbr%26gt%3BSee%2C%20Create%2C%20Update%2CDelete%26lt%3Bbr%26gt%3BAssign%201%20Employee%20to%201%20hotel%22%20style%3D%22edgeLabel%3Bhtml%3D1%3Balign%3Dcenter%3BverticalAlign%3Dmiddle%3Bresizable%3D0%3Bpoints%3D%5B%5D%3B%22%20connectable%3D%220%22%20vertex%3D%221%22%20parent%3D%221%22%3E%3CmxGeometry%20x%3D%22-1103.5714285714284%22%20y%3D%22135%22%20as%3D%22geometry%22%2F%3E%3C%2FmxCell%3E%3C%2Froot%3E%3C%2FmxGraphModel%3E&lt;/span&gt;" style="edgeLabel;html=1;align=center;verticalAlign=middle;resizable=0;points=[];" parent="RwkWLb-9THUpObUzx17u-113" vertex="1" connectable="0">
          <mxGeometry x="-0.1071" y="2" relative="1" as="geometry">
            <mxPoint as="offset" />
          </mxGeometry>
        </mxCell>
        <mxCell id="RwkWLb-9THUpObUzx17u-118" value="" style="endArrow=diamondThin;endFill=1;endSize=24;html=1;rounded=0;exitX=1;exitY=0.5;exitDx=0;exitDy=0;entryX=0;entryY=0.5;entryDx=0;entryDy=0;edgeStyle=orthogonalEdgeStyle;" parent="1" source="RwkWLb-9THUpObUzx17u-107" target="RwkWLb-9THUpObUzx17u-5" edge="1">
          <mxGeometry width="160" relative="1" as="geometry">
            <mxPoint x="-380" y="155" as="sourcePoint" />
            <mxPoint x="-220" y="155" as="targetPoint" />
          </mxGeometry>
        </mxCell>
        <mxCell id="RwkWLb-9THUpObUzx17u-119" value="Have" style="edgeLabel;html=1;align=center;verticalAlign=middle;resizable=0;points=[];" parent="RwkWLb-9THUpObUzx17u-118" connectable="0" vertex="1">
          <mxGeometry x="-0.1871" y="-1" relative="1" as="geometry">
            <mxPoint as="offset" />
          </mxGeometry>
        </mxCell>
        <mxCell id="RwkWLb-9THUpObUzx17u-120" value="1" style="text;html=1;align=center;verticalAlign=middle;resizable=0;points=[];autosize=1;strokeColor=none;fillColor=none;" parent="1" vertex="1">
          <mxGeometry x="-490" y="180" width="30" height="30" as="geometry" />
        </mxCell>
        <mxCell id="RwkWLb-9THUpObUzx17u-121" value="0..&lt;sup&gt;n&lt;/sup&gt;" style="text;html=1;align=center;verticalAlign=middle;resizable=0;points=[];autosize=1;strokeColor=none;fillColor=none;" parent="1" vertex="1">
          <mxGeometry x="-310" y="110" width="40" height="30" as="geometry" />
        </mxCell>
        <mxCell id="RwkWLb-9THUpObUzx17u-122" value="" style="endArrow=diamondThin;endFill=1;endSize=24;html=1;rounded=0;edgeStyle=orthogonalEdgeStyle;entryX=1;entryY=0.5;entryDx=0;entryDy=0;" parent="1" target="RwkWLb-9THUpObUzx17u-88" edge="1">
          <mxGeometry width="160" relative="1" as="geometry">
            <mxPoint x="20" y="160" as="sourcePoint" />
            <mxPoint x="90" y="590" as="targetPoint" />
            <Array as="points">
              <mxPoint x="20" y="155" />
              <mxPoint x="130" y="155" />
              <mxPoint x="130" y="545" />
            </Array>
          </mxGeometry>
        </mxCell>
        <mxCell id="RwkWLb-9THUpObUzx17u-123" value="Have" style="edgeLabel;html=1;align=center;verticalAlign=middle;resizable=0;points=[];" parent="RwkWLb-9THUpObUzx17u-122" connectable="0" vertex="1">
          <mxGeometry x="-0.1871" y="-1" relative="1" as="geometry">
            <mxPoint as="offset" />
          </mxGeometry>
        </mxCell>
        <mxCell id="RwkWLb-9THUpObUzx17u-124" value="1" style="text;html=1;align=center;verticalAlign=middle;resizable=0;points=[];autosize=1;strokeColor=none;fillColor=none;" parent="1" vertex="1">
          <mxGeometry x="30" y="120" width="30" height="30" as="geometry" />
        </mxCell>
        <mxCell id="RwkWLb-9THUpObUzx17u-125" value="0..&lt;sup&gt;n&lt;/sup&gt;" style="text;html=1;align=center;verticalAlign=middle;resizable=0;points=[];autosize=1;strokeColor=none;fillColor=none;" parent="1" vertex="1">
          <mxGeometry x="70" y="505" width="40" height="30" as="geometry" />
        </mxCell>
        <mxCell id="RwkWLb-9THUpObUzx17u-126" value="" style="endArrow=diamondThin;endFill=1;endSize=24;html=1;rounded=0;entryX=0;entryY=0.5;entryDx=0;entryDy=0;exitX=1;exitY=0.5;exitDx=0;exitDy=0;edgeStyle=orthogonalEdgeStyle;" parent="1" source="RwkWLb-9THUpObUzx17u-156" target="RwkWLb-9THUpObUzx17u-129" edge="1">
          <mxGeometry width="160" relative="1" as="geometry">
            <mxPoint x="-260" y="690" as="sourcePoint" />
            <mxPoint x="-553.33" y="774" as="targetPoint" />
          </mxGeometry>
        </mxCell>
        <mxCell id="RwkWLb-9THUpObUzx17u-127" value="Have" style="edgeLabel;html=1;align=center;verticalAlign=middle;resizable=0;points=[];" parent="RwkWLb-9THUpObUzx17u-126" connectable="0" vertex="1">
          <mxGeometry x="-0.1871" y="-1" relative="1" as="geometry">
            <mxPoint as="offset" />
          </mxGeometry>
        </mxCell>
        <mxCell id="RwkWLb-9THUpObUzx17u-128" value="event" style="shape=table;startSize=30;container=1;collapsible=1;childLayout=tableLayout;fixedRows=1;rowLines=0;fontStyle=1;align=center;resizeLast=1;" parent="1" vertex="1">
          <mxGeometry x="-350" y="680" width="350" height="220" as="geometry">
            <mxRectangle x="860" y="290" width="100" height="30" as="alternateBounds" />
          </mxGeometry>
        </mxCell>
        <mxCell id="RwkWLb-9THUpObUzx17u-129" value="" style="shape=partialRectangle;collapsible=0;dropTarget=0;pointerEvents=0;fillColor=none;points=[[0,0.5],[1,0.5]];portConstraint=eastwest;top=0;left=0;right=0;bottom=1;" parent="RwkWLb-9THUpObUzx17u-128" vertex="1">
          <mxGeometry y="30" width="350" height="30" as="geometry" />
        </mxCell>
        <mxCell id="RwkWLb-9THUpObUzx17u-130" value="PK" style="shape=partialRectangle;overflow=hidden;connectable=0;fillColor=none;top=0;left=0;bottom=0;right=0;fontStyle=1;" parent="RwkWLb-9THUpObUzx17u-129" vertex="1">
          <mxGeometry width="30" height="30" as="geometry">
            <mxRectangle width="30" height="30" as="alternateBounds" />
          </mxGeometry>
        </mxCell>
        <mxCell id="RwkWLb-9THUpObUzx17u-131" value="event_id NOT NULL" style="shape=partialRectangle;overflow=hidden;connectable=0;fillColor=none;top=0;left=0;bottom=0;right=0;align=left;spacingLeft=6;fontStyle=5;" parent="RwkWLb-9THUpObUzx17u-129" vertex="1">
          <mxGeometry x="30" width="220" height="30" as="geometry">
            <mxRectangle width="220" height="30" as="alternateBounds" />
          </mxGeometry>
        </mxCell>
        <mxCell id="W7TN4EEouALZe4q9rsRO-98" value="int" style="shape=partialRectangle;overflow=hidden;connectable=0;fillColor=none;top=0;left=0;bottom=0;right=0;align=left;spacingLeft=6;fontStyle=5;" parent="RwkWLb-9THUpObUzx17u-129" vertex="1">
          <mxGeometry x="250" width="100" height="30" as="geometry">
            <mxRectangle width="100" height="30" as="alternateBounds" />
          </mxGeometry>
        </mxCell>
        <mxCell id="RwkWLb-9THUpObUzx17u-132" value="" style="shape=partialRectangle;collapsible=0;dropTarget=0;pointerEvents=0;fillColor=none;points=[[0,0.5],[1,0.5]];portConstraint=eastwest;top=0;left=0;right=0;bottom=0;" parent="RwkWLb-9THUpObUzx17u-128" vertex="1">
          <mxGeometry y="60" width="350" height="30" as="geometry" />
        </mxCell>
        <mxCell id="RwkWLb-9THUpObUzx17u-133" value="FK" style="shape=partialRectangle;overflow=hidden;connectable=0;fillColor=none;top=0;left=0;bottom=0;right=0;" parent="RwkWLb-9THUpObUzx17u-132" vertex="1">
          <mxGeometry width="30" height="30" as="geometry">
            <mxRectangle width="30" height="30" as="alternateBounds" />
          </mxGeometry>
        </mxCell>
        <mxCell id="RwkWLb-9THUpObUzx17u-134" value="pic_id" style="shape=partialRectangle;overflow=hidden;connectable=0;fillColor=none;top=0;left=0;bottom=0;right=0;align=left;spacingLeft=6;" parent="RwkWLb-9THUpObUzx17u-132" vertex="1">
          <mxGeometry x="30" width="220" height="30" as="geometry">
            <mxRectangle width="220" height="30" as="alternateBounds" />
          </mxGeometry>
        </mxCell>
        <mxCell id="W7TN4EEouALZe4q9rsRO-99" value="int" style="shape=partialRectangle;overflow=hidden;connectable=0;fillColor=none;top=0;left=0;bottom=0;right=0;align=left;spacingLeft=6;" parent="RwkWLb-9THUpObUzx17u-132" vertex="1">
          <mxGeometry x="250" width="100" height="30" as="geometry">
            <mxRectangle width="100" height="30" as="alternateBounds" />
          </mxGeometry>
        </mxCell>
        <mxCell id="RwkWLb-9THUpObUzx17u-138" value="" style="shape=partialRectangle;collapsible=0;dropTarget=0;pointerEvents=0;fillColor=none;points=[[0,0.5],[1,0.5]];portConstraint=eastwest;top=0;left=0;right=0;bottom=0;" parent="RwkWLb-9THUpObUzx17u-128" vertex="1">
          <mxGeometry y="90" width="350" height="30" as="geometry" />
        </mxCell>
        <mxCell id="RwkWLb-9THUpObUzx17u-139" value="" style="shape=partialRectangle;overflow=hidden;connectable=0;fillColor=none;top=0;left=0;bottom=0;right=0;" parent="RwkWLb-9THUpObUzx17u-138" vertex="1">
          <mxGeometry width="30" height="30" as="geometry">
            <mxRectangle width="30" height="30" as="alternateBounds" />
          </mxGeometry>
        </mxCell>
        <mxCell id="RwkWLb-9THUpObUzx17u-140" value="event_start" style="shape=partialRectangle;overflow=hidden;connectable=0;fillColor=none;top=0;left=0;bottom=0;right=0;align=left;spacingLeft=6;" parent="RwkWLb-9THUpObUzx17u-138" vertex="1">
          <mxGeometry x="30" width="220" height="30" as="geometry">
            <mxRectangle width="220" height="30" as="alternateBounds" />
          </mxGeometry>
        </mxCell>
        <mxCell id="W7TN4EEouALZe4q9rsRO-100" value="datetime" style="shape=partialRectangle;overflow=hidden;connectable=0;fillColor=#FFCCCC;top=0;left=0;bottom=0;right=0;align=left;spacingLeft=6;" parent="RwkWLb-9THUpObUzx17u-138" vertex="1">
          <mxGeometry x="250" width="100" height="30" as="geometry">
            <mxRectangle width="100" height="30" as="alternateBounds" />
          </mxGeometry>
        </mxCell>
        <mxCell id="RwkWLb-9THUpObUzx17u-141" value="" style="shape=partialRectangle;collapsible=0;dropTarget=0;pointerEvents=0;fillColor=none;points=[[0,0.5],[1,0.5]];portConstraint=eastwest;top=0;left=0;right=0;bottom=0;" parent="RwkWLb-9THUpObUzx17u-128" vertex="1">
          <mxGeometry y="120" width="350" height="30" as="geometry" />
        </mxCell>
        <mxCell id="RwkWLb-9THUpObUzx17u-142" value="" style="shape=partialRectangle;overflow=hidden;connectable=0;fillColor=none;top=0;left=0;bottom=0;right=0;" parent="RwkWLb-9THUpObUzx17u-141" vertex="1">
          <mxGeometry width="30" height="30" as="geometry">
            <mxRectangle width="30" height="30" as="alternateBounds" />
          </mxGeometry>
        </mxCell>
        <mxCell id="RwkWLb-9THUpObUzx17u-143" value="event_end" style="shape=partialRectangle;overflow=hidden;connectable=0;fillColor=none;top=0;left=0;bottom=0;right=0;align=left;spacingLeft=6;" parent="RwkWLb-9THUpObUzx17u-141" vertex="1">
          <mxGeometry x="30" width="220" height="30" as="geometry">
            <mxRectangle width="220" height="30" as="alternateBounds" />
          </mxGeometry>
        </mxCell>
        <mxCell id="W7TN4EEouALZe4q9rsRO-101" value="datetime" style="shape=partialRectangle;overflow=hidden;connectable=0;fillColor=#FFCCCC;top=0;left=0;bottom=0;right=0;align=left;spacingLeft=6;" parent="RwkWLb-9THUpObUzx17u-141" vertex="1">
          <mxGeometry x="250" width="100" height="30" as="geometry">
            <mxRectangle width="100" height="30" as="alternateBounds" />
          </mxGeometry>
        </mxCell>
        <mxCell id="5-i2yzMDkz8oxT6V_A9C-2" value="" style="shape=partialRectangle;collapsible=0;dropTarget=0;pointerEvents=0;fillColor=none;points=[[0,0.5],[1,0.5]];portConstraint=eastwest;top=0;left=0;right=0;bottom=0;" parent="RwkWLb-9THUpObUzx17u-128" vertex="1">
          <mxGeometry y="150" width="350" height="30" as="geometry" />
        </mxCell>
        <mxCell id="5-i2yzMDkz8oxT6V_A9C-3" value="" style="shape=partialRectangle;overflow=hidden;connectable=0;fillColor=none;top=0;left=0;bottom=0;right=0;" parent="5-i2yzMDkz8oxT6V_A9C-2" vertex="1">
          <mxGeometry width="30" height="30" as="geometry">
            <mxRectangle width="30" height="30" as="alternateBounds" />
          </mxGeometry>
        </mxCell>
        <mxCell id="5-i2yzMDkz8oxT6V_A9C-4" value="created_at" style="shape=partialRectangle;overflow=hidden;connectable=0;fillColor=none;top=0;left=0;bottom=0;right=0;align=left;spacingLeft=6;" parent="5-i2yzMDkz8oxT6V_A9C-2" vertex="1">
          <mxGeometry x="30" width="220" height="30" as="geometry">
            <mxRectangle width="220" height="30" as="alternateBounds" />
          </mxGeometry>
        </mxCell>
        <mxCell id="5-i2yzMDkz8oxT6V_A9C-5" value="timestamp" style="shape=partialRectangle;overflow=hidden;connectable=0;fillColor=#FFCCCC;top=0;left=0;bottom=0;right=0;align=left;spacingLeft=6;" parent="5-i2yzMDkz8oxT6V_A9C-2" vertex="1">
          <mxGeometry x="250" width="100" height="30" as="geometry">
            <mxRectangle width="100" height="30" as="alternateBounds" />
          </mxGeometry>
        </mxCell>
        <mxCell id="5-i2yzMDkz8oxT6V_A9C-6" value="" style="shape=partialRectangle;collapsible=0;dropTarget=0;pointerEvents=0;fillColor=none;points=[[0,0.5],[1,0.5]];portConstraint=eastwest;top=0;left=0;right=0;bottom=0;" parent="RwkWLb-9THUpObUzx17u-128" vertex="1">
          <mxGeometry y="180" width="350" height="30" as="geometry" />
        </mxCell>
        <mxCell id="5-i2yzMDkz8oxT6V_A9C-7" value="" style="shape=partialRectangle;overflow=hidden;connectable=0;fillColor=none;top=0;left=0;bottom=0;right=0;" parent="5-i2yzMDkz8oxT6V_A9C-6" vertex="1">
          <mxGeometry width="30" height="30" as="geometry">
            <mxRectangle width="30" height="30" as="alternateBounds" />
          </mxGeometry>
        </mxCell>
        <mxCell id="5-i2yzMDkz8oxT6V_A9C-8" value="updated_at" style="shape=partialRectangle;overflow=hidden;connectable=0;fillColor=none;top=0;left=0;bottom=0;right=0;align=left;spacingLeft=6;" parent="5-i2yzMDkz8oxT6V_A9C-6" vertex="1">
          <mxGeometry x="30" width="220" height="30" as="geometry">
            <mxRectangle width="220" height="30" as="alternateBounds" />
          </mxGeometry>
        </mxCell>
        <mxCell id="5-i2yzMDkz8oxT6V_A9C-9" value="timestamp" style="shape=partialRectangle;overflow=hidden;connectable=0;fillColor=#FFCCCC;top=0;left=0;bottom=0;right=0;align=left;spacingLeft=6;" parent="5-i2yzMDkz8oxT6V_A9C-6" vertex="1">
          <mxGeometry x="250" width="100" height="30" as="geometry">
            <mxRectangle width="100" height="30" as="alternateBounds" />
          </mxGeometry>
        </mxCell>
        <mxCell id="RwkWLb-9THUpObUzx17u-144" value="" style="endArrow=diamondThin;endFill=1;endSize=24;html=1;rounded=0;exitX=0;exitY=0.5;exitDx=0;exitDy=0;entryX=1;entryY=0.5;entryDx=0;entryDy=0;edgeStyle=orthogonalEdgeStyle;" parent="1" source="RwkWLb-9THUpObUzx17u-85" target="RwkWLb-9THUpObUzx17u-147" edge="1">
          <mxGeometry width="160" relative="1" as="geometry">
            <mxPoint x="-670" y="435" as="sourcePoint" />
            <mxPoint x="-550" y="435" as="targetPoint" />
            <Array as="points">
              <mxPoint x="-280" y="510" />
              <mxPoint x="-510" y="510" />
              <mxPoint x="-510" y="455" />
            </Array>
          </mxGeometry>
        </mxCell>
        <mxCell id="RwkWLb-9THUpObUzx17u-145" value="Have" style="edgeLabel;html=1;align=center;verticalAlign=middle;resizable=0;points=[];" parent="RwkWLb-9THUpObUzx17u-144" connectable="0" vertex="1">
          <mxGeometry x="-0.1871" y="-1" relative="1" as="geometry">
            <mxPoint as="offset" />
          </mxGeometry>
        </mxCell>
        <mxCell id="RwkWLb-9THUpObUzx17u-146" value="booking_list" style="shape=table;startSize=30;container=1;collapsible=1;childLayout=tableLayout;fixedRows=1;rowLines=0;fontStyle=1;align=center;resizeLast=1;" parent="1" vertex="1">
          <mxGeometry x="-990" y="410" width="250" height="280" as="geometry">
            <mxRectangle x="-990" y="410" width="100" height="30" as="alternateBounds" />
          </mxGeometry>
        </mxCell>
        <mxCell id="RwkWLb-9THUpObUzx17u-147" value="" style="shape=partialRectangle;collapsible=0;dropTarget=0;pointerEvents=0;fillColor=none;points=[[0,0.5],[1,0.5]];portConstraint=eastwest;top=0;left=0;right=0;bottom=1;" parent="RwkWLb-9THUpObUzx17u-146" vertex="1">
          <mxGeometry y="30" width="250" height="30" as="geometry" />
        </mxCell>
        <mxCell id="RwkWLb-9THUpObUzx17u-148" value="PK" style="shape=partialRectangle;overflow=hidden;connectable=0;fillColor=none;top=0;left=0;bottom=0;right=0;fontStyle=1;" parent="RwkWLb-9THUpObUzx17u-147" vertex="1">
          <mxGeometry width="30" height="30" as="geometry">
            <mxRectangle width="30" height="30" as="alternateBounds" />
          </mxGeometry>
        </mxCell>
        <mxCell id="RwkWLb-9THUpObUzx17u-149" value="booking_list_id" style="shape=partialRectangle;overflow=hidden;connectable=0;fillColor=none;top=0;left=0;bottom=0;right=0;align=left;spacingLeft=6;fontStyle=5;" parent="RwkWLb-9THUpObUzx17u-147" vertex="1">
          <mxGeometry x="30" width="140" height="30" as="geometry">
            <mxRectangle width="140" height="30" as="alternateBounds" />
          </mxGeometry>
        </mxCell>
        <mxCell id="W7TN4EEouALZe4q9rsRO-46" value="int" style="shape=partialRectangle;overflow=hidden;connectable=0;fillColor=none;top=0;left=0;bottom=0;right=0;align=left;spacingLeft=6;fontStyle=5;" parent="RwkWLb-9THUpObUzx17u-147" vertex="1">
          <mxGeometry x="170" width="80" height="30" as="geometry">
            <mxRectangle width="80" height="30" as="alternateBounds" />
          </mxGeometry>
        </mxCell>
        <mxCell id="RwkWLb-9THUpObUzx17u-150" value="" style="shape=partialRectangle;collapsible=0;dropTarget=0;pointerEvents=0;fillColor=none;points=[[0,0.5],[1,0.5]];portConstraint=eastwest;top=0;left=0;right=0;bottom=0;" parent="RwkWLb-9THUpObUzx17u-146" vertex="1">
          <mxGeometry y="60" width="250" height="30" as="geometry" />
        </mxCell>
        <mxCell id="RwkWLb-9THUpObUzx17u-151" value="" style="shape=partialRectangle;overflow=hidden;connectable=0;fillColor=none;top=0;left=0;bottom=0;right=0;" parent="RwkWLb-9THUpObUzx17u-150" vertex="1">
          <mxGeometry width="30" height="30" as="geometry">
            <mxRectangle width="30" height="30" as="alternateBounds" />
          </mxGeometry>
        </mxCell>
        <mxCell id="RwkWLb-9THUpObUzx17u-152" value="booking_status" style="shape=partialRectangle;overflow=hidden;connectable=0;fillColor=none;top=0;left=0;bottom=0;right=0;align=left;spacingLeft=6;" parent="RwkWLb-9THUpObUzx17u-150" vertex="1">
          <mxGeometry x="30" width="140" height="30" as="geometry">
            <mxRectangle width="140" height="30" as="alternateBounds" />
          </mxGeometry>
        </mxCell>
        <mxCell id="W7TN4EEouALZe4q9rsRO-47" value="varchar(100)" style="shape=partialRectangle;overflow=hidden;connectable=0;fillColor=none;top=0;left=0;bottom=0;right=0;align=left;spacingLeft=6;" parent="RwkWLb-9THUpObUzx17u-150" vertex="1">
          <mxGeometry x="170" width="80" height="30" as="geometry">
            <mxRectangle width="80" height="30" as="alternateBounds" />
          </mxGeometry>
        </mxCell>
        <mxCell id="RwkWLb-9THUpObUzx17u-156" value="" style="shape=partialRectangle;collapsible=0;dropTarget=0;pointerEvents=0;fillColor=none;points=[[0,0.5],[1,0.5]];portConstraint=eastwest;top=0;left=0;right=0;bottom=0;" parent="RwkWLb-9THUpObUzx17u-146" vertex="1">
          <mxGeometry y="90" width="250" height="30" as="geometry" />
        </mxCell>
        <mxCell id="RwkWLb-9THUpObUzx17u-157" value="FK" style="shape=partialRectangle;overflow=hidden;connectable=0;fillColor=none;top=0;left=0;bottom=0;right=0;" parent="RwkWLb-9THUpObUzx17u-156" vertex="1">
          <mxGeometry width="30" height="30" as="geometry">
            <mxRectangle width="30" height="30" as="alternateBounds" />
          </mxGeometry>
        </mxCell>
        <mxCell id="RwkWLb-9THUpObUzx17u-158" value="event_id" style="shape=partialRectangle;overflow=hidden;connectable=0;fillColor=none;top=0;left=0;bottom=0;right=0;align=left;spacingLeft=6;" parent="RwkWLb-9THUpObUzx17u-156" vertex="1">
          <mxGeometry x="30" width="140" height="30" as="geometry">
            <mxRectangle width="140" height="30" as="alternateBounds" />
          </mxGeometry>
        </mxCell>
        <mxCell id="W7TN4EEouALZe4q9rsRO-48" value="int" style="shape=partialRectangle;overflow=hidden;connectable=0;fillColor=none;top=0;left=0;bottom=0;right=0;align=left;spacingLeft=6;" parent="RwkWLb-9THUpObUzx17u-156" vertex="1">
          <mxGeometry x="170" width="80" height="30" as="geometry">
            <mxRectangle width="80" height="30" as="alternateBounds" />
          </mxGeometry>
        </mxCell>
        <mxCell id="RwkWLb-9THUpObUzx17u-153" value="" style="shape=partialRectangle;collapsible=0;dropTarget=0;pointerEvents=0;fillColor=none;points=[[0,0.5],[1,0.5]];portConstraint=eastwest;top=0;left=0;right=0;bottom=0;" parent="RwkWLb-9THUpObUzx17u-146" vertex="1">
          <mxGeometry y="120" width="250" height="30" as="geometry" />
        </mxCell>
        <mxCell id="RwkWLb-9THUpObUzx17u-154" value="FK" style="shape=partialRectangle;overflow=hidden;connectable=0;fillColor=none;top=0;left=0;bottom=0;right=0;" parent="RwkWLb-9THUpObUzx17u-153" vertex="1">
          <mxGeometry width="30" height="30" as="geometry">
            <mxRectangle width="30" height="30" as="alternateBounds" />
          </mxGeometry>
        </mxCell>
        <mxCell id="RwkWLb-9THUpObUzx17u-155" value="meeting_room_id" style="shape=partialRectangle;overflow=hidden;connectable=0;fillColor=none;top=0;left=0;bottom=0;right=0;align=left;spacingLeft=6;" parent="RwkWLb-9THUpObUzx17u-153" vertex="1">
          <mxGeometry x="30" width="140" height="30" as="geometry">
            <mxRectangle width="140" height="30" as="alternateBounds" />
          </mxGeometry>
        </mxCell>
        <mxCell id="W7TN4EEouALZe4q9rsRO-49" value="int" style="shape=partialRectangle;overflow=hidden;connectable=0;fillColor=none;top=0;left=0;bottom=0;right=0;align=left;spacingLeft=6;" parent="RwkWLb-9THUpObUzx17u-153" vertex="1">
          <mxGeometry x="170" width="80" height="30" as="geometry">
            <mxRectangle width="80" height="30" as="alternateBounds" />
          </mxGeometry>
        </mxCell>
        <mxCell id="8KLkgvAYbc9Z4wnAoRf4-1" value="" style="shape=partialRectangle;collapsible=0;dropTarget=0;pointerEvents=0;fillColor=none;points=[[0,0.5],[1,0.5]];portConstraint=eastwest;top=0;left=0;right=0;bottom=0;" parent="RwkWLb-9THUpObUzx17u-146" vertex="1">
          <mxGeometry y="150" width="250" height="30" as="geometry" />
        </mxCell>
        <mxCell id="8KLkgvAYbc9Z4wnAoRf4-2" value="FK" style="shape=partialRectangle;overflow=hidden;connectable=0;fillColor=none;top=0;left=0;bottom=0;right=0;" parent="8KLkgvAYbc9Z4wnAoRf4-1" vertex="1">
          <mxGeometry width="30" height="30" as="geometry">
            <mxRectangle width="30" height="30" as="alternateBounds" />
          </mxGeometry>
        </mxCell>
        <mxCell id="8KLkgvAYbc9Z4wnAoRf4-3" value="hotel_id" style="shape=partialRectangle;overflow=hidden;connectable=0;fillColor=none;top=0;left=0;bottom=0;right=0;align=left;spacingLeft=6;" parent="8KLkgvAYbc9Z4wnAoRf4-1" vertex="1">
          <mxGeometry x="30" width="140" height="30" as="geometry">
            <mxRectangle width="140" height="30" as="alternateBounds" />
          </mxGeometry>
        </mxCell>
        <mxCell id="W7TN4EEouALZe4q9rsRO-50" value="int" style="shape=partialRectangle;overflow=hidden;connectable=0;fillColor=none;top=0;left=0;bottom=0;right=0;align=left;spacingLeft=6;" parent="8KLkgvAYbc9Z4wnAoRf4-1" vertex="1">
          <mxGeometry x="170" width="80" height="30" as="geometry">
            <mxRectangle width="80" height="30" as="alternateBounds" />
          </mxGeometry>
        </mxCell>
        <mxCell id="W7TN4EEouALZe4q9rsRO-18" value="" style="shape=partialRectangle;collapsible=0;dropTarget=0;pointerEvents=0;fillColor=none;points=[[0,0.5],[1,0.5]];portConstraint=eastwest;top=0;left=0;right=0;bottom=0;" parent="RwkWLb-9THUpObUzx17u-146" vertex="1">
          <mxGeometry y="180" width="250" height="30" as="geometry" />
        </mxCell>
        <mxCell id="W7TN4EEouALZe4q9rsRO-19" value="FK" style="shape=partialRectangle;overflow=hidden;connectable=0;fillColor=none;top=0;left=0;bottom=0;right=0;" parent="W7TN4EEouALZe4q9rsRO-18" vertex="1">
          <mxGeometry width="30" height="30" as="geometry">
            <mxRectangle width="30" height="30" as="alternateBounds" />
          </mxGeometry>
        </mxCell>
        <mxCell id="W7TN4EEouALZe4q9rsRO-20" value="user_id" style="shape=partialRectangle;overflow=hidden;connectable=0;fillColor=none;top=0;left=0;bottom=0;right=0;align=left;spacingLeft=6;" parent="W7TN4EEouALZe4q9rsRO-18" vertex="1">
          <mxGeometry x="30" width="140" height="30" as="geometry">
            <mxRectangle width="140" height="30" as="alternateBounds" />
          </mxGeometry>
        </mxCell>
        <mxCell id="W7TN4EEouALZe4q9rsRO-51" value="int" style="shape=partialRectangle;overflow=hidden;connectable=0;fillColor=none;top=0;left=0;bottom=0;right=0;align=left;spacingLeft=6;" parent="W7TN4EEouALZe4q9rsRO-18" vertex="1">
          <mxGeometry x="170" width="80" height="30" as="geometry">
            <mxRectangle width="80" height="30" as="alternateBounds" />
          </mxGeometry>
        </mxCell>
        <mxCell id="5-i2yzMDkz8oxT6V_A9C-10" value="" style="shape=partialRectangle;collapsible=0;dropTarget=0;pointerEvents=0;fillColor=none;points=[[0,0.5],[1,0.5]];portConstraint=eastwest;top=0;left=0;right=0;bottom=0;" parent="RwkWLb-9THUpObUzx17u-146" vertex="1">
          <mxGeometry y="210" width="250" height="30" as="geometry" />
        </mxCell>
        <mxCell id="5-i2yzMDkz8oxT6V_A9C-11" value="" style="shape=partialRectangle;overflow=hidden;connectable=0;fillColor=none;top=0;left=0;bottom=0;right=0;" parent="5-i2yzMDkz8oxT6V_A9C-10" vertex="1">
          <mxGeometry width="30" height="30" as="geometry">
            <mxRectangle width="30" height="30" as="alternateBounds" />
          </mxGeometry>
        </mxCell>
        <mxCell id="5-i2yzMDkz8oxT6V_A9C-12" value="created_at" style="shape=partialRectangle;overflow=hidden;connectable=0;fillColor=none;top=0;left=0;bottom=0;right=0;align=left;spacingLeft=6;" parent="5-i2yzMDkz8oxT6V_A9C-10" vertex="1">
          <mxGeometry x="30" width="140" height="30" as="geometry">
            <mxRectangle width="140" height="30" as="alternateBounds" />
          </mxGeometry>
        </mxCell>
        <mxCell id="5-i2yzMDkz8oxT6V_A9C-13" value="timestamp" style="shape=partialRectangle;overflow=hidden;connectable=0;fillColor=#FFCCCC;top=0;left=0;bottom=0;right=0;align=left;spacingLeft=6;" parent="5-i2yzMDkz8oxT6V_A9C-10" vertex="1">
          <mxGeometry x="170" width="80" height="30" as="geometry">
            <mxRectangle width="80" height="30" as="alternateBounds" />
          </mxGeometry>
        </mxCell>
        <mxCell id="5-i2yzMDkz8oxT6V_A9C-14" value="" style="shape=partialRectangle;collapsible=0;dropTarget=0;pointerEvents=0;fillColor=none;points=[[0,0.5],[1,0.5]];portConstraint=eastwest;top=0;left=0;right=0;bottom=0;" parent="RwkWLb-9THUpObUzx17u-146" vertex="1">
          <mxGeometry y="240" width="250" height="30" as="geometry" />
        </mxCell>
        <mxCell id="5-i2yzMDkz8oxT6V_A9C-15" value="" style="shape=partialRectangle;overflow=hidden;connectable=0;fillColor=none;top=0;left=0;bottom=0;right=0;" parent="5-i2yzMDkz8oxT6V_A9C-14" vertex="1">
          <mxGeometry width="30" height="30" as="geometry">
            <mxRectangle width="30" height="30" as="alternateBounds" />
          </mxGeometry>
        </mxCell>
        <mxCell id="5-i2yzMDkz8oxT6V_A9C-16" value="updated_at" style="shape=partialRectangle;overflow=hidden;connectable=0;fillColor=none;top=0;left=0;bottom=0;right=0;align=left;spacingLeft=6;" parent="5-i2yzMDkz8oxT6V_A9C-14" vertex="1">
          <mxGeometry x="30" width="140" height="30" as="geometry">
            <mxRectangle width="140" height="30" as="alternateBounds" />
          </mxGeometry>
        </mxCell>
        <mxCell id="5-i2yzMDkz8oxT6V_A9C-17" value="timestamp" style="shape=partialRectangle;overflow=hidden;connectable=0;fillColor=#FFCCCC;top=0;left=0;bottom=0;right=0;align=left;spacingLeft=6;" parent="5-i2yzMDkz8oxT6V_A9C-14" vertex="1">
          <mxGeometry x="170" width="80" height="30" as="geometry">
            <mxRectangle width="80" height="30" as="alternateBounds" />
          </mxGeometry>
        </mxCell>
        <mxCell id="RwkWLb-9THUpObUzx17u-160" value="" style="endArrow=diamondThin;endFill=0;endSize=24;html=1;rounded=0;exitX=1;exitY=0.5;exitDx=0;exitDy=0;entryX=0;entryY=0.5;entryDx=0;entryDy=0;edgeStyle=orthogonalEdgeStyle;" parent="1" source="4E7Y2Z4R7kvPLD5SU0ed-28" target="W7TN4EEouALZe4q9rsRO-18" edge="1">
          <mxGeometry width="160" relative="1" as="geometry">
            <mxPoint x="-891.1999999999998" y="385" as="sourcePoint" />
            <mxPoint x="-611.3299999999999" y="565" as="targetPoint" />
            <Array as="points">
              <mxPoint x="-1305" y="170" />
              <mxPoint x="-1148" y="170" />
              <mxPoint x="-1148" y="605" />
            </Array>
          </mxGeometry>
        </mxCell>
        <mxCell id="RwkWLb-9THUpObUzx17u-163" value="pic" style="shape=table;startSize=30;container=1;collapsible=1;childLayout=tableLayout;fixedRows=1;rowLines=0;fontStyle=1;align=center;resizeLast=1;" parent="1" vertex="1">
          <mxGeometry x="-890" y="740" width="260" height="250" as="geometry">
            <mxRectangle x="860" y="290" width="100" height="30" as="alternateBounds" />
          </mxGeometry>
        </mxCell>
        <mxCell id="RwkWLb-9THUpObUzx17u-164" value="" style="shape=partialRectangle;collapsible=0;dropTarget=0;pointerEvents=0;fillColor=none;points=[[0,0.5],[1,0.5]];portConstraint=eastwest;top=0;left=0;right=0;bottom=1;" parent="RwkWLb-9THUpObUzx17u-163" vertex="1">
          <mxGeometry y="30" width="260" height="30" as="geometry" />
        </mxCell>
        <mxCell id="RwkWLb-9THUpObUzx17u-165" value="PK" style="shape=partialRectangle;overflow=hidden;connectable=0;fillColor=none;top=0;left=0;bottom=0;right=0;fontStyle=1;" parent="RwkWLb-9THUpObUzx17u-164" vertex="1">
          <mxGeometry width="30" height="30" as="geometry">
            <mxRectangle width="30" height="30" as="alternateBounds" />
          </mxGeometry>
        </mxCell>
        <mxCell id="RwkWLb-9THUpObUzx17u-166" value="pic_id" style="shape=partialRectangle;overflow=hidden;connectable=0;fillColor=none;top=0;left=0;bottom=0;right=0;align=left;spacingLeft=6;fontStyle=5;" parent="RwkWLb-9THUpObUzx17u-164" vertex="1">
          <mxGeometry x="30" width="80" height="30" as="geometry">
            <mxRectangle width="80" height="30" as="alternateBounds" />
          </mxGeometry>
        </mxCell>
        <mxCell id="W7TN4EEouALZe4q9rsRO-114" value="int" style="shape=partialRectangle;overflow=hidden;connectable=0;fillColor=none;top=0;left=0;bottom=0;right=0;align=left;spacingLeft=6;fontStyle=5;" parent="RwkWLb-9THUpObUzx17u-164" vertex="1">
          <mxGeometry x="110" width="150" height="30" as="geometry">
            <mxRectangle width="150" height="30" as="alternateBounds" />
          </mxGeometry>
        </mxCell>
        <mxCell id="RwkWLb-9THUpObUzx17u-167" value="" style="shape=partialRectangle;collapsible=0;dropTarget=0;pointerEvents=0;fillColor=none;points=[[0,0.5],[1,0.5]];portConstraint=eastwest;top=0;left=0;right=0;bottom=0;" parent="RwkWLb-9THUpObUzx17u-163" vertex="1">
          <mxGeometry y="60" width="260" height="30" as="geometry" />
        </mxCell>
        <mxCell id="RwkWLb-9THUpObUzx17u-168" value="" style="shape=partialRectangle;overflow=hidden;connectable=0;fillColor=none;top=0;left=0;bottom=0;right=0;" parent="RwkWLb-9THUpObUzx17u-167" vertex="1">
          <mxGeometry width="30" height="30" as="geometry">
            <mxRectangle width="30" height="30" as="alternateBounds" />
          </mxGeometry>
        </mxCell>
        <mxCell id="RwkWLb-9THUpObUzx17u-169" value="pic_contact" style="shape=partialRectangle;overflow=hidden;connectable=0;fillColor=none;top=0;left=0;bottom=0;right=0;align=left;spacingLeft=6;" parent="RwkWLb-9THUpObUzx17u-167" vertex="1">
          <mxGeometry x="30" width="80" height="30" as="geometry">
            <mxRectangle width="80" height="30" as="alternateBounds" />
          </mxGeometry>
        </mxCell>
        <mxCell id="W7TN4EEouALZe4q9rsRO-115" value="varchar(100)" style="shape=partialRectangle;overflow=hidden;connectable=0;fillColor=none;top=0;left=0;bottom=0;right=0;align=left;spacingLeft=6;" parent="RwkWLb-9THUpObUzx17u-167" vertex="1">
          <mxGeometry x="110" width="150" height="30" as="geometry">
            <mxRectangle width="150" height="30" as="alternateBounds" />
          </mxGeometry>
        </mxCell>
        <mxCell id="RwkWLb-9THUpObUzx17u-170" value="" style="shape=partialRectangle;collapsible=0;dropTarget=0;pointerEvents=0;fillColor=none;points=[[0,0.5],[1,0.5]];portConstraint=eastwest;top=0;left=0;right=0;bottom=0;" parent="RwkWLb-9THUpObUzx17u-163" vertex="1">
          <mxGeometry y="90" width="260" height="30" as="geometry" />
        </mxCell>
        <mxCell id="RwkWLb-9THUpObUzx17u-171" value="" style="shape=partialRectangle;overflow=hidden;connectable=0;fillColor=none;top=0;left=0;bottom=0;right=0;" parent="RwkWLb-9THUpObUzx17u-170" vertex="1">
          <mxGeometry width="30" height="30" as="geometry">
            <mxRectangle width="30" height="30" as="alternateBounds" />
          </mxGeometry>
        </mxCell>
        <mxCell id="RwkWLb-9THUpObUzx17u-172" value="pic_name" style="shape=partialRectangle;overflow=hidden;connectable=0;fillColor=none;top=0;left=0;bottom=0;right=0;align=left;spacingLeft=6;" parent="RwkWLb-9THUpObUzx17u-170" vertex="1">
          <mxGeometry x="30" width="80" height="30" as="geometry">
            <mxRectangle width="80" height="30" as="alternateBounds" />
          </mxGeometry>
        </mxCell>
        <mxCell id="W7TN4EEouALZe4q9rsRO-116" value="varchar(100)" style="shape=partialRectangle;overflow=hidden;connectable=0;fillColor=none;top=0;left=0;bottom=0;right=0;align=left;spacingLeft=6;" parent="RwkWLb-9THUpObUzx17u-170" vertex="1">
          <mxGeometry x="110" width="150" height="30" as="geometry">
            <mxRectangle width="150" height="30" as="alternateBounds" />
          </mxGeometry>
        </mxCell>
        <mxCell id="RwkWLb-9THUpObUzx17u-173" value="" style="shape=partialRectangle;collapsible=0;dropTarget=0;pointerEvents=0;fillColor=none;points=[[0,0.5],[1,0.5]];portConstraint=eastwest;top=0;left=0;right=0;bottom=0;" parent="RwkWLb-9THUpObUzx17u-163" vertex="1">
          <mxGeometry y="120" width="260" height="30" as="geometry" />
        </mxCell>
        <mxCell id="RwkWLb-9THUpObUzx17u-174" value="FK" style="shape=partialRectangle;overflow=hidden;connectable=0;fillColor=none;top=0;left=0;bottom=0;right=0;" parent="RwkWLb-9THUpObUzx17u-173" vertex="1">
          <mxGeometry width="30" height="30" as="geometry">
            <mxRectangle width="30" height="30" as="alternateBounds" />
          </mxGeometry>
        </mxCell>
        <mxCell id="RwkWLb-9THUpObUzx17u-175" value="invoice_id" style="shape=partialRectangle;overflow=hidden;connectable=0;fillColor=none;top=0;left=0;bottom=0;right=0;align=left;spacingLeft=6;" parent="RwkWLb-9THUpObUzx17u-173" vertex="1">
          <mxGeometry x="30" width="80" height="30" as="geometry">
            <mxRectangle width="80" height="30" as="alternateBounds" />
          </mxGeometry>
        </mxCell>
        <mxCell id="W7TN4EEouALZe4q9rsRO-117" value="int" style="shape=partialRectangle;overflow=hidden;connectable=0;fillColor=none;top=0;left=0;bottom=0;right=0;align=left;spacingLeft=6;" parent="RwkWLb-9THUpObUzx17u-173" vertex="1">
          <mxGeometry x="110" width="150" height="30" as="geometry">
            <mxRectangle width="150" height="30" as="alternateBounds" />
          </mxGeometry>
        </mxCell>
        <mxCell id="RwkWLb-9THUpObUzx17u-176" value="" style="shape=partialRectangle;collapsible=0;dropTarget=0;pointerEvents=0;fillColor=none;points=[[0,0.5],[1,0.5]];portConstraint=eastwest;top=0;left=0;right=0;bottom=0;" parent="RwkWLb-9THUpObUzx17u-163" vertex="1">
          <mxGeometry y="150" width="260" height="30" as="geometry" />
        </mxCell>
        <mxCell id="RwkWLb-9THUpObUzx17u-177" value="FK" style="shape=partialRectangle;overflow=hidden;connectable=0;fillColor=none;top=0;left=0;bottom=0;right=0;" parent="RwkWLb-9THUpObUzx17u-176" vertex="1">
          <mxGeometry width="30" height="30" as="geometry">
            <mxRectangle width="30" height="30" as="alternateBounds" />
          </mxGeometry>
        </mxCell>
        <mxCell id="RwkWLb-9THUpObUzx17u-178" value="discount_id" style="shape=partialRectangle;overflow=hidden;connectable=0;fillColor=none;top=0;left=0;bottom=0;right=0;align=left;spacingLeft=6;" parent="RwkWLb-9THUpObUzx17u-176" vertex="1">
          <mxGeometry x="30" width="80" height="30" as="geometry">
            <mxRectangle width="80" height="30" as="alternateBounds" />
          </mxGeometry>
        </mxCell>
        <mxCell id="W7TN4EEouALZe4q9rsRO-118" value="int" style="shape=partialRectangle;overflow=hidden;connectable=0;fillColor=none;top=0;left=0;bottom=0;right=0;align=left;spacingLeft=6;" parent="RwkWLb-9THUpObUzx17u-176" vertex="1">
          <mxGeometry x="110" width="150" height="30" as="geometry">
            <mxRectangle width="150" height="30" as="alternateBounds" />
          </mxGeometry>
        </mxCell>
        <mxCell id="5-i2yzMDkz8oxT6V_A9C-18" value="" style="shape=partialRectangle;collapsible=0;dropTarget=0;pointerEvents=0;fillColor=none;points=[[0,0.5],[1,0.5]];portConstraint=eastwest;top=0;left=0;right=0;bottom=0;" parent="RwkWLb-9THUpObUzx17u-163" vertex="1">
          <mxGeometry y="180" width="260" height="30" as="geometry" />
        </mxCell>
        <mxCell id="5-i2yzMDkz8oxT6V_A9C-19" value="" style="shape=partialRectangle;overflow=hidden;connectable=0;fillColor=none;top=0;left=0;bottom=0;right=0;" parent="5-i2yzMDkz8oxT6V_A9C-18" vertex="1">
          <mxGeometry width="30" height="30" as="geometry">
            <mxRectangle width="30" height="30" as="alternateBounds" />
          </mxGeometry>
        </mxCell>
        <mxCell id="5-i2yzMDkz8oxT6V_A9C-20" value="created_at" style="shape=partialRectangle;overflow=hidden;connectable=0;fillColor=none;top=0;left=0;bottom=0;right=0;align=left;spacingLeft=6;" parent="5-i2yzMDkz8oxT6V_A9C-18" vertex="1">
          <mxGeometry x="30" width="80" height="30" as="geometry">
            <mxRectangle width="80" height="30" as="alternateBounds" />
          </mxGeometry>
        </mxCell>
        <mxCell id="5-i2yzMDkz8oxT6V_A9C-21" value="timestamp" style="shape=partialRectangle;overflow=hidden;connectable=0;fillColor=#FFCCCC;top=0;left=0;bottom=0;right=0;align=left;spacingLeft=6;" parent="5-i2yzMDkz8oxT6V_A9C-18" vertex="1">
          <mxGeometry x="110" width="150" height="30" as="geometry">
            <mxRectangle width="150" height="30" as="alternateBounds" />
          </mxGeometry>
        </mxCell>
        <mxCell id="5-i2yzMDkz8oxT6V_A9C-22" value="" style="shape=partialRectangle;collapsible=0;dropTarget=0;pointerEvents=0;fillColor=none;points=[[0,0.5],[1,0.5]];portConstraint=eastwest;top=0;left=0;right=0;bottom=0;" parent="RwkWLb-9THUpObUzx17u-163" vertex="1">
          <mxGeometry y="210" width="260" height="30" as="geometry" />
        </mxCell>
        <mxCell id="5-i2yzMDkz8oxT6V_A9C-23" value="" style="shape=partialRectangle;overflow=hidden;connectable=0;fillColor=none;top=0;left=0;bottom=0;right=0;" parent="5-i2yzMDkz8oxT6V_A9C-22" vertex="1">
          <mxGeometry width="30" height="30" as="geometry">
            <mxRectangle width="30" height="30" as="alternateBounds" />
          </mxGeometry>
        </mxCell>
        <mxCell id="5-i2yzMDkz8oxT6V_A9C-24" value="updated_at" style="shape=partialRectangle;overflow=hidden;connectable=0;fillColor=none;top=0;left=0;bottom=0;right=0;align=left;spacingLeft=6;" parent="5-i2yzMDkz8oxT6V_A9C-22" vertex="1">
          <mxGeometry x="30" width="80" height="30" as="geometry">
            <mxRectangle width="80" height="30" as="alternateBounds" />
          </mxGeometry>
        </mxCell>
        <mxCell id="5-i2yzMDkz8oxT6V_A9C-25" value="timestamp" style="shape=partialRectangle;overflow=hidden;connectable=0;fillColor=#FFCCCC;top=0;left=0;bottom=0;right=0;align=left;spacingLeft=6;" parent="5-i2yzMDkz8oxT6V_A9C-22" vertex="1">
          <mxGeometry x="110" width="150" height="30" as="geometry">
            <mxRectangle width="150" height="30" as="alternateBounds" />
          </mxGeometry>
        </mxCell>
        <mxCell id="RwkWLb-9THUpObUzx17u-198" value="1" style="text;html=1;align=center;verticalAlign=middle;resizable=0;points=[];autosize=1;strokeColor=none;fillColor=none;" parent="1" vertex="1">
          <mxGeometry x="-1305" y="110" width="30" height="30" as="geometry" />
        </mxCell>
        <mxCell id="RwkWLb-9THUpObUzx17u-212" value="" style="endArrow=diamondThin;endFill=1;endSize=24;html=1;rounded=0;exitX=0;exitY=0.5;exitDx=0;exitDy=0;edgeStyle=orthogonalEdgeStyle;entryX=1;entryY=0.5;entryDx=0;entryDy=0;" parent="1" source="RwkWLb-9THUpObUzx17u-132" target="RwkWLb-9THUpObUzx17u-164" edge="1">
          <mxGeometry width="160" relative="1" as="geometry">
            <mxPoint x="-430" y="800" as="sourcePoint" />
            <mxPoint x="-630" y="780" as="targetPoint" />
            <Array as="points">
              <mxPoint x="-495" y="755" />
              <mxPoint x="-495" y="785" />
            </Array>
          </mxGeometry>
        </mxCell>
        <mxCell id="RwkWLb-9THUpObUzx17u-213" value="Have" style="edgeLabel;html=1;align=center;verticalAlign=middle;resizable=0;points=[];" parent="RwkWLb-9THUpObUzx17u-212" connectable="0" vertex="1">
          <mxGeometry x="-0.1871" y="-1" relative="1" as="geometry">
            <mxPoint as="offset" />
          </mxGeometry>
        </mxCell>
        <mxCell id="V0L4xFkuPlVvDaO5OoCF-19" value="invoice" style="shape=table;startSize=30;container=1;collapsible=1;childLayout=tableLayout;fixedRows=1;rowLines=0;fontStyle=1;align=center;resizeLast=1;" parent="1" vertex="1">
          <mxGeometry x="-1790" y="710" width="270" height="370" as="geometry">
            <mxRectangle x="860" y="290" width="100" height="30" as="alternateBounds" />
          </mxGeometry>
        </mxCell>
        <mxCell id="V0L4xFkuPlVvDaO5OoCF-20" value="" style="shape=partialRectangle;collapsible=0;dropTarget=0;pointerEvents=0;fillColor=none;points=[[0,0.5],[1,0.5]];portConstraint=eastwest;top=0;left=0;right=0;bottom=1;" parent="V0L4xFkuPlVvDaO5OoCF-19" vertex="1">
          <mxGeometry y="30" width="270" height="30" as="geometry" />
        </mxCell>
        <mxCell id="V0L4xFkuPlVvDaO5OoCF-21" value="PK" style="shape=partialRectangle;overflow=hidden;connectable=0;fillColor=none;top=0;left=0;bottom=0;right=0;fontStyle=1;" parent="V0L4xFkuPlVvDaO5OoCF-20" vertex="1">
          <mxGeometry width="30" height="30" as="geometry">
            <mxRectangle width="30" height="30" as="alternateBounds" />
          </mxGeometry>
        </mxCell>
        <mxCell id="V0L4xFkuPlVvDaO5OoCF-22" value="invoice_id" style="shape=partialRectangle;overflow=hidden;connectable=0;fillColor=none;top=0;left=0;bottom=0;right=0;align=left;spacingLeft=6;fontStyle=5;" parent="V0L4xFkuPlVvDaO5OoCF-20" vertex="1">
          <mxGeometry x="30" width="110" height="30" as="geometry">
            <mxRectangle width="110" height="30" as="alternateBounds" />
          </mxGeometry>
        </mxCell>
        <mxCell id="W7TN4EEouALZe4q9rsRO-120" value="int" style="shape=partialRectangle;overflow=hidden;connectable=0;fillColor=none;top=0;left=0;bottom=0;right=0;align=left;spacingLeft=6;fontStyle=5;" parent="V0L4xFkuPlVvDaO5OoCF-20" vertex="1">
          <mxGeometry x="140" width="130" height="30" as="geometry">
            <mxRectangle width="130" height="30" as="alternateBounds" />
          </mxGeometry>
        </mxCell>
        <mxCell id="W7TN4EEouALZe4q9rsRO-7" value="" style="shape=partialRectangle;collapsible=0;dropTarget=0;pointerEvents=0;fillColor=none;points=[[0,0.5],[1,0.5]];portConstraint=eastwest;top=0;left=0;right=0;bottom=0;" parent="V0L4xFkuPlVvDaO5OoCF-19" vertex="1">
          <mxGeometry y="60" width="270" height="30" as="geometry" />
        </mxCell>
        <mxCell id="W7TN4EEouALZe4q9rsRO-8" value="" style="shape=partialRectangle;overflow=hidden;connectable=0;fillColor=none;top=0;left=0;bottom=0;right=0;" parent="W7TN4EEouALZe4q9rsRO-7" vertex="1">
          <mxGeometry width="30" height="30" as="geometry">
            <mxRectangle width="30" height="30" as="alternateBounds" />
          </mxGeometry>
        </mxCell>
        <mxCell id="W7TN4EEouALZe4q9rsRO-9" value="invoice_date" style="shape=partialRectangle;overflow=hidden;connectable=0;fillColor=none;top=0;left=0;bottom=0;right=0;align=left;spacingLeft=6;" parent="W7TN4EEouALZe4q9rsRO-7" vertex="1">
          <mxGeometry x="30" width="110" height="30" as="geometry">
            <mxRectangle width="110" height="30" as="alternateBounds" />
          </mxGeometry>
        </mxCell>
        <mxCell id="W7TN4EEouALZe4q9rsRO-121" value="date" style="shape=partialRectangle;overflow=hidden;connectable=0;fillColor=none;top=0;left=0;bottom=0;right=0;align=left;spacingLeft=6;" parent="W7TN4EEouALZe4q9rsRO-7" vertex="1">
          <mxGeometry x="140" width="130" height="30" as="geometry">
            <mxRectangle width="130" height="30" as="alternateBounds" />
          </mxGeometry>
        </mxCell>
        <mxCell id="V0L4xFkuPlVvDaO5OoCF-23" value="" style="shape=partialRectangle;collapsible=0;dropTarget=0;pointerEvents=0;fillColor=none;points=[[0,0.5],[1,0.5]];portConstraint=eastwest;top=0;left=0;right=0;bottom=0;" parent="V0L4xFkuPlVvDaO5OoCF-19" vertex="1">
          <mxGeometry y="90" width="270" height="30" as="geometry" />
        </mxCell>
        <mxCell id="V0L4xFkuPlVvDaO5OoCF-24" value="FK" style="shape=partialRectangle;overflow=hidden;connectable=0;fillColor=none;top=0;left=0;bottom=0;right=0;" parent="V0L4xFkuPlVvDaO5OoCF-23" vertex="1">
          <mxGeometry width="30" height="30" as="geometry">
            <mxRectangle width="30" height="30" as="alternateBounds" />
          </mxGeometry>
        </mxCell>
        <mxCell id="V0L4xFkuPlVvDaO5OoCF-25" value="booking_list_id" style="shape=partialRectangle;overflow=hidden;connectable=0;fillColor=none;top=0;left=0;bottom=0;right=0;align=left;spacingLeft=6;" parent="V0L4xFkuPlVvDaO5OoCF-23" vertex="1">
          <mxGeometry x="30" width="110" height="30" as="geometry">
            <mxRectangle width="110" height="30" as="alternateBounds" />
          </mxGeometry>
        </mxCell>
        <mxCell id="W7TN4EEouALZe4q9rsRO-122" value="int" style="shape=partialRectangle;overflow=hidden;connectable=0;fillColor=none;top=0;left=0;bottom=0;right=0;align=left;spacingLeft=6;" parent="V0L4xFkuPlVvDaO5OoCF-23" vertex="1">
          <mxGeometry x="140" width="130" height="30" as="geometry">
            <mxRectangle width="130" height="30" as="alternateBounds" />
          </mxGeometry>
        </mxCell>
        <mxCell id="V0L4xFkuPlVvDaO5OoCF-26" value="" style="shape=partialRectangle;collapsible=0;dropTarget=0;pointerEvents=0;fillColor=none;points=[[0,0.5],[1,0.5]];portConstraint=eastwest;top=0;left=0;right=0;bottom=0;" parent="V0L4xFkuPlVvDaO5OoCF-19" vertex="1">
          <mxGeometry y="120" width="270" height="30" as="geometry" />
        </mxCell>
        <mxCell id="V0L4xFkuPlVvDaO5OoCF-27" value="FK" style="shape=partialRectangle;overflow=hidden;connectable=0;fillColor=none;top=0;left=0;bottom=0;right=0;" parent="V0L4xFkuPlVvDaO5OoCF-26" vertex="1">
          <mxGeometry width="30" height="30" as="geometry">
            <mxRectangle width="30" height="30" as="alternateBounds" />
          </mxGeometry>
        </mxCell>
        <mxCell id="V0L4xFkuPlVvDaO5OoCF-28" value="pic_id" style="shape=partialRectangle;overflow=hidden;connectable=0;fillColor=none;top=0;left=0;bottom=0;right=0;align=left;spacingLeft=6;" parent="V0L4xFkuPlVvDaO5OoCF-26" vertex="1">
          <mxGeometry x="30" width="110" height="30" as="geometry">
            <mxRectangle width="110" height="30" as="alternateBounds" />
          </mxGeometry>
        </mxCell>
        <mxCell id="W7TN4EEouALZe4q9rsRO-123" value="int" style="shape=partialRectangle;overflow=hidden;connectable=0;fillColor=none;top=0;left=0;bottom=0;right=0;align=left;spacingLeft=6;" parent="V0L4xFkuPlVvDaO5OoCF-26" vertex="1">
          <mxGeometry x="140" width="130" height="30" as="geometry">
            <mxRectangle width="130" height="30" as="alternateBounds" />
          </mxGeometry>
        </mxCell>
        <mxCell id="V0L4xFkuPlVvDaO5OoCF-29" value="" style="shape=partialRectangle;collapsible=0;dropTarget=0;pointerEvents=0;fillColor=none;points=[[0,0.5],[1,0.5]];portConstraint=eastwest;top=0;left=0;right=0;bottom=0;" parent="V0L4xFkuPlVvDaO5OoCF-19" vertex="1">
          <mxGeometry y="150" width="270" height="30" as="geometry" />
        </mxCell>
        <mxCell id="V0L4xFkuPlVvDaO5OoCF-30" value="FK" style="shape=partialRectangle;overflow=hidden;connectable=0;fillColor=none;top=0;left=0;bottom=0;right=0;" parent="V0L4xFkuPlVvDaO5OoCF-29" vertex="1">
          <mxGeometry width="30" height="30" as="geometry">
            <mxRectangle width="30" height="30" as="alternateBounds" />
          </mxGeometry>
        </mxCell>
        <mxCell id="V0L4xFkuPlVvDaO5OoCF-31" value="discount_id" style="shape=partialRectangle;overflow=hidden;connectable=0;fillColor=none;top=0;left=0;bottom=0;right=0;align=left;spacingLeft=6;" parent="V0L4xFkuPlVvDaO5OoCF-29" vertex="1">
          <mxGeometry x="30" width="110" height="30" as="geometry">
            <mxRectangle width="110" height="30" as="alternateBounds" />
          </mxGeometry>
        </mxCell>
        <mxCell id="W7TN4EEouALZe4q9rsRO-124" value="int" style="shape=partialRectangle;overflow=hidden;connectable=0;fillColor=none;top=0;left=0;bottom=0;right=0;align=left;spacingLeft=6;" parent="V0L4xFkuPlVvDaO5OoCF-29" vertex="1">
          <mxGeometry x="140" width="130" height="30" as="geometry">
            <mxRectangle width="130" height="30" as="alternateBounds" />
          </mxGeometry>
        </mxCell>
        <mxCell id="W7TN4EEouALZe4q9rsRO-35" value="" style="shape=partialRectangle;collapsible=0;dropTarget=0;pointerEvents=0;fillColor=none;points=[[0,0.5],[1,0.5]];portConstraint=eastwest;top=0;left=0;right=0;bottom=0;" parent="V0L4xFkuPlVvDaO5OoCF-19" vertex="1">
          <mxGeometry y="180" width="270" height="30" as="geometry" />
        </mxCell>
        <mxCell id="W7TN4EEouALZe4q9rsRO-36" value="" style="shape=partialRectangle;overflow=hidden;connectable=0;fillColor=none;top=0;left=0;bottom=0;right=0;" parent="W7TN4EEouALZe4q9rsRO-35" vertex="1">
          <mxGeometry width="30" height="30" as="geometry">
            <mxRectangle width="30" height="30" as="alternateBounds" />
          </mxGeometry>
        </mxCell>
        <mxCell id="W7TN4EEouALZe4q9rsRO-37" value="pajak" style="shape=partialRectangle;overflow=hidden;connectable=0;fillColor=none;top=0;left=0;bottom=0;right=0;align=left;spacingLeft=6;" parent="W7TN4EEouALZe4q9rsRO-35" vertex="1">
          <mxGeometry x="30" width="110" height="30" as="geometry">
            <mxRectangle width="110" height="30" as="alternateBounds" />
          </mxGeometry>
        </mxCell>
        <mxCell id="W7TN4EEouALZe4q9rsRO-125" value="double" style="shape=partialRectangle;overflow=hidden;connectable=0;fillColor=none;top=0;left=0;bottom=0;right=0;align=left;spacingLeft=6;" parent="W7TN4EEouALZe4q9rsRO-35" vertex="1">
          <mxGeometry x="140" width="130" height="30" as="geometry">
            <mxRectangle width="130" height="30" as="alternateBounds" />
          </mxGeometry>
        </mxCell>
        <mxCell id="W7TN4EEouALZe4q9rsRO-22" value="" style="shape=partialRectangle;collapsible=0;dropTarget=0;pointerEvents=0;fillColor=none;points=[[0,0.5],[1,0.5]];portConstraint=eastwest;top=0;left=0;right=0;bottom=0;" parent="V0L4xFkuPlVvDaO5OoCF-19" vertex="1">
          <mxGeometry y="210" width="270" height="30" as="geometry" />
        </mxCell>
        <mxCell id="W7TN4EEouALZe4q9rsRO-23" value="" style="shape=partialRectangle;overflow=hidden;connectable=0;fillColor=none;top=0;left=0;bottom=0;right=0;" parent="W7TN4EEouALZe4q9rsRO-22" vertex="1">
          <mxGeometry width="30" height="30" as="geometry">
            <mxRectangle width="30" height="30" as="alternateBounds" />
          </mxGeometry>
        </mxCell>
        <mxCell id="W7TN4EEouALZe4q9rsRO-24" value="price" style="shape=partialRectangle;overflow=hidden;connectable=0;fillColor=none;top=0;left=0;bottom=0;right=0;align=left;spacingLeft=6;" parent="W7TN4EEouALZe4q9rsRO-22" vertex="1">
          <mxGeometry x="30" width="110" height="30" as="geometry">
            <mxRectangle width="110" height="30" as="alternateBounds" />
          </mxGeometry>
        </mxCell>
        <mxCell id="W7TN4EEouALZe4q9rsRO-126" value="double" style="shape=partialRectangle;overflow=hidden;connectable=0;fillColor=none;top=0;left=0;bottom=0;right=0;align=left;spacingLeft=6;" parent="W7TN4EEouALZe4q9rsRO-22" vertex="1">
          <mxGeometry x="140" width="130" height="30" as="geometry">
            <mxRectangle width="130" height="30" as="alternateBounds" />
          </mxGeometry>
        </mxCell>
        <mxCell id="W7TN4EEouALZe4q9rsRO-26" value="" style="shape=partialRectangle;collapsible=0;dropTarget=0;pointerEvents=0;fillColor=none;points=[[0,0.5],[1,0.5]];portConstraint=eastwest;top=0;left=0;right=0;bottom=0;" parent="V0L4xFkuPlVvDaO5OoCF-19" vertex="1">
          <mxGeometry y="240" width="270" height="30" as="geometry" />
        </mxCell>
        <mxCell id="W7TN4EEouALZe4q9rsRO-27" value="" style="shape=partialRectangle;overflow=hidden;connectable=0;fillColor=none;top=0;left=0;bottom=0;right=0;" parent="W7TN4EEouALZe4q9rsRO-26" vertex="1">
          <mxGeometry width="30" height="30" as="geometry">
            <mxRectangle width="30" height="30" as="alternateBounds" />
          </mxGeometry>
        </mxCell>
        <mxCell id="W7TN4EEouALZe4q9rsRO-28" value="invoice_number" style="shape=partialRectangle;overflow=hidden;connectable=0;fillColor=none;top=0;left=0;bottom=0;right=0;align=left;spacingLeft=6;" parent="W7TN4EEouALZe4q9rsRO-26" vertex="1">
          <mxGeometry x="30" width="110" height="30" as="geometry">
            <mxRectangle width="110" height="30" as="alternateBounds" />
          </mxGeometry>
        </mxCell>
        <mxCell id="W7TN4EEouALZe4q9rsRO-127" value="int" style="shape=partialRectangle;overflow=hidden;connectable=0;fillColor=none;top=0;left=0;bottom=0;right=0;align=left;spacingLeft=6;" parent="W7TN4EEouALZe4q9rsRO-26" vertex="1">
          <mxGeometry x="140" width="130" height="30" as="geometry">
            <mxRectangle width="130" height="30" as="alternateBounds" />
          </mxGeometry>
        </mxCell>
        <mxCell id="W7TN4EEouALZe4q9rsRO-39" value="" style="shape=partialRectangle;collapsible=0;dropTarget=0;pointerEvents=0;fillColor=none;points=[[0,0.5],[1,0.5]];portConstraint=eastwest;top=0;left=0;right=0;bottom=0;" parent="V0L4xFkuPlVvDaO5OoCF-19" vertex="1">
          <mxGeometry y="270" width="270" height="30" as="geometry" />
        </mxCell>
        <mxCell id="W7TN4EEouALZe4q9rsRO-40" value="" style="shape=partialRectangle;overflow=hidden;connectable=0;fillColor=none;top=0;left=0;bottom=0;right=0;" parent="W7TN4EEouALZe4q9rsRO-39" vertex="1">
          <mxGeometry width="30" height="30" as="geometry">
            <mxRectangle width="30" height="30" as="alternateBounds" />
          </mxGeometry>
        </mxCell>
        <mxCell id="W7TN4EEouALZe4q9rsRO-41" value="total" style="shape=partialRectangle;overflow=hidden;connectable=0;fillColor=none;top=0;left=0;bottom=0;right=0;align=left;spacingLeft=6;" parent="W7TN4EEouALZe4q9rsRO-39" vertex="1">
          <mxGeometry x="30" width="110" height="30" as="geometry">
            <mxRectangle width="110" height="30" as="alternateBounds" />
          </mxGeometry>
        </mxCell>
        <mxCell id="W7TN4EEouALZe4q9rsRO-128" value="double" style="shape=partialRectangle;overflow=hidden;connectable=0;fillColor=none;top=0;left=0;bottom=0;right=0;align=left;spacingLeft=6;" parent="W7TN4EEouALZe4q9rsRO-39" vertex="1">
          <mxGeometry x="140" width="130" height="30" as="geometry">
            <mxRectangle width="130" height="30" as="alternateBounds" />
          </mxGeometry>
        </mxCell>
        <mxCell id="5-i2yzMDkz8oxT6V_A9C-38" value="" style="shape=partialRectangle;collapsible=0;dropTarget=0;pointerEvents=0;fillColor=none;points=[[0,0.5],[1,0.5]];portConstraint=eastwest;top=0;left=0;right=0;bottom=0;" parent="V0L4xFkuPlVvDaO5OoCF-19" vertex="1">
          <mxGeometry y="300" width="270" height="30" as="geometry" />
        </mxCell>
        <mxCell id="5-i2yzMDkz8oxT6V_A9C-39" value="" style="shape=partialRectangle;overflow=hidden;connectable=0;fillColor=none;top=0;left=0;bottom=0;right=0;" parent="5-i2yzMDkz8oxT6V_A9C-38" vertex="1">
          <mxGeometry width="30" height="30" as="geometry">
            <mxRectangle width="30" height="30" as="alternateBounds" />
          </mxGeometry>
        </mxCell>
        <mxCell id="5-i2yzMDkz8oxT6V_A9C-40" value="created_at" style="shape=partialRectangle;overflow=hidden;connectable=0;fillColor=none;top=0;left=0;bottom=0;right=0;align=left;spacingLeft=6;" parent="5-i2yzMDkz8oxT6V_A9C-38" vertex="1">
          <mxGeometry x="30" width="110" height="30" as="geometry">
            <mxRectangle width="110" height="30" as="alternateBounds" />
          </mxGeometry>
        </mxCell>
        <mxCell id="5-i2yzMDkz8oxT6V_A9C-41" value="timestamp" style="shape=partialRectangle;overflow=hidden;connectable=0;fillColor=#FFCCCC;top=0;left=0;bottom=0;right=0;align=left;spacingLeft=6;" parent="5-i2yzMDkz8oxT6V_A9C-38" vertex="1">
          <mxGeometry x="140" width="130" height="30" as="geometry">
            <mxRectangle width="130" height="30" as="alternateBounds" />
          </mxGeometry>
        </mxCell>
        <mxCell id="5-i2yzMDkz8oxT6V_A9C-42" value="" style="shape=partialRectangle;collapsible=0;dropTarget=0;pointerEvents=0;fillColor=none;points=[[0,0.5],[1,0.5]];portConstraint=eastwest;top=0;left=0;right=0;bottom=0;" parent="V0L4xFkuPlVvDaO5OoCF-19" vertex="1">
          <mxGeometry y="330" width="270" height="30" as="geometry" />
        </mxCell>
        <mxCell id="5-i2yzMDkz8oxT6V_A9C-43" value="" style="shape=partialRectangle;overflow=hidden;connectable=0;fillColor=none;top=0;left=0;bottom=0;right=0;" parent="5-i2yzMDkz8oxT6V_A9C-42" vertex="1">
          <mxGeometry width="30" height="30" as="geometry">
            <mxRectangle width="30" height="30" as="alternateBounds" />
          </mxGeometry>
        </mxCell>
        <mxCell id="5-i2yzMDkz8oxT6V_A9C-44" value="updated_at" style="shape=partialRectangle;overflow=hidden;connectable=0;fillColor=none;top=0;left=0;bottom=0;right=0;align=left;spacingLeft=6;" parent="5-i2yzMDkz8oxT6V_A9C-42" vertex="1">
          <mxGeometry x="30" width="110" height="30" as="geometry">
            <mxRectangle width="110" height="30" as="alternateBounds" />
          </mxGeometry>
        </mxCell>
        <mxCell id="5-i2yzMDkz8oxT6V_A9C-45" value="timestamp" style="shape=partialRectangle;overflow=hidden;connectable=0;fillColor=#FFCCCC;top=0;left=0;bottom=0;right=0;align=left;spacingLeft=6;" parent="5-i2yzMDkz8oxT6V_A9C-42" vertex="1">
          <mxGeometry x="140" width="130" height="30" as="geometry">
            <mxRectangle width="130" height="30" as="alternateBounds" />
          </mxGeometry>
        </mxCell>
        <mxCell id="V0L4xFkuPlVvDaO5OoCF-36" value="1" style="text;html=1;align=center;verticalAlign=middle;resizable=0;points=[];autosize=1;strokeColor=none;fillColor=none;" parent="1" vertex="1">
          <mxGeometry x="-320" y="470" width="30" height="30" as="geometry" />
        </mxCell>
        <mxCell id="V0L4xFkuPlVvDaO5OoCF-37" value="1" style="text;html=1;align=center;verticalAlign=middle;resizable=0;points=[];autosize=1;strokeColor=none;fillColor=none;" parent="1" vertex="1">
          <mxGeometry x="-730" y="410" width="30" height="30" as="geometry" />
        </mxCell>
        <mxCell id="V0L4xFkuPlVvDaO5OoCF-38" value="1" style="text;html=1;align=center;verticalAlign=middle;resizable=0;points=[];autosize=1;strokeColor=none;fillColor=none;" parent="1" vertex="1">
          <mxGeometry x="-730" y="520" width="30" height="30" as="geometry" />
        </mxCell>
        <mxCell id="V0L4xFkuPlVvDaO5OoCF-41" value="1" style="text;html=1;align=center;verticalAlign=middle;resizable=0;points=[];autosize=1;strokeColor=none;fillColor=none;" parent="1" vertex="1">
          <mxGeometry x="-630" y="790" width="30" height="30" as="geometry" />
        </mxCell>
        <mxCell id="V0L4xFkuPlVvDaO5OoCF-43" value="1" style="text;html=1;align=center;verticalAlign=middle;resizable=0;points=[];autosize=1;strokeColor=none;fillColor=none;" parent="1" vertex="1">
          <mxGeometry x="-1040" y="610" width="30" height="30" as="geometry" />
        </mxCell>
        <mxCell id="skIMHKm-3ecbblgHvybh-1" value="1" style="text;html=1;align=center;verticalAlign=middle;resizable=0;points=[];autosize=1;strokeColor=none;fillColor=none;" parent="1" vertex="1">
          <mxGeometry x="-1605" y="430" width="30" height="30" as="geometry" />
        </mxCell>
        <mxCell id="skIMHKm-3ecbblgHvybh-5" value="0..&lt;sup&gt;n&lt;/sup&gt;" style="text;html=1;align=center;verticalAlign=middle;resizable=0;points=[];autosize=1;strokeColor=none;fillColor=none;" parent="1" vertex="1">
          <mxGeometry x="-1615" y="190" width="40" height="30" as="geometry" />
        </mxCell>
        <mxCell id="skIMHKm-3ecbblgHvybh-8" value="0..&lt;sup&gt;n&lt;/sup&gt;" style="text;html=1;align=center;verticalAlign=middle;resizable=0;points=[];autosize=1;strokeColor=none;fillColor=none;" parent="1" vertex="1">
          <mxGeometry x="-1305" y="170" width="40" height="30" as="geometry" />
        </mxCell>
        <mxCell id="skIMHKm-3ecbblgHvybh-10" value="0..&lt;sup&gt;n&lt;/sup&gt;" style="text;html=1;align=center;verticalAlign=middle;resizable=0;points=[];autosize=1;strokeColor=none;fillColor=none;" parent="1" vertex="1">
          <mxGeometry x="-400" y="680" width="40" height="30" as="geometry" />
        </mxCell>
        <mxCell id="YtIEfURUHtz2SjncPsk2-1" value="" style="endArrow=diamondThin;endFill=1;endSize=24;html=1;rounded=0;edgeStyle=orthogonalEdgeStyle;entryX=0;entryY=0.5;entryDx=0;entryDy=0;exitX=0;exitY=0.5;exitDx=0;exitDy=0;" parent="1" source="4E7Y2Z4R7kvPLD5SU0ed-28" target="4E7Y2Z4R7kvPLD5SU0ed-2" edge="1">
          <mxGeometry width="160" relative="1" as="geometry">
            <mxPoint x="-1345" y="320" as="sourcePoint" />
            <mxPoint x="-1750" y="90" as="targetPoint" />
            <Array as="points">
              <mxPoint x="-1660" y="225" />
              <mxPoint x="-1660" y="465" />
            </Array>
          </mxGeometry>
        </mxCell>
        <mxCell id="YtIEfURUHtz2SjncPsk2-2" value="Have" style="edgeLabel;html=1;align=center;verticalAlign=middle;resizable=0;points=[];" parent="YtIEfURUHtz2SjncPsk2-1" connectable="0" vertex="1">
          <mxGeometry x="-0.1871" y="-1" relative="1" as="geometry">
            <mxPoint as="offset" />
          </mxGeometry>
        </mxCell>
        <mxCell id="mLUIty6LdKSt9IyecA4C-1" value="discount" style="shape=table;startSize=30;container=1;collapsible=1;childLayout=tableLayout;fixedRows=1;rowLines=0;fontStyle=1;align=center;resizeLast=1;" parent="1" vertex="1">
          <mxGeometry x="-1425" y="755" width="265" height="250" as="geometry">
            <mxRectangle x="860" y="290" width="100" height="30" as="alternateBounds" />
          </mxGeometry>
        </mxCell>
        <mxCell id="mLUIty6LdKSt9IyecA4C-2" value="" style="shape=partialRectangle;collapsible=0;dropTarget=0;pointerEvents=0;fillColor=none;points=[[0,0.5],[1,0.5]];portConstraint=eastwest;top=0;left=0;right=0;bottom=1;" parent="mLUIty6LdKSt9IyecA4C-1" vertex="1">
          <mxGeometry y="30" width="265" height="30" as="geometry" />
        </mxCell>
        <mxCell id="mLUIty6LdKSt9IyecA4C-3" value="PK" style="shape=partialRectangle;overflow=hidden;connectable=0;fillColor=none;top=0;left=0;bottom=0;right=0;fontStyle=1;" parent="mLUIty6LdKSt9IyecA4C-2" vertex="1">
          <mxGeometry width="30" height="30" as="geometry">
            <mxRectangle width="30" height="30" as="alternateBounds" />
          </mxGeometry>
        </mxCell>
        <mxCell id="mLUIty6LdKSt9IyecA4C-4" value="discount_id" style="shape=partialRectangle;overflow=hidden;connectable=0;fillColor=none;top=0;left=0;bottom=0;right=0;align=left;spacingLeft=6;fontStyle=5;" parent="mLUIty6LdKSt9IyecA4C-2" vertex="1">
          <mxGeometry x="30" width="150" height="30" as="geometry">
            <mxRectangle width="150" height="30" as="alternateBounds" />
          </mxGeometry>
        </mxCell>
        <mxCell id="W7TN4EEouALZe4q9rsRO-2" value="int" style="shape=partialRectangle;overflow=hidden;connectable=0;fillColor=none;top=0;left=0;bottom=0;right=0;align=left;spacingLeft=6;fontStyle=5;" parent="mLUIty6LdKSt9IyecA4C-2" vertex="1">
          <mxGeometry x="180" width="85" height="30" as="geometry">
            <mxRectangle width="85" height="30" as="alternateBounds" />
          </mxGeometry>
        </mxCell>
        <mxCell id="mLUIty6LdKSt9IyecA4C-5" value="" style="shape=partialRectangle;collapsible=0;dropTarget=0;pointerEvents=0;fillColor=none;points=[[0,0.5],[1,0.5]];portConstraint=eastwest;top=0;left=0;right=0;bottom=0;" parent="mLUIty6LdKSt9IyecA4C-1" vertex="1">
          <mxGeometry y="60" width="265" height="30" as="geometry" />
        </mxCell>
        <mxCell id="mLUIty6LdKSt9IyecA4C-6" value="" style="shape=partialRectangle;overflow=hidden;connectable=0;fillColor=none;top=0;left=0;bottom=0;right=0;" parent="mLUIty6LdKSt9IyecA4C-5" vertex="1">
          <mxGeometry width="30" height="30" as="geometry">
            <mxRectangle width="30" height="30" as="alternateBounds" />
          </mxGeometry>
        </mxCell>
        <mxCell id="mLUIty6LdKSt9IyecA4C-7" value="discount_request" style="shape=partialRectangle;overflow=hidden;connectable=0;fillColor=none;top=0;left=0;bottom=0;right=0;align=left;spacingLeft=6;" parent="mLUIty6LdKSt9IyecA4C-5" vertex="1">
          <mxGeometry x="30" width="150" height="30" as="geometry">
            <mxRectangle width="150" height="30" as="alternateBounds" />
          </mxGeometry>
        </mxCell>
        <mxCell id="W7TN4EEouALZe4q9rsRO-3" value="varchar(100)" style="shape=partialRectangle;overflow=hidden;connectable=0;fillColor=none;top=0;left=0;bottom=0;right=0;align=left;spacingLeft=6;" parent="mLUIty6LdKSt9IyecA4C-5" vertex="1">
          <mxGeometry x="180" width="85" height="30" as="geometry">
            <mxRectangle width="85" height="30" as="alternateBounds" />
          </mxGeometry>
        </mxCell>
        <mxCell id="mLUIty6LdKSt9IyecA4C-8" value="" style="shape=partialRectangle;collapsible=0;dropTarget=0;pointerEvents=0;fillColor=none;points=[[0,0.5],[1,0.5]];portConstraint=eastwest;top=0;left=0;right=0;bottom=0;" parent="mLUIty6LdKSt9IyecA4C-1" vertex="1">
          <mxGeometry y="90" width="265" height="30" as="geometry" />
        </mxCell>
        <mxCell id="mLUIty6LdKSt9IyecA4C-9" value="" style="shape=partialRectangle;overflow=hidden;connectable=0;fillColor=none;top=0;left=0;bottom=0;right=0;" parent="mLUIty6LdKSt9IyecA4C-8" vertex="1">
          <mxGeometry width="30" height="30" as="geometry">
            <mxRectangle width="30" height="30" as="alternateBounds" />
          </mxGeometry>
        </mxCell>
        <mxCell id="mLUIty6LdKSt9IyecA4C-10" value="discount_status" style="shape=partialRectangle;overflow=hidden;connectable=0;fillColor=none;top=0;left=0;bottom=0;right=0;align=left;spacingLeft=6;" parent="mLUIty6LdKSt9IyecA4C-8" vertex="1">
          <mxGeometry x="30" width="150" height="30" as="geometry">
            <mxRectangle width="150" height="30" as="alternateBounds" />
          </mxGeometry>
        </mxCell>
        <mxCell id="W7TN4EEouALZe4q9rsRO-4" value="varchar(100)" style="shape=partialRectangle;overflow=hidden;connectable=0;fillColor=none;top=0;left=0;bottom=0;right=0;align=left;spacingLeft=6;" parent="mLUIty6LdKSt9IyecA4C-8" vertex="1">
          <mxGeometry x="180" width="85" height="30" as="geometry">
            <mxRectangle width="85" height="30" as="alternateBounds" />
          </mxGeometry>
        </mxCell>
        <mxCell id="mLUIty6LdKSt9IyecA4C-11" value="" style="shape=partialRectangle;collapsible=0;dropTarget=0;pointerEvents=0;fillColor=none;points=[[0,0.5],[1,0.5]];portConstraint=eastwest;top=0;left=0;right=0;bottom=0;" parent="mLUIty6LdKSt9IyecA4C-1" vertex="1">
          <mxGeometry y="120" width="265" height="30" as="geometry" />
        </mxCell>
        <mxCell id="mLUIty6LdKSt9IyecA4C-12" value="" style="shape=partialRectangle;overflow=hidden;connectable=0;fillColor=none;top=0;left=0;bottom=0;right=0;" parent="mLUIty6LdKSt9IyecA4C-11" vertex="1">
          <mxGeometry width="30" height="30" as="geometry">
            <mxRectangle width="30" height="30" as="alternateBounds" />
          </mxGeometry>
        </mxCell>
        <mxCell id="mLUIty6LdKSt9IyecA4C-13" value="discount_ammount" style="shape=partialRectangle;overflow=hidden;connectable=0;fillColor=none;top=0;left=0;bottom=0;right=0;align=left;spacingLeft=6;" parent="mLUIty6LdKSt9IyecA4C-11" vertex="1">
          <mxGeometry x="30" width="150" height="30" as="geometry">
            <mxRectangle width="150" height="30" as="alternateBounds" />
          </mxGeometry>
        </mxCell>
        <mxCell id="W7TN4EEouALZe4q9rsRO-5" value="double" style="shape=partialRectangle;overflow=hidden;connectable=0;fillColor=none;top=0;left=0;bottom=0;right=0;align=left;spacingLeft=6;" parent="mLUIty6LdKSt9IyecA4C-11" vertex="1">
          <mxGeometry x="180" width="85" height="30" as="geometry">
            <mxRectangle width="85" height="30" as="alternateBounds" />
          </mxGeometry>
        </mxCell>
        <mxCell id="mLUIty6LdKSt9IyecA4C-14" value="" style="shape=partialRectangle;collapsible=0;dropTarget=0;pointerEvents=0;fillColor=none;points=[[0,0.5],[1,0.5]];portConstraint=eastwest;top=0;left=0;right=0;bottom=0;" parent="mLUIty6LdKSt9IyecA4C-1" vertex="1">
          <mxGeometry y="150" width="265" height="30" as="geometry" />
        </mxCell>
        <mxCell id="mLUIty6LdKSt9IyecA4C-15" value="" style="shape=partialRectangle;overflow=hidden;connectable=0;fillColor=none;top=0;left=0;bottom=0;right=0;" parent="mLUIty6LdKSt9IyecA4C-14" vertex="1">
          <mxGeometry width="30" height="30" as="geometry">
            <mxRectangle width="30" height="30" as="alternateBounds" />
          </mxGeometry>
        </mxCell>
        <mxCell id="mLUIty6LdKSt9IyecA4C-16" value="invoice_id" style="shape=partialRectangle;overflow=hidden;connectable=0;fillColor=none;top=0;left=0;bottom=0;right=0;align=left;spacingLeft=6;" parent="mLUIty6LdKSt9IyecA4C-14" vertex="1">
          <mxGeometry x="30" width="150" height="30" as="geometry">
            <mxRectangle width="150" height="30" as="alternateBounds" />
          </mxGeometry>
        </mxCell>
        <mxCell id="W7TN4EEouALZe4q9rsRO-6" value="int" style="shape=partialRectangle;overflow=hidden;connectable=0;fillColor=none;top=0;left=0;bottom=0;right=0;align=left;spacingLeft=6;" parent="mLUIty6LdKSt9IyecA4C-14" vertex="1">
          <mxGeometry x="180" width="85" height="30" as="geometry">
            <mxRectangle width="85" height="30" as="alternateBounds" />
          </mxGeometry>
        </mxCell>
        <mxCell id="5-i2yzMDkz8oxT6V_A9C-26" value="" style="shape=partialRectangle;collapsible=0;dropTarget=0;pointerEvents=0;fillColor=none;points=[[0,0.5],[1,0.5]];portConstraint=eastwest;top=0;left=0;right=0;bottom=0;" parent="mLUIty6LdKSt9IyecA4C-1" vertex="1">
          <mxGeometry y="180" width="265" height="30" as="geometry" />
        </mxCell>
        <mxCell id="5-i2yzMDkz8oxT6V_A9C-27" value="" style="shape=partialRectangle;overflow=hidden;connectable=0;fillColor=none;top=0;left=0;bottom=0;right=0;" parent="5-i2yzMDkz8oxT6V_A9C-26" vertex="1">
          <mxGeometry width="30" height="30" as="geometry">
            <mxRectangle width="30" height="30" as="alternateBounds" />
          </mxGeometry>
        </mxCell>
        <mxCell id="5-i2yzMDkz8oxT6V_A9C-28" value="created_at" style="shape=partialRectangle;overflow=hidden;connectable=0;fillColor=none;top=0;left=0;bottom=0;right=0;align=left;spacingLeft=6;" parent="5-i2yzMDkz8oxT6V_A9C-26" vertex="1">
          <mxGeometry x="30" width="150" height="30" as="geometry">
            <mxRectangle width="150" height="30" as="alternateBounds" />
          </mxGeometry>
        </mxCell>
        <mxCell id="5-i2yzMDkz8oxT6V_A9C-29" value="timestamp" style="shape=partialRectangle;overflow=hidden;connectable=0;fillColor=#FFCCCC;top=0;left=0;bottom=0;right=0;align=left;spacingLeft=6;" parent="5-i2yzMDkz8oxT6V_A9C-26" vertex="1">
          <mxGeometry x="180" width="85" height="30" as="geometry">
            <mxRectangle width="85" height="30" as="alternateBounds" />
          </mxGeometry>
        </mxCell>
        <mxCell id="5-i2yzMDkz8oxT6V_A9C-34" value="" style="shape=partialRectangle;collapsible=0;dropTarget=0;pointerEvents=0;fillColor=none;points=[[0,0.5],[1,0.5]];portConstraint=eastwest;top=0;left=0;right=0;bottom=0;" parent="mLUIty6LdKSt9IyecA4C-1" vertex="1">
          <mxGeometry y="210" width="265" height="30" as="geometry" />
        </mxCell>
        <mxCell id="5-i2yzMDkz8oxT6V_A9C-35" value="" style="shape=partialRectangle;overflow=hidden;connectable=0;fillColor=none;top=0;left=0;bottom=0;right=0;" parent="5-i2yzMDkz8oxT6V_A9C-34" vertex="1">
          <mxGeometry width="30" height="30" as="geometry">
            <mxRectangle width="30" height="30" as="alternateBounds" />
          </mxGeometry>
        </mxCell>
        <mxCell id="5-i2yzMDkz8oxT6V_A9C-36" value="updated_at" style="shape=partialRectangle;overflow=hidden;connectable=0;fillColor=none;top=0;left=0;bottom=0;right=0;align=left;spacingLeft=6;" parent="5-i2yzMDkz8oxT6V_A9C-34" vertex="1">
          <mxGeometry x="30" width="150" height="30" as="geometry">
            <mxRectangle width="150" height="30" as="alternateBounds" />
          </mxGeometry>
        </mxCell>
        <mxCell id="5-i2yzMDkz8oxT6V_A9C-37" value="timestamp" style="shape=partialRectangle;overflow=hidden;connectable=0;fillColor=#FFCCCC;top=0;left=0;bottom=0;right=0;align=left;spacingLeft=6;" parent="5-i2yzMDkz8oxT6V_A9C-34" vertex="1">
          <mxGeometry x="180" width="85" height="30" as="geometry">
            <mxRectangle width="85" height="30" as="alternateBounds" />
          </mxGeometry>
        </mxCell>
        <mxCell id="mLUIty6LdKSt9IyecA4C-22" value="" style="endArrow=diamondThin;endFill=1;endSize=24;html=1;rounded=0;edgeStyle=orthogonalEdgeStyle;entryX=1;entryY=0.5;entryDx=0;entryDy=0;exitX=0;exitY=0.5;exitDx=0;exitDy=0;" parent="1" source="RwkWLb-9THUpObUzx17u-176" target="mLUIty6LdKSt9IyecA4C-2" edge="1">
          <mxGeometry width="160" relative="1" as="geometry">
            <mxPoint x="-880" y="885" as="sourcePoint" />
            <mxPoint x="-1093.57" y="685" as="targetPoint" />
          </mxGeometry>
        </mxCell>
        <mxCell id="mLUIty6LdKSt9IyecA4C-23" value="Have" style="edgeLabel;html=1;align=center;verticalAlign=middle;resizable=0;points=[];" parent="mLUIty6LdKSt9IyecA4C-22" connectable="0" vertex="1">
          <mxGeometry x="-0.1871" y="-1" relative="1" as="geometry">
            <mxPoint as="offset" />
          </mxGeometry>
        </mxCell>
        <mxCell id="mLUIty6LdKSt9IyecA4C-25" value="1" style="text;html=1;align=center;verticalAlign=middle;resizable=0;points=[];autosize=1;strokeColor=none;fillColor=none;" parent="1" vertex="1">
          <mxGeometry x="-1520" y="720" width="30" height="30" as="geometry" />
        </mxCell>
        <mxCell id="mLUIty6LdKSt9IyecA4C-26" value="1" style="text;html=1;align=center;verticalAlign=middle;resizable=0;points=[];autosize=1;strokeColor=none;fillColor=none;" parent="1" vertex="1">
          <mxGeometry x="-1110" y="770" width="30" height="30" as="geometry" />
        </mxCell>
        <mxCell id="8KLkgvAYbc9Z4wnAoRf4-6" value="1" style="text;html=1;align=center;verticalAlign=middle;resizable=0;points=[];autosize=1;strokeColor=none;fillColor=none;" parent="1" vertex="1">
          <mxGeometry x="-1023.57" y="535" width="30" height="30" as="geometry" />
        </mxCell>
        <mxCell id="8KLkgvAYbc9Z4wnAoRf4-7" value="" style="endArrow=diamondThin;endFill=0;endSize=24;html=1;rounded=0;exitX=0;exitY=0.5;exitDx=0;exitDy=0;edgeStyle=orthogonalEdgeStyle;entryX=0;entryY=0.5;entryDx=0;entryDy=0;" parent="1" source="8KLkgvAYbc9Z4wnAoRf4-1" target="RwkWLb-9THUpObUzx17u-95" edge="1">
          <mxGeometry width="160" relative="1" as="geometry">
            <mxPoint x="-1295" y="235" as="sourcePoint" />
            <mxPoint x="-850" y="170" as="targetPoint" />
            <Array as="points">
              <mxPoint x="-1030" y="575" />
              <mxPoint x="-1030" y="95" />
            </Array>
          </mxGeometry>
        </mxCell>
        <mxCell id="W7TN4EEouALZe4q9rsRO-1" value="0..&lt;sup&gt;n&lt;/sup&gt;" style="text;html=1;align=center;verticalAlign=middle;resizable=0;points=[];autosize=1;strokeColor=none;fillColor=none;" parent="1" vertex="1">
          <mxGeometry x="-400" y="760" width="40" height="30" as="geometry" />
        </mxCell>
        <mxCell id="W7TN4EEouALZe4q9rsRO-31" value="" style="endArrow=diamondThin;endFill=1;endSize=24;html=1;rounded=0;edgeStyle=orthogonalEdgeStyle;entryX=1;entryY=0.5;entryDx=0;entryDy=0;exitX=0;exitY=0.5;exitDx=0;exitDy=0;" parent="1" source="mLUIty6LdKSt9IyecA4C-14" target="V0L4xFkuPlVvDaO5OoCF-20" edge="1">
          <mxGeometry width="160" relative="1" as="geometry">
            <mxPoint x="-1395" y="625" as="sourcePoint" />
            <mxPoint x="-1630" y="520" as="targetPoint" />
          </mxGeometry>
        </mxCell>
        <mxCell id="W7TN4EEouALZe4q9rsRO-32" value="Have" style="edgeLabel;html=1;align=center;verticalAlign=middle;resizable=0;points=[];" parent="W7TN4EEouALZe4q9rsRO-31" connectable="0" vertex="1">
          <mxGeometry x="-0.1871" y="-1" relative="1" as="geometry">
            <mxPoint as="offset" />
          </mxGeometry>
        </mxCell>
        <mxCell id="W7TN4EEouALZe4q9rsRO-33" value="1" style="text;html=1;align=center;verticalAlign=middle;resizable=0;points=[];autosize=1;strokeColor=none;fillColor=none;" parent="1" vertex="1">
          <mxGeometry x="-1460" y="920" width="30" height="30" as="geometry" />
        </mxCell>
        <mxCell id="W7TN4EEouALZe4q9rsRO-52" value="1" style="text;html=1;align=center;verticalAlign=middle;resizable=0;points=[];autosize=1;strokeColor=none;fillColor=none;" parent="1" vertex="1">
          <mxGeometry x="-930" y="910" width="30" height="30" as="geometry" />
        </mxCell>
      </root>
    </mxGraphModel>
  </diagram>
  <diagram id="wY4S-Vl-Sl-03dfoEtm3" name="Feature">
    <mxGraphModel dx="2563" dy="514" grid="1" gridSize="10" guides="1" tooltips="1" connect="1" arrows="1" fold="1" page="1" pageScale="1" pageWidth="850" pageHeight="1100" math="0" shadow="0">
      <root>
        <mxCell id="0" />
        <mxCell id="1" parent="0" />
        <mxCell id="3wZBNiLtehh7jevsufa0-2" style="edgeStyle=orthogonalEdgeStyle;rounded=0;orthogonalLoop=1;jettySize=auto;html=1;exitX=0.5;exitY=0;exitDx=0;exitDy=0;entryX=0.5;entryY=1;entryDx=0;entryDy=0;" parent="1" source="3wZBNiLtehh7jevsufa0-1" target="3wZBNiLtehh7jevsufa0-4" edge="1">
          <mxGeometry relative="1" as="geometry">
            <mxPoint x="-1541" y="120" as="targetPoint" />
          </mxGeometry>
        </mxCell>
        <mxCell id="3wZBNiLtehh7jevsufa0-3" value="Login" style="edgeLabel;html=1;align=center;verticalAlign=middle;resizable=0;points=[];" parent="3wZBNiLtehh7jevsufa0-2" vertex="1" connectable="0">
          <mxGeometry x="-0.2" y="1" relative="1" as="geometry">
            <mxPoint as="offset" />
          </mxGeometry>
        </mxCell>
        <mxCell id="3wZBNiLtehh7jevsufa0-1" value="owner" style="rounded=0;whiteSpace=wrap;html=1;" parent="1" vertex="1">
          <mxGeometry x="-1601" y="190" width="120" height="60" as="geometry" />
        </mxCell>
        <mxCell id="3wZBNiLtehh7jevsufa0-4" value="memilih" style="ellipse;whiteSpace=wrap;html=1;aspect=fixed;" parent="1" vertex="1">
          <mxGeometry x="-1581" y="40" width="80" height="80" as="geometry" />
        </mxCell>
        <mxCell id="k8CaY9XAW_5RYt8lcxkm-1" value="Owner Can :&lt;br&gt;See, Create, Update,Delete&lt;br&gt;Assign 1 Employee to 1 hotel" style="edgeLabel;html=1;align=center;verticalAlign=middle;resizable=0;points=[];" parent="1" connectable="0" vertex="1">
          <mxGeometry x="-1346.1414285714284" y="90" as="geometry" />
        </mxCell>
        <mxCell id="QpJB9qHjqKW14COGvehE-1" value="Employee : &lt;br&gt;Can See&lt;br&gt;Can Book/Cancel Book" style="edgeLabel;html=1;align=center;verticalAlign=middle;resizable=0;points=[];" parent="1" connectable="0" vertex="1">
          <mxGeometry x="-1346.1385714285716" y="189.99714285714288" as="geometry" />
        </mxCell>
      </root>
    </mxGraphModel>
  </diagram>
</mxfile>
